<svg width="600" height="600" viewBox="0 0 600 600" fill="none" xmlns="http://www.w3.org/2000/svg">
<path d="M511.38 132.675C583.935 309.78 511.38 405 450 457.5C465 510 405.21 520.83 382.5 495C315.645 518.055 179.82 517.305 82.5003 420C30.0003 367.5 70.9503 250.71 210 172.5C330 105 450 67.5001 511.38 132.675Z" fill="#D0E94F"/>
<path d="M210 172.5C312.72 105.045 435.375 76.7996 485.52 120.45C562.5 187.5 322.5 339.18 232.5 375C135 413.805 187.5 502.5 135 502.5C90.0003 502.5 97.5003 442.5 57.2553 386.25C33.4803 353.025 92.4003 249.72 210 172.5Z" fill="white" stroke="#D0E94F" stroke-width="15"/>
<path d="M428.025 131.581C497.7 150.331 422.55 217.006 363.48 259.621C307.5 300.001 264.39 322.771 244.635 332.071C239.145 334.666 220.38 298.291 220.38 317.071C220.38 323.326 209.88 350.641 206.37 351.961C185.895 359.641 143.025 371.311 118.845 371.311C66.48 371.311 90 300.001 164.055 234.481C177.435 222.646 186.225 224.806 198.3 224.806C190.245 213.211 190.29 211.051 204.345 201.616C266.85 159.601 345 131.551 378.18 126.301C383.67 126.511 390.48 131.551 390.48 135.736C396.63 133.636 421.905 129.916 428.025 131.566V131.581Z" fill="#D0E94F"/>
<path d="M214.455 247.349C229.23 236.144 239.115 232.199 245.94 209.459C254.43 211.274 258.555 208.259 265.29 198.944C270.15 205.934 290.145 208.064 302.085 209.459C291.36 216.224 286.23 222.239 280.305 241.049C258.345 231.884 232.8 236.519 214.455 247.349Z" fill="white"/>
</svg>
