<svg width="1745" height="1014" viewBox="0 0 1745 1014" fill="none" xmlns="http://www.w3.org/2000/svg">
<g clip-path="url(#clip0_301_2)">
<path d="M1738.73 508L1739.31 507L1738.73 506L1485.23 66.9251L1484.65 65.9251L1483.5 65.9251L976.5 65.9251L975.345 65.9251L974.768 66.9251L721.268 506L720.691 507L721.268 508L974.768 947.075L975.345 948.075L976.5 948.075L1483.5 948.075L1484.65 948.075L1485.23 947.075L1738.73 508Z" stroke="black" stroke-width="4"/>
<mask id="mask0_301_2" style="mask-type:alpha" maskUnits="userSpaceOnUse" x="723" y="67" width="1014" height="880">
<path d="M1737 507L1483.5 946.075L976.5 946.075L723 507L976.5 67.9251L1483.5 67.9251L1737 507Z" fill="#D9D9D9"/>
</mask>
<g mask="url(#mask0_301_2)">
<rect x="719.444" y="-0.518738" width="1017.56" height="1014.52" fill="#70B5EC"/>
<circle cx="1636.32" cy="416.852" r="157.384" fill="#3F9AE0"/>
<circle cx="1459.74" cy="445.002" r="62.6977" fill="#176FC9" fill-opacity="0.8"/>
<circle cx="1093.79" cy="140.47" r="60.1386" fill="#3B92E1"/>
<circle cx="938.964" cy="384.864" r="38.3864" fill="#0782D5" fill-opacity="0.6"/>
<circle cx="912.093" cy="555.043" r="113.88" fill="#97CBF3" fill-opacity="0.8"/>
<circle cx="1001.66" cy="437.325" r="62.6977" fill="#3E90DD" fill-opacity="0.6"/>
<circle cx="822.525" cy="731.62" r="80.6113" fill="#519BD1" fill-opacity="0.8"/>
<circle cx="1269.09" cy="935.068" r="56.3" fill="#3A9DE2"/>
<g style="mix-blend-mode:multiply">
<path d="M1189.64 0.260376C1187.27 0.509521 1179.67 1.38147 1172.82 2.00433C1075.4 12.2192 979.473 53.4526 901.239 118.977C886.788 130.936 853.9 163.823 841.94 178.274C777.16 255.633 739.288 342.46 725.336 445.232C722.221 468.028 722.221 545.014 725.336 567.811C739.288 670.583 777.16 757.409 841.94 834.768C853.9 849.219 886.788 882.106 901.239 894.065C978.601 958.842 1065.43 996.712 1168.21 1010.66C1191.01 1013.78 1267.99 1013.78 1290.79 1010.66C1393.57 996.712 1480.4 958.842 1557.76 894.065C1572.21 882.106 1605.1 849.219 1617.06 834.768C1681.84 757.409 1719.71 670.583 1733.66 567.811C1736.78 545.014 1736.78 468.028 1733.66 445.232C1719.71 342.46 1681.84 255.633 1617.06 178.274C1605.1 163.823 1572.21 130.936 1557.76 118.977C1480.65 54.4492 1392.95 16.081 1291.54 2.50262C1280.58 1.00775 1264.63 0.384949 1235.11 0.135803C1212.56 -0.113342 1192 0.0112305 1189.64 0.260376ZM1195.86 54.0755C1195.86 68.6504 1196.86 100.292 1198.23 130.314C1198.98 145.013 1199.85 166.066 1200.22 177.028C1201.59 215.895 1205.71 317.919 1206.33 327.013L1206.95 336.107L1201.35 335.484C1198.23 335.235 1195.37 334.487 1194.87 334.113C1194.49 333.615 1193.62 325.02 1193.12 314.929C1190.88 270.582 1183.53 98.5477 1182.78 73.3842L1182.04 45.7291L1185.52 45.2308C1187.39 44.9817 1190.51 44.608 1192.5 44.4834L1195.86 44.3588V54.0755ZM1315.08 51.0858C1315.21 51.2103 1315.58 88.8311 1315.96 134.674C1316.45 180.641 1317.08 221.874 1317.45 226.359C1317.83 230.968 1317.7 234.954 1317.08 235.203C1316.58 235.577 1313.47 235.577 1310.35 235.203L1304.62 234.705L1303.75 198.454C1303.25 178.398 1302.63 156.225 1302.38 148.999C1301.38 126.95 1300.51 52.0823 1301.26 50.2137C1301.75 48.8434 1303.13 48.7189 1308.36 49.5909C1311.97 50.3383 1314.96 50.9612 1315.08 51.0858ZM1026.94 92.8174C1027.68 93.9385 1033.54 162.578 1040.77 252.394C1043.13 282.914 1045.5 310.818 1045.87 314.306C1046.5 320.66 1046.37 320.909 1042.38 323.4C1040.14 324.771 1037.9 325.892 1037.4 325.892C1037.03 325.892 1036.28 322.653 1035.91 318.667C1034.16 302.472 1027.44 224.241 1022.7 167.685C1019.96 134.424 1017.47 104.652 1017.1 101.413C1016.47 95.9317 1016.6 95.4334 1019.84 93.6894C1023.82 91.5717 1026.07 91.1979 1026.94 92.8174ZM1369.9 117.856C1373.39 119.102 1373.76 119.725 1374.51 126.826C1375.75 139.283 1375.38 198.828 1374.01 198.828C1370.4 198.828 1362.92 194.593 1362.3 192.226C1361.93 190.731 1361.55 173.042 1361.55 152.986C1361.55 112.5 1361.05 114.867 1369.9 117.856ZM1139.8 123.711C1139.8 127.075 1140.68 145.636 1141.67 165.194C1142.67 184.752 1143.79 209.541 1144.29 220.255C1145.16 241.93 1145.41 241.183 1137.06 241.681C1132.95 241.806 1132.95 241.806 1132.7 235.577C1132.45 232.089 1131.83 221.251 1131.08 211.285C1130.46 201.32 1128.97 179.769 1127.97 163.325C1126.97 146.882 1125.73 130.563 1125.35 127.075C1124.61 120.846 1124.73 120.597 1128.09 119.351C1130.09 118.604 1133.58 117.981 1135.82 117.981C1139.8 117.856 1139.8 117.856 1139.8 123.711ZM1485.38 140.778L1489.62 142.522L1490.49 159.214C1490.86 168.308 1491.11 187.99 1490.86 202.815L1490.49 229.971L1485.26 227.355L1480.02 224.864L1479.65 183.506C1479.4 160.709 1479.53 141.4 1479.78 140.528C1480.27 138.66 1480.27 138.66 1485.38 140.778ZM1257.9 157.097C1258.65 157.844 1260.4 218.261 1260.52 248.906L1260.64 267.343L1254.79 266.471C1251.43 266.097 1248.68 265.723 1248.56 265.599C1248.19 265.35 1244.45 173.042 1244.45 164.073V154.854L1250.8 155.602C1254.42 156.1 1257.53 156.723 1257.9 157.097ZM1544.81 165.941C1546.3 167.685 1546.55 194.966 1546.92 345.449C1547.3 518.231 1547.3 522.716 1545.05 522.716C1543.68 522.716 1541.82 521.968 1540.69 521.096C1538.83 519.726 1538.58 504.653 1537.95 357.035C1537.46 267.592 1536.83 186.371 1536.46 176.53L1535.71 158.591L1539.32 161.207C1541.44 162.702 1543.81 164.82 1544.81 165.941ZM1433.06 191.478C1433.68 191.977 1434.3 199.077 1434.43 207.174C1435.05 234.705 1435.18 403.5 1434.55 403.998C1434.3 404.247 1432.06 403.625 1429.57 402.628L1425.09 400.759V294.749V188.862L1428.57 189.61C1430.44 190.108 1432.44 190.856 1433.06 191.478ZM1089.23 198.454C1089.6 201.818 1090.22 209.417 1090.6 215.645C1090.97 221.749 1091.84 235.702 1092.59 246.539C1094.08 268.464 1093.84 269.834 1086.73 269.834C1083 269.834 1082.5 269.461 1082 265.723C1080.75 258.374 1076.39 197.084 1077.02 196.088C1077.64 195.216 1084.12 192.973 1087.11 192.724C1087.86 192.6 1088.85 195.216 1089.23 198.454ZM883.175 230.22C884.546 243.425 887.286 271.08 889.279 291.634C891.397 312.189 893.141 329.629 893.141 330.376C893.141 331.871 883.549 336.605 882.552 335.608C881.929 334.985 869.472 224.739 869.472 219.756C869.472 216.767 879.064 204.185 880.31 205.555C880.684 205.804 881.929 216.891 883.175 230.22ZM1371.64 243.3L1375.26 245.418L1375.38 272.326C1375.5 287.025 1375.75 303.469 1375.75 308.825C1376 320.037 1374.63 321.905 1367.91 319.539L1364.04 318.168V307.455C1364.04 301.476 1363.67 284.16 1363.17 268.838L1362.42 241.183H1365.29C1366.78 241.183 1369.65 242.179 1371.64 243.3ZM937.865 291.634C940.107 315.552 943.72 355.914 946.087 381.326L950.322 427.418L945.464 432.276L940.73 437.135L939.858 427.293C939.36 421.812 936.868 396.399 934.252 370.738C931.636 345.076 927.898 307.829 926.03 288.022L922.542 252.145L927.4 247.66C931.76 243.55 932.259 243.425 933.131 245.667C933.629 246.913 935.747 267.592 937.865 291.634ZM844.556 306.708C847.297 331.248 854.522 396.524 860.751 451.709C866.98 506.895 872.835 560.087 873.956 570.053C874.953 580.019 876.697 595.092 877.694 603.687C879.438 618.262 879.438 619.259 877.445 620.754C874.455 622.996 873.209 622.747 873.209 620.131C873.209 619.01 872.088 609.542 870.717 599.327C868.475 582.261 864.738 553.36 856.391 488.458C854.647 475.378 851.283 449.343 848.916 430.532C846.425 411.722 842.812 383.693 840.819 368.246C838.826 352.799 835.462 326.39 833.344 309.324C831.102 292.382 829.732 277.309 830.105 275.689C830.977 272.326 838.327 260.616 839.075 261.363C839.324 261.737 841.816 282.042 844.556 306.708ZM806.436 360.398C808.304 375.347 811.792 402.628 814.159 421.189C816.526 439.626 819.516 462.672 820.887 472.264L823.254 489.704L820.637 491.946C819.143 493.192 817.648 493.69 817.149 493.192C816.651 492.694 815.654 487.711 814.907 482.23C814.159 476.748 809.55 444.733 804.567 411.224L795.722 350.183L798.587 341.712C800.082 337.103 801.702 333.366 802.075 333.366C802.574 333.366 804.442 345.574 806.436 360.398ZM1490.36 344.079C1492.11 345.823 1492.36 353.547 1492.36 410.725V475.378H1488.87C1481.27 475.378 1481.4 477.247 1480.9 406.49L1480.52 342.086H1484.51C1486.63 342.086 1489.37 342.958 1490.36 344.079ZM1217.67 366.378C1245.82 370.613 1270.36 378.461 1294.65 390.918C1310.35 399.015 1317.83 404.621 1335.27 421.314C1361.18 446.104 1377.12 467.779 1392.07 498.424C1413.87 543.021 1422.35 582.51 1433.06 688.396C1437.92 735.858 1444.27 821.938 1445.64 857.191C1446.02 867.406 1446.89 884.224 1447.63 894.563C1449.01 916.488 1450.62 913.498 1431.32 922.841C1404.53 935.796 1378.74 944.766 1344.73 953.112C1303.13 963.327 1276.22 966.566 1235.11 966.69L1205.21 966.815L1205.46 952.489C1205.46 944.641 1206.2 926.329 1206.95 912.003C1210.69 842.617 1209.94 755.042 1205.08 706.459C1202.34 678.555 1196.99 644.672 1194 637.197C1193.37 635.578 1196.24 634.207 1208.57 629.972C1231.12 622.124 1250.68 612.283 1253.67 607.424C1259.02 598.206 1249.43 585.002 1237.22 585.002C1235.11 585.002 1228.75 587.244 1222.9 589.86C1194.99 602.691 1139.06 617.764 1106.79 621.127C1084.49 623.494 1049.86 622.124 1025.82 617.764C1012.74 615.397 989.315 606.552 969.756 596.462C947.208 584.752 933.38 569.181 929.269 550.744C927.026 540.778 927.649 520.847 930.515 509.635C933.629 497.303 942.349 479.364 950.322 468.9C985.827 422.186 1059.08 381.7 1134.2 367.499C1158.12 363.014 1192 362.516 1217.67 366.378ZM1601.99 370.239C1606.47 372.108 1606.97 372.606 1606.97 376.842C1607.22 410.85 1606.47 488.583 1605.85 491.822C1605.72 492.943 1599.25 493.067 1596.5 492.071C1594.76 491.448 1594.51 484.721 1594.51 429.785C1594.51 390.42 1595.01 368.246 1595.76 368.246C1596.38 368.246 1599.25 369.118 1601.99 370.239ZM1656.43 438.629L1660.91 440.498L1660.04 543.644C1659.04 675.067 1658.92 678.929 1654.18 690.265C1646.46 708.826 1646.83 712.563 1647.58 631.093C1647.83 590.358 1648.45 549.125 1648.7 539.533C1648.95 529.941 1649.2 502.909 1649.33 479.364C1649.33 450.962 1649.7 436.761 1650.57 436.761C1651.32 436.761 1653.93 437.633 1656.43 438.629ZM907.219 469.648C907.966 479.738 907.717 480.735 904.104 488.707L900.118 497.178L898.623 484.721C896.256 464.789 896.256 463.917 900.99 460.928C903.108 459.433 905.35 458.436 905.724 458.685C906.097 458.935 906.845 463.917 907.219 469.648ZM830.23 544.765C831.351 554.98 840.071 622.747 844.556 656.008C851.283 707.456 851.782 714.806 848.792 711.691C848.418 711.318 845.553 694.002 842.563 673.199C823.129 538.91 823.254 539.782 824.873 538.785C828.237 536.543 829.358 537.789 830.23 544.765ZM919.926 601.819C920.673 604.933 924.286 638.692 924.286 642.803C924.286 646.291 919.801 649.53 917.808 647.537C917.185 646.914 915.565 636.325 914.32 624.117C912.949 611.785 911.579 598.954 911.205 595.59L910.458 589.362L914.818 594.344C917.309 597.085 919.552 600.448 919.926 601.819ZM1020.46 648.782C1021.83 650.028 1022.7 655.011 1023.82 668.465C1025.69 692.756 1025.94 690.888 1020.83 690.888C1015.6 690.888 1015.73 691.261 1013.98 669.337C1012.24 647.038 1012.24 647.288 1015.6 647.288C1017.22 647.288 1019.34 648.035 1020.46 648.782ZM1119.12 650.651C1119.37 651.897 1120 659.371 1120.49 667.219C1120.87 675.067 1121.99 692.756 1122.99 706.459C1126.47 756.786 1126.6 763.14 1124.48 763.14C1122.11 763.14 1121.87 761.271 1119.12 725.768C1118.13 711.068 1116.26 687.898 1115.01 674.32C1113.89 660.741 1113.14 649.405 1113.52 649.156C1114.89 647.661 1118.5 648.782 1119.12 650.651ZM884.919 674.569C885.667 675.69 890.401 715.553 896.256 769.991C898 786.435 899.744 802.255 900.118 805.245L900.741 810.602L897.626 808.608C895.259 806.989 894.387 805.369 894.387 802.504C894.387 794.656 889.03 742.959 884.919 711.318C882.552 693.379 880.684 677.559 880.684 676.064C880.684 673.448 883.674 672.451 884.919 674.569ZM1603.85 726.64L1602.98 778.711L1599.87 783.32C1592.77 793.784 1593.14 795.777 1593.51 737.478L1593.76 684.036L1598.37 679.303C1600.86 676.811 1603.36 674.693 1603.85 674.693C1604.23 674.693 1604.23 698.113 1603.85 726.64ZM1488.62 809.231C1489.24 881.608 1489.12 887.213 1487.13 889.456C1485.88 890.826 1484.76 891.698 1484.39 891.324C1483.51 890.328 1482.27 732.495 1483.26 731.623C1483.76 731.125 1485.01 730.875 1486.13 731C1487.75 731.374 1488.12 740.218 1488.62 809.231ZM1081.75 759.652C1082.62 767.375 1085.74 804.373 1086.98 821.813C1087.73 833.523 1087.73 833.896 1084.99 834.768C1083.5 835.267 1081.75 835.142 1081.25 834.519C1080.38 833.647 1077.64 805.992 1074.28 763.389L1073.4 753.174H1077.27C1080.88 753.174 1081.13 753.423 1081.75 759.652ZM983.834 803.252C984.706 804.124 985.329 807.238 985.329 810.352C985.329 813.591 986.823 830.408 988.443 847.849C993.177 895.56 993.551 902.037 991.433 900.792C988.194 898.923 985.329 896.058 985.951 895.311C986.201 894.812 985.702 888.584 984.706 881.483C983.834 874.258 982.712 862.548 982.214 855.323C981.716 848.098 980.595 834.893 979.598 826.048C977.231 804.248 977.356 801.757 980.096 801.757C981.342 801.757 982.962 802.38 983.834 803.252ZM1042.76 887.089C1043.13 889.829 1043.88 900.044 1044.38 909.761C1045.25 928.447 1044.88 929.817 1039.77 925.955C1038.27 924.834 1037.28 920.1 1035.78 905.899C1033.17 880.237 1033.04 881.234 1037.9 881.732C1041.51 882.106 1042.01 882.604 1042.76 887.089Z" fill="#042036"/>
<path d="M998.284 426.048C985.328 431.653 984.332 449.218 996.54 455.447C1005.39 459.931 1014.35 457.813 1018.96 450.09C1027.68 435.889 1013.48 419.445 998.284 426.048Z" fill="#042036"/>
<path d="M1082.75 438.006C1070.79 445.356 1070.79 463.045 1082.75 470.395C1094.58 477.496 1109.91 468.153 1109.91 453.952C1109.91 440.249 1094.21 431.03 1082.75 438.006Z" fill="#042036"/>
</g>
</g>
<path d="M136.919 715.784V737.672C136.983 739.08 137.335 740.136 137.975 740.84C138.679 741.48 139.735 741.896 141.143 742.088L140.855 750.056C135.351 750.056 131.095 748.872 128.087 746.504C122.967 748.872 117.815 750.056 112.631 750.056C103.095 750.056 98.3265 744.968 98.3265 734.792C98.3265 729.928 99.6065 726.408 102.167 724.232C104.791 722.056 108.791 720.744 114.167 720.296L126.551 719.24V715.784C126.551 713.224 125.975 711.432 124.823 710.408C123.735 709.384 122.103 708.872 119.927 708.872C115.831 708.872 110.711 709.128 104.567 709.64L101.495 709.832L101.111 702.44C108.087 700.776 114.487 699.944 120.311 699.944C126.199 699.944 130.423 701.224 132.983 703.784C135.607 706.28 136.919 710.28 136.919 715.784ZM115.415 727.688C110.999 728.072 108.791 730.472 108.791 734.888C108.791 739.304 110.743 741.512 114.647 741.512C117.847 741.512 121.239 741 124.823 739.976L126.551 739.4V726.632L115.415 727.688ZM210.317 681.032V749H199.949V746.504C195.277 748.872 190.989 750.056 187.085 750.056C180.813 750.056 176.205 748.168 173.261 744.392C170.381 740.616 168.941 734.28 168.941 725.384C168.941 716.488 170.541 710.024 173.741 705.992C177.005 701.96 182.061 699.944 188.909 699.944C191.213 699.944 194.861 700.36 199.853 701.192V681.032H210.317ZM198.221 739.016L199.853 738.344V709.928C196.013 709.288 192.461 708.968 189.197 708.968C182.733 708.968 179.501 714.344 179.501 725.096C179.501 730.984 180.237 735.08 181.709 737.384C183.245 739.624 185.645 740.744 188.909 740.744C192.173 740.744 195.277 740.168 198.221 739.016ZM257.168 740.36L259.856 740.072L260.048 747.848C252.752 749.32 246.288 750.056 240.656 750.056C233.552 750.056 228.432 748.104 225.296 744.2C222.224 740.296 220.688 734.056 220.688 725.48C220.688 708.456 227.632 699.944 241.52 699.944C254.96 699.944 261.68 707.272 261.68 721.928L261.008 729.416H231.248C231.312 733.384 232.176 736.296 233.84 738.152C235.504 740.008 238.608 740.936 243.152 740.936C247.696 740.936 252.368 740.744 257.168 740.36ZM251.408 721.352C251.408 716.616 250.64 713.32 249.104 711.464C247.632 709.544 245.104 708.584 241.52 708.584C237.936 708.584 235.312 709.576 233.648 711.56C232.048 713.544 231.216 716.808 231.152 721.352H251.408ZM282.206 749H271.742V701H282.11V703.976C286.782 701.288 291.198 699.944 295.358 699.944C301.758 699.944 306.11 701.768 308.414 705.416C310.782 709 311.966 714.952 311.966 723.272V749H301.598V723.56C301.598 718.376 301.022 714.696 299.87 712.52C298.782 710.344 296.51 709.256 293.054 709.256C289.79 709.256 286.654 709.896 283.646 711.176L282.206 711.752V749ZM326.741 706.184C330.069 702.024 335.573 699.944 343.253 699.944C350.933 699.944 356.405 702.024 359.669 706.184C362.997 710.344 364.661 716.584 364.661 724.904C364.661 733.224 363.061 739.496 359.861 743.72C356.661 747.944 351.125 750.056 343.253 750.056C335.381 750.056 329.845 747.944 326.645 743.72C323.445 739.496 321.845 733.224 321.845 724.904C321.845 716.584 323.477 710.344 326.741 706.184ZM334.613 737.384C336.085 739.944 338.965 741.224 343.253 741.224C347.541 741.224 350.421 739.944 351.893 737.384C353.365 734.824 354.101 730.632 354.101 724.808C354.101 718.984 353.301 714.856 351.701 712.424C350.165 709.992 347.349 708.776 343.253 708.776C339.157 708.776 336.309 709.992 334.709 712.424C333.173 714.856 332.405 718.984 332.405 724.808C332.405 730.632 333.141 734.824 334.613 737.384ZM430.325 740.36L433.013 740.072L433.205 747.848C425.909 749.32 419.445 750.056 413.812 750.056C406.709 750.056 401.589 748.104 398.453 744.2C395.381 740.296 393.845 734.056 393.845 725.48C393.845 708.456 400.789 699.944 414.677 699.944C428.117 699.944 434.837 707.272 434.837 721.928L434.165 729.416H404.405C404.469 733.384 405.333 736.296 406.997 738.152C408.661 740.008 411.765 740.936 416.309 740.936C420.853 740.936 425.525 740.744 430.325 740.36ZM424.565 721.352C424.565 716.616 423.797 713.32 422.261 711.464C420.789 709.544 418.261 708.584 414.677 708.584C411.093 708.584 408.469 709.576 406.805 711.56C405.205 713.544 404.373 716.808 404.309 721.352H424.565ZM462.851 699.944C466.243 699.944 470.243 700.392 474.851 701.288L477.251 701.768L476.867 710.024C471.811 709.512 468.067 709.256 465.635 709.256C460.771 709.256 457.507 710.344 455.843 712.52C454.179 714.696 453.347 718.792 453.347 724.808C453.347 730.824 454.147 734.984 455.747 737.288C457.347 739.592 460.675 740.744 465.731 740.744L476.963 739.976L477.251 748.328C470.787 749.48 465.923 750.056 462.659 750.056C455.363 750.056 450.211 748.104 447.203 744.2C444.259 740.232 442.787 733.768 442.787 724.808C442.787 715.848 444.355 709.48 447.491 705.704C450.627 701.864 455.747 699.944 462.851 699.944ZM489.491 706.184C492.819 702.024 498.323 699.944 506.003 699.944C513.683 699.944 519.155 702.024 522.419 706.184C525.747 710.344 527.411 716.584 527.411 724.904C527.411 733.224 525.811 739.496 522.611 743.72C519.411 747.944 513.875 750.056 506.003 750.056C498.131 750.056 492.595 747.944 489.395 743.72C486.195 739.496 484.595 733.224 484.595 724.904C484.595 716.584 486.227 710.344 489.491 706.184ZM497.363 737.384C498.835 739.944 501.715 741.224 506.003 741.224C510.291 741.224 513.171 739.944 514.643 737.384C516.115 734.824 516.851 730.632 516.851 724.808C516.851 718.984 516.051 714.856 514.451 712.424C512.915 709.992 510.099 708.776 506.003 708.776C501.907 708.776 499.059 709.992 497.459 712.424C495.923 714.856 495.155 718.984 495.155 724.808C495.155 730.632 495.891 734.824 497.363 737.384ZM571.117 710.888C563.565 709.864 558.093 709.352 554.701 709.352C551.309 709.352 548.941 709.768 547.597 710.6C546.317 711.368 545.677 712.616 545.677 714.344C545.677 716.072 546.381 717.288 547.789 717.992C549.261 718.696 552.653 719.528 557.965 720.488C563.341 721.384 567.149 722.824 569.389 724.808C571.629 726.792 572.749 730.312 572.749 735.368C572.749 740.424 571.117 744.136 567.853 746.504C564.653 748.872 559.949 750.056 553.741 750.056C549.837 750.056 544.909 749.512 538.957 748.424L535.981 747.944L536.365 739.208C544.045 740.232 549.581 740.744 552.973 740.744C556.365 740.744 558.765 740.328 560.173 739.496C561.645 738.664 562.381 737.288 562.381 735.368C562.381 733.448 561.677 732.136 560.269 731.432C558.925 730.664 555.629 729.864 550.381 729.032C545.197 728.136 541.389 726.76 538.957 724.904C536.525 723.048 535.309 719.656 535.309 714.728C535.309 709.8 536.973 706.12 540.301 703.688C543.693 701.256 548.013 700.04 553.261 700.04C557.357 700.04 562.381 700.552 568.333 701.576L571.309 702.152L571.117 710.888ZM577.733 701H588.005L598.181 740.072H600.773L610.949 701H621.317L603.077 769.64H592.805L598.565 749H590.309L577.733 701ZM662.054 710.888C654.502 709.864 649.03 709.352 645.638 709.352C642.246 709.352 639.878 709.768 638.534 710.6C637.254 711.368 636.614 712.616 636.614 714.344C636.614 716.072 637.318 717.288 638.726 717.992C640.198 718.696 643.59 719.528 648.902 720.488C654.278 721.384 658.086 722.824 660.326 724.808C662.566 726.792 663.686 730.312 663.686 735.368C663.686 740.424 662.054 744.136 658.79 746.504C655.59 748.872 650.886 750.056 644.678 750.056C640.774 750.056 635.846 749.512 629.894 748.424L626.918 747.944L627.302 739.208C634.982 740.232 640.518 740.744 643.91 740.744C647.302 740.744 649.702 740.328 651.11 739.496C652.582 738.664 653.318 737.288 653.318 735.368C653.318 733.448 652.614 732.136 651.206 731.432C649.862 730.664 646.566 729.864 641.318 729.032C636.134 728.136 632.326 726.76 629.894 724.904C627.462 723.048 626.246 719.656 626.246 714.728C626.246 709.8 627.91 706.12 631.238 703.688C634.63 701.256 638.95 700.04 644.198 700.04C648.294 700.04 653.318 700.552 659.27 701.576L662.246 702.152L662.054 710.888ZM699.566 709.928H686.318V731.048C686.318 734.952 686.606 737.544 687.182 738.824C687.758 740.104 689.23 740.744 691.598 740.744L699.47 740.456L699.95 748.808C695.662 749.64 692.398 750.056 690.158 750.056C684.718 750.056 680.974 748.808 678.926 746.312C676.942 743.816 675.95 739.112 675.95 732.2V709.928H669.806V701H675.95V687.08H686.318V701H699.566V709.928ZM742.325 740.36L745.013 740.072L745.205 747.848C737.909 749.32 731.445 750.056 725.812 750.056C718.709 750.056 713.589 748.104 710.453 744.2C707.381 740.296 705.845 734.056 705.845 725.48C705.845 708.456 712.789 699.944 726.677 699.944C740.117 699.944 746.837 707.272 746.837 721.928L746.165 729.416H716.405C716.469 733.384 717.333 736.296 718.997 738.152C720.661 740.008 723.765 740.936 728.309 740.936C732.853 740.936 737.525 740.744 742.325 740.36ZM736.565 721.352C736.565 716.616 735.797 713.32 734.261 711.464C732.789 709.544 730.261 708.584 726.677 708.584C723.093 708.584 720.469 709.576 718.805 711.56C717.205 713.544 716.373 716.808 716.309 721.352H736.565ZM767.363 749H756.898V701H767.267V703.976C771.811 701.288 775.971 699.944 779.747 699.944C785.315 699.944 789.379 701.512 791.939 704.648C797.763 701.512 803.555 699.944 809.315 699.944C815.075 699.944 819.139 701.736 821.507 705.32C823.875 708.84 825.059 714.824 825.059 723.272V749H814.691V723.56C814.691 718.376 814.147 714.696 813.059 712.52C812.035 710.344 809.859 709.256 806.531 709.256C803.651 709.256 800.547 709.896 797.219 711.176L795.587 711.848C796.099 713.128 796.355 717.224 796.355 724.136V749H785.987V724.328C785.987 718.632 785.475 714.696 784.451 712.52C783.427 710.344 781.187 709.256 777.731 709.256C774.531 709.256 771.555 709.896 768.803 711.176L767.363 711.752V749Z" fill="white"/>
<path d="M136.919 737.672H134.919V737.717L134.921 737.763L136.919 737.672ZM137.975 740.84L136.495 742.185L136.559 742.256L136.629 742.32L137.975 740.84ZM141.143 742.088L143.141 742.16L143.207 740.351L141.413 740.106L141.143 742.088ZM140.855 750.056V752.056H142.784L142.853 750.128L140.855 750.056ZM128.087 746.504L129.324 744.932L128.36 744.174L127.247 744.689L128.087 746.504ZM102.167 724.232L100.89 722.692L100.88 722.7L100.871 722.708L102.167 724.232ZM114.167 720.296L114.333 722.289L114.336 722.289L114.167 720.296ZM126.551 719.24L126.72 721.233L128.551 721.077V719.24H126.551ZM124.823 710.408L123.452 711.864L123.472 711.884L123.494 711.903L124.823 710.408ZM104.567 709.64L104.691 711.636L104.712 711.635L104.733 711.633L104.567 709.64ZM101.495 709.832L99.4972 709.936L99.602 711.954L101.619 711.828L101.495 709.832ZM101.111 702.44L100.646 700.495L99.0268 700.881L99.1132 702.544L101.111 702.44ZM132.983 703.784L131.568 705.198L131.586 705.216L131.604 705.233L132.983 703.784ZM115.415 727.688L115.588 729.68L115.596 729.68L115.603 729.679L115.415 727.688ZM124.823 739.976L125.372 741.899L125.414 741.887L125.455 741.873L124.823 739.976ZM126.551 739.4L127.183 741.297L128.551 740.841V739.4H126.551ZM126.551 726.632H128.551V724.433L126.362 724.641L126.551 726.632ZM134.919 715.784V737.672H138.919V715.784H134.919ZM134.921 737.763C134.996 739.42 135.421 741.004 136.495 742.185L139.454 739.495C139.248 739.268 138.969 738.74 138.916 737.581L134.921 737.763ZM136.629 742.32C137.747 743.336 139.25 743.848 140.872 744.07L141.413 740.106C140.219 739.944 139.61 739.624 139.32 739.36L136.629 742.32ZM139.144 742.016L138.856 749.984L142.853 750.128L143.141 742.16L139.144 742.016ZM140.855 748.056C135.608 748.056 131.854 746.924 129.324 744.932L126.849 748.075C130.335 750.82 135.093 752.056 140.855 752.056V748.056ZM127.247 744.689C122.367 746.946 117.5 748.056 112.631 748.056V752.056C118.129 752.056 123.566 750.798 128.926 748.319L127.247 744.689ZM112.631 748.056C108.205 748.056 105.245 746.882 103.362 744.872C101.456 742.839 100.327 739.603 100.327 734.792H96.3265C96.3265 740.157 97.5809 744.553 100.443 747.608C103.328 750.686 107.52 752.056 112.631 752.056V748.056ZM100.327 734.792C100.327 730.244 101.52 727.406 103.462 725.756L100.871 722.708C97.6927 725.41 96.3265 729.611 96.3265 734.792H100.327ZM103.443 725.771C105.617 723.969 109.145 722.721 114.333 722.289L114 718.303C108.436 718.767 103.964 720.143 100.89 722.692L103.443 725.771ZM114.336 722.289L126.72 721.233L126.381 717.247L113.997 718.303L114.336 722.289ZM128.551 719.24V715.784H124.551V719.24H128.551ZM128.551 715.784C128.551 713.017 127.942 710.505 126.151 708.913L123.494 711.903C124.007 712.359 124.551 713.431 124.551 715.784H128.551ZM126.193 708.952C124.595 707.447 122.382 706.872 119.927 706.872V710.872C121.823 710.872 122.874 711.321 123.452 711.864L126.193 708.952ZM119.927 706.872C115.755 706.872 110.575 707.132 104.4 707.647L104.733 711.633C110.846 711.124 115.906 710.872 119.927 710.872V706.872ZM104.442 707.644L101.37 707.836L101.619 711.828L104.691 711.636L104.442 707.644ZM103.492 709.728L103.108 702.336L99.1132 702.544L99.4972 709.936L103.492 709.728ZM101.575 704.385C108.432 702.75 114.674 701.944 120.311 701.944V697.944C114.299 697.944 107.741 698.802 100.646 700.495L101.575 704.385ZM120.311 701.944C125.986 701.944 129.56 703.19 131.568 705.198L134.397 702.37C131.285 699.258 126.411 697.944 120.311 697.944V701.944ZM131.604 705.233C133.665 707.193 134.919 710.546 134.919 715.784H138.919C138.919 710.014 137.548 705.366 134.361 702.335L131.604 705.233ZM115.241 725.695C112.717 725.915 110.522 726.74 108.975 728.422C107.426 730.105 106.791 732.359 106.791 734.888H110.791C110.791 733.001 111.259 731.847 111.918 731.13C112.579 730.412 113.696 729.845 115.588 729.68L115.241 725.695ZM106.791 734.888C106.791 737.348 107.329 739.566 108.756 741.181C110.225 742.842 112.318 743.512 114.647 743.512V739.512C113.071 739.512 112.236 739.078 111.753 738.531C111.228 737.938 110.791 736.844 110.791 734.888H106.791ZM114.647 743.512C118.06 743.512 121.638 742.966 125.372 741.899L124.273 738.053C120.839 739.034 117.633 739.512 114.647 739.512V743.512ZM125.455 741.873L127.183 741.297L125.918 737.503L124.19 738.079L125.455 741.873ZM128.551 739.4V726.632H124.551V739.4H128.551ZM126.362 724.641L115.226 725.697L115.603 729.679L126.739 728.623L126.362 724.641ZM210.317 681.032H212.317V679.032H210.317V681.032ZM210.317 749V751H212.317V749H210.317ZM199.949 749H197.949V751H199.949V749ZM199.949 746.504H201.949V743.248L199.044 744.72L199.949 746.504ZM173.261 744.392L171.67 745.605L171.677 745.613L171.683 745.622L173.261 744.392ZM173.741 705.992L172.186 704.734L172.18 704.741L172.174 704.749L173.741 705.992ZM199.853 701.192L199.524 703.165L201.853 703.553V701.192H199.853ZM199.853 681.032V679.032H197.853V681.032H199.853ZM198.221 739.016L198.949 740.878L198.966 740.872L198.982 740.865L198.221 739.016ZM199.853 738.344L200.614 740.193L201.853 739.683V738.344H199.853ZM199.853 709.928H201.853V708.234L200.181 707.955L199.853 709.928ZM181.709 737.384L180.023 738.461L180.041 738.488L180.059 738.515L181.709 737.384ZM208.317 681.032V749H212.317V681.032H208.317ZM210.317 747H199.949V751H210.317V747ZM201.949 749V746.504H197.949V749H201.949ZM199.044 744.72C194.561 746.992 190.586 748.056 187.085 748.056V752.056C191.391 752.056 195.992 750.752 200.853 748.288L199.044 744.72ZM187.085 748.056C181.222 748.056 177.291 746.309 174.838 743.162L171.683 745.622C175.118 750.027 180.403 752.056 187.085 752.056V748.056ZM174.851 743.179C172.384 739.945 170.941 734.173 170.941 725.384H166.941C166.941 734.387 168.377 741.286 171.67 745.605L174.851 743.179ZM170.941 725.384C170.941 716.643 172.529 710.736 175.307 707.235L172.174 704.749C168.552 709.312 166.941 716.333 166.941 725.384H170.941ZM175.295 707.25C178.066 703.828 182.457 701.944 188.909 701.944V697.944C181.664 697.944 175.943 700.092 172.186 704.734L175.295 707.25ZM188.909 701.944C191.035 701.944 194.543 702.335 199.524 703.165L200.181 699.219C195.178 698.385 191.39 697.944 188.909 697.944V701.944ZM201.853 701.192V681.032H197.853V701.192H201.853ZM199.853 683.032H210.317V679.032H199.853V683.032ZM198.982 740.865L200.614 740.193L199.091 736.495L197.459 737.167L198.982 740.865ZM201.853 738.344V709.928H197.853V738.344H201.853ZM200.181 707.955C196.253 707.3 192.589 706.968 189.197 706.968V710.968C192.332 710.968 195.772 711.275 199.524 711.901L200.181 707.955ZM189.197 706.968C185.289 706.968 182.201 708.658 180.21 711.969C178.317 715.119 177.501 719.585 177.501 725.096H181.501C181.501 719.855 182.3 716.257 183.639 714.03C184.88 711.966 186.64 710.968 189.197 710.968V706.968ZM177.501 725.096C177.501 731.016 178.216 735.632 180.023 738.461L183.394 736.307C182.257 734.528 181.501 730.951 181.501 725.096H177.501ZM180.059 738.515C182.046 741.413 185.137 742.744 188.909 742.744V738.744C186.152 738.744 184.443 737.835 183.358 736.253L180.059 738.515ZM188.909 742.744C192.414 742.744 195.766 742.124 198.949 740.878L197.492 737.153C194.787 738.212 191.931 738.744 188.909 738.744V742.744ZM257.168 740.36L257.328 742.354L257.355 742.351L257.381 742.349L257.168 740.36ZM259.856 740.072L261.856 740.023L261.802 737.852L259.643 738.083L259.856 740.072ZM260.048 747.848L260.444 749.808L262.089 749.476L262.048 747.799L260.048 747.848ZM225.296 744.2L223.725 745.437L223.731 745.445L223.737 745.452L225.296 744.2ZM261.68 721.928L263.672 722.107L263.68 722.018V721.928H261.68ZM261.008 729.416V731.416H262.837L263 729.595L261.008 729.416ZM231.248 729.416V727.416H229.216L229.249 729.448L231.248 729.416ZM233.84 738.152L232.351 739.487L232.351 739.487L233.84 738.152ZM251.408 721.352V723.352H253.408V721.352H251.408ZM249.104 711.464L247.517 712.681L247.54 712.71L247.563 712.739L249.104 711.464ZM233.648 711.56L232.116 710.275L232.104 710.289L232.091 710.304L233.648 711.56ZM231.152 721.352L229.152 721.324L229.124 723.352H231.152V721.352ZM257.381 742.349L260.069 742.061L259.643 738.083L256.955 738.371L257.381 742.349ZM257.857 740.121L258.049 747.897L262.048 747.799L261.856 740.023L257.857 740.121ZM259.653 745.887C252.448 747.341 246.121 748.056 240.656 748.056V752.056C246.456 752.056 253.056 751.299 260.444 749.808L259.653 745.887ZM240.656 748.056C233.893 748.056 229.472 746.205 226.855 742.947L223.737 745.452C227.393 750.003 233.212 752.056 240.656 752.056V748.056ZM226.868 742.963C224.212 739.588 222.688 733.901 222.688 725.48H218.688C218.688 734.211 220.236 741.004 223.725 745.437L226.868 742.963ZM222.688 725.48C222.688 717.189 224.387 711.341 227.446 707.592C230.441 703.921 235.004 701.944 241.52 701.944V697.944C234.148 697.944 228.296 700.223 224.347 705.064C220.461 709.827 218.688 716.747 218.688 725.48H222.688ZM241.52 701.944C247.885 701.944 252.305 703.671 255.166 706.792C258.058 709.945 259.68 714.867 259.68 721.928H263.68C263.68 714.333 261.943 708.263 258.114 704.088C254.256 699.881 248.595 697.944 241.52 697.944V701.944ZM259.688 721.749L259.016 729.237L263 729.595L263.672 722.107L259.688 721.749ZM261.008 727.416H231.248V731.416H261.008V727.416ZM229.249 729.448C229.316 733.628 230.223 737.113 232.351 739.487L235.329 736.817C234.13 735.479 233.309 733.14 233.248 729.384L229.249 729.448ZM232.351 739.487C234.61 742.006 238.472 742.936 243.152 742.936V738.936C238.745 738.936 236.399 738.01 235.329 736.817L232.351 739.487ZM243.152 742.936C247.753 742.936 252.478 742.742 257.328 742.354L257.009 738.366C252.259 738.746 247.64 738.936 243.152 738.936V742.936ZM253.408 721.352C253.408 716.534 252.654 712.617 250.645 710.189L247.563 712.739C248.626 714.023 249.408 716.698 249.408 721.352H253.408ZM250.691 710.247C248.685 707.63 245.416 706.584 241.52 706.584V710.584C244.793 710.584 246.579 711.458 247.517 712.681L250.691 710.247ZM241.52 706.584C237.583 706.584 234.29 707.682 232.116 710.275L235.181 712.845C236.334 711.47 238.289 710.584 241.52 710.584V706.584ZM232.091 710.304C230.064 712.819 229.218 716.643 229.152 721.324L233.152 721.38C233.214 716.972 234.033 714.269 235.205 712.815L232.091 710.304ZM231.152 723.352H251.408V719.352H231.152V723.352ZM282.206 749V751H284.206V749H282.206ZM271.742 749H269.742V751H271.742V749ZM271.742 701V699H269.742V701H271.742ZM282.11 701H284.11V699H282.11V701ZM282.11 703.976H280.11V707.434L283.108 705.709L282.11 703.976ZM308.414 705.416L306.723 706.484L306.734 706.501L306.746 706.518L308.414 705.416ZM311.966 749V751H313.966V749H311.966ZM301.598 749H299.598V751H301.598V749ZM299.87 712.52L298.081 713.414L298.092 713.435L298.103 713.456L299.87 712.52ZM283.646 711.176L284.389 713.033L284.409 713.025L284.429 713.016L283.646 711.176ZM282.206 711.752L281.463 709.895L280.206 710.398V711.752H282.206ZM282.206 747H271.742V751H282.206V747ZM273.742 749V701H269.742V749H273.742ZM271.742 703H282.11V699H271.742V703ZM280.11 701V703.976H284.11V701H280.11ZM283.108 705.709C287.564 703.146 291.637 701.944 295.358 701.944V697.944C290.759 697.944 286.001 699.43 281.113 702.242L283.108 705.709ZM295.358 701.944C301.428 701.944 304.942 703.664 306.723 706.484L310.105 704.348C307.278 699.872 302.088 697.944 295.358 697.944V701.944ZM306.746 706.518C308.774 709.589 309.966 715.036 309.966 723.272H313.966C313.966 714.868 312.79 708.411 310.083 704.313L306.746 706.518ZM309.966 723.272V749H313.966V723.272H309.966ZM311.966 747H301.598V751H311.966V747ZM303.598 749V723.56H299.598V749H303.598ZM303.598 723.56C303.598 718.335 303.036 714.224 301.638 711.584L298.103 713.456C299.009 715.168 299.598 718.417 299.598 723.56H303.598ZM301.659 711.626C300.096 708.499 296.904 707.256 293.054 707.256V711.256C296.116 711.256 297.469 712.189 298.081 713.414L301.659 711.626ZM293.054 707.256C289.521 707.256 286.118 707.95 282.863 709.336L284.429 713.016C287.19 711.841 290.06 711.256 293.054 711.256V707.256ZM282.903 709.319L281.463 709.895L282.949 713.609L284.389 713.033L282.903 709.319ZM280.206 711.752V749H284.206V711.752H280.206ZM326.741 706.184L325.179 704.935L325.173 704.942L325.167 704.949L326.741 706.184ZM359.669 706.184L358.095 707.419L358.101 707.426L358.107 707.433L359.669 706.184ZM359.861 743.72L358.266 742.512L359.861 743.72ZM326.645 743.72L328.239 742.512L328.239 742.512L326.645 743.72ZM351.701 712.424L350.01 713.492L350.019 713.508L350.03 713.523L351.701 712.424ZM334.709 712.424L333.038 711.325L333.027 711.34L333.018 711.356L334.709 712.424ZM328.302 707.433C331.105 703.93 335.901 701.944 343.253 701.944V697.944C335.244 697.944 329.032 700.118 325.179 704.935L328.302 707.433ZM343.253 701.944C350.608 701.944 355.359 703.931 358.095 707.419L361.242 704.949C357.45 700.117 351.257 697.944 343.253 697.944V701.944ZM358.107 707.433C361.03 711.088 362.661 716.798 362.661 724.904H366.661C366.661 716.37 364.963 709.6 361.23 704.935L358.107 707.433ZM362.661 724.904C362.661 733.02 361.091 738.784 358.266 742.512L361.455 744.928C365.03 740.208 366.661 733.428 366.661 724.904H362.661ZM358.266 742.512C355.601 746.03 350.814 748.056 343.253 748.056V752.056C351.435 752.056 357.72 749.858 361.455 744.928L358.266 742.512ZM343.253 748.056C335.691 748.056 330.904 746.03 328.239 742.512L325.05 744.928C328.785 749.858 335.07 752.056 343.253 752.056V748.056ZM328.239 742.512C325.414 738.784 323.845 733.02 323.845 724.904H319.845C319.845 733.428 321.475 740.208 325.05 744.928L328.239 742.512ZM323.845 724.904C323.845 716.791 325.445 711.075 328.314 707.419L325.167 704.949C321.508 709.613 319.845 716.377 319.845 724.904H323.845ZM332.879 738.381C334.855 741.819 338.605 743.224 343.253 743.224V739.224C339.324 739.224 337.314 738.069 336.346 736.387L332.879 738.381ZM343.253 743.224C347.9 743.224 351.65 741.819 353.626 738.381L350.159 736.387C349.191 738.069 347.181 739.224 343.253 739.224V743.224ZM353.626 738.381C355.373 735.343 356.101 730.702 356.101 724.808H352.101C352.101 730.561 351.356 734.305 350.159 736.387L353.626 738.381ZM356.101 724.808C356.101 718.916 355.313 714.276 353.371 711.325L350.03 713.523C351.288 715.436 352.101 719.052 352.101 724.808H356.101ZM353.391 711.356C351.347 708.118 347.717 706.776 343.253 706.776V710.776C346.98 710.776 348.982 711.866 350.01 713.492L353.391 711.356ZM343.253 706.776C338.782 706.776 335.146 708.12 333.038 711.325L336.379 713.523C337.471 711.864 339.531 710.776 343.253 710.776V706.776ZM333.018 711.356C331.159 714.298 330.405 718.922 330.405 724.808H334.405C334.405 719.045 335.186 715.414 336.399 713.492L333.018 711.356ZM330.405 724.808C330.405 730.702 331.132 735.343 332.879 738.381L336.346 736.387C335.149 734.305 334.405 730.561 334.405 724.808H330.405ZM430.325 740.36L430.484 742.354L430.511 742.351L430.538 742.349L430.325 740.36ZM433.013 740.072L435.012 740.023L434.958 737.852L432.799 738.083L433.013 740.072ZM433.205 747.848L433.6 749.808L435.245 749.476L435.204 747.799L433.205 747.848ZM398.453 744.2L396.881 745.437L396.887 745.445L396.893 745.452L398.453 744.2ZM434.837 721.928L436.828 722.107L436.837 722.018V721.928H434.837ZM434.165 729.416V731.416H435.993L436.156 729.595L434.165 729.416ZM404.405 729.416V727.416H402.372L402.405 729.448L404.405 729.416ZM406.997 738.152L405.507 739.487L405.507 739.487L406.997 738.152ZM424.565 721.352V723.352H426.565V721.352H424.565ZM422.261 711.464L420.673 712.681L420.696 712.71L420.72 712.739L422.261 711.464ZM406.805 711.56L405.272 710.275L405.26 710.289L405.248 710.304L406.805 711.56ZM404.309 721.352L402.309 721.324L402.28 723.352H404.309V721.352ZM430.538 742.349L433.226 742.061L432.799 738.083L430.111 738.371L430.538 742.349ZM431.013 740.121L431.205 747.897L435.204 747.799L435.012 740.023L431.013 740.121ZM432.809 745.887C425.604 747.341 419.277 748.056 413.812 748.056V752.056C419.612 752.056 426.213 751.299 433.6 749.808L432.809 745.887ZM413.812 748.056C407.049 748.056 402.628 746.205 400.012 742.947L396.893 745.452C400.549 750.003 406.368 752.056 413.812 752.056V748.056ZM400.024 742.963C397.369 739.588 395.845 733.901 395.845 725.48H391.845C391.845 734.211 393.392 741.004 396.881 745.437L400.024 742.963ZM395.845 725.48C395.845 717.189 397.544 711.341 400.602 707.592C403.597 703.921 408.161 701.944 414.677 701.944V697.944C407.304 697.944 401.452 700.223 397.503 705.064C393.617 709.827 391.845 716.747 391.845 725.48H395.845ZM414.677 701.944C421.042 701.944 425.461 703.671 428.322 706.792C431.214 709.945 432.837 714.867 432.837 721.928H436.837C436.837 714.333 435.099 708.263 431.271 704.088C427.412 699.881 421.751 697.944 414.677 697.944V701.944ZM432.845 721.749L432.173 729.237L436.156 729.595L436.828 722.107L432.845 721.749ZM434.165 727.416H404.405V731.416H434.165V727.416ZM402.405 729.448C402.472 733.628 403.379 737.113 405.507 739.487L408.486 736.817C407.286 735.479 406.465 733.14 406.404 729.384L402.405 729.448ZM405.507 739.487C407.766 742.006 411.628 742.936 416.309 742.936V738.936C411.901 738.936 409.555 738.01 408.486 736.817L405.507 739.487ZM416.309 742.936C420.909 742.936 425.634 742.742 430.484 742.354L430.165 738.366C425.415 738.746 420.796 738.936 416.309 738.936V742.936ZM426.565 721.352C426.565 716.534 425.81 712.617 423.801 710.189L420.72 712.739C421.783 714.023 422.565 716.698 422.565 721.352H426.565ZM423.848 710.247C421.842 707.63 418.572 706.584 414.677 706.584V710.584C417.949 710.584 419.735 711.458 420.673 712.681L423.848 710.247ZM414.677 706.584C410.739 706.584 407.446 707.682 405.272 710.275L408.337 712.845C409.491 711.47 411.446 710.584 414.677 710.584V706.584ZM405.248 710.304C403.22 712.819 402.375 716.643 402.309 721.324L406.308 721.38C406.37 716.972 407.189 714.269 408.361 712.815L405.248 710.304ZM404.309 723.352H424.565V719.352H404.309V723.352ZM474.851 701.288L475.243 699.327L475.232 699.325L474.851 701.288ZM477.251 701.768L479.248 701.861L479.328 700.144L477.643 699.807L477.251 701.768ZM476.867 710.024L476.665 712.014L478.766 712.227L478.864 710.117L476.867 710.024ZM455.843 712.52L454.254 711.305L454.254 711.305L455.843 712.52ZM455.747 737.288L454.104 738.429L454.104 738.429L455.747 737.288ZM465.731 740.744V742.744H465.799L465.867 742.739L465.731 740.744ZM476.963 739.976L478.961 739.907L478.89 737.839L476.826 737.981L476.963 739.976ZM477.251 748.328L477.601 750.297L479.309 749.993L479.249 748.259L477.251 748.328ZM447.203 744.2L445.596 745.392L445.607 745.406L445.618 745.421L447.203 744.2ZM447.491 705.704L449.029 706.982L449.034 706.975L449.04 706.969L447.491 705.704ZM462.851 701.944C466.076 701.944 469.942 702.371 474.469 703.251L475.232 699.325C470.543 698.413 466.409 697.944 462.851 697.944V701.944ZM474.458 703.249L476.858 703.729L477.643 699.807L475.243 699.327L474.458 703.249ZM475.253 701.675L474.869 709.931L478.864 710.117L479.248 701.861L475.253 701.675ZM477.068 708.034C472.001 707.521 468.173 707.256 465.635 707.256V711.256C467.96 711.256 471.62 711.503 476.665 712.014L477.068 708.034ZM465.635 707.256C460.611 707.256 456.509 708.356 454.254 711.305L457.431 713.735C458.504 712.332 460.93 711.256 465.635 711.256V707.256ZM454.254 711.305C453.166 712.727 452.458 714.623 452.011 716.826C451.559 719.048 451.347 721.719 451.347 724.808H455.347C455.347 721.881 455.55 719.496 455.93 717.622C456.315 715.729 456.855 714.489 457.431 713.735L454.254 711.305ZM451.347 724.808C451.347 730.858 452.123 735.577 454.104 738.429L457.389 736.147C456.17 734.391 455.347 730.79 455.347 724.808H451.347ZM454.104 738.429C456.296 741.585 460.528 742.744 465.731 742.744V738.744C460.821 738.744 458.397 737.599 457.389 736.147L454.104 738.429ZM465.867 742.739L477.099 741.971L476.826 737.981L465.594 738.749L465.867 742.739ZM474.964 740.045L475.252 748.397L479.249 748.259L478.961 739.907L474.964 740.045ZM476.9 746.359C470.46 747.507 465.739 748.056 462.659 748.056V752.056C466.106 752.056 471.113 751.453 477.601 750.297L476.9 746.359ZM462.659 748.056C455.674 748.056 451.261 746.19 448.787 742.979L445.618 745.421C449.16 750.018 455.051 752.056 462.659 752.056V748.056ZM448.809 743.008C446.257 739.569 444.787 733.644 444.787 724.808H440.787C440.787 733.891 442.26 740.895 445.596 745.392L448.809 743.008ZM444.787 724.808C444.787 715.974 446.354 710.203 449.029 706.982L445.952 704.426C442.355 708.757 440.787 715.722 440.787 724.808H444.787ZM449.04 706.969C451.653 703.769 456.077 701.944 462.851 701.944V697.944C455.416 697.944 449.6 699.959 445.941 704.439L449.04 706.969ZM489.491 706.184L487.929 704.935L487.923 704.942L487.917 704.949L489.491 706.184ZM522.419 706.184L520.845 707.419L520.851 707.426L520.857 707.433L522.419 706.184ZM522.611 743.72L521.016 742.512L522.611 743.72ZM489.395 743.72L490.989 742.512L490.989 742.512L489.395 743.72ZM514.451 712.424L512.76 713.492L512.769 713.508L512.78 713.523L514.451 712.424ZM497.459 712.424L495.788 711.325L495.777 711.34L495.768 711.356L497.459 712.424ZM491.052 707.433C493.855 703.93 498.651 701.944 506.003 701.944V697.944C497.994 697.944 491.782 700.118 487.929 704.935L491.052 707.433ZM506.003 701.944C513.358 701.944 518.109 703.931 520.845 707.419L523.992 704.949C520.2 700.117 514.007 697.944 506.003 697.944V701.944ZM520.857 707.433C523.78 711.088 525.411 716.798 525.411 724.904H529.411C529.411 716.37 527.713 709.6 523.98 704.935L520.857 707.433ZM525.411 724.904C525.411 733.02 523.841 738.784 521.016 742.512L524.205 744.928C527.78 740.208 529.411 733.428 529.411 724.904H525.411ZM521.016 742.512C518.351 746.03 513.564 748.056 506.003 748.056V752.056C514.185 752.056 520.47 749.858 524.205 744.928L521.016 742.512ZM506.003 748.056C498.441 748.056 493.654 746.03 490.989 742.512L487.8 744.928C491.535 749.858 497.82 752.056 506.003 752.056V748.056ZM490.989 742.512C488.164 738.784 486.595 733.02 486.595 724.904H482.595C482.595 733.428 484.225 740.208 487.8 744.928L490.989 742.512ZM486.595 724.904C486.595 716.791 488.195 711.075 491.064 707.419L487.917 704.949C484.258 709.613 482.595 716.377 482.595 724.904H486.595ZM495.629 738.381C497.605 741.819 501.355 743.224 506.003 743.224V739.224C502.074 739.224 500.064 738.069 499.096 736.387L495.629 738.381ZM506.003 743.224C510.65 743.224 514.4 741.819 516.376 738.381L512.909 736.387C511.941 738.069 509.931 739.224 506.003 739.224V743.224ZM516.376 738.381C518.123 735.343 518.851 730.702 518.851 724.808H514.851C514.851 730.561 514.106 734.305 512.909 736.387L516.376 738.381ZM518.851 724.808C518.851 718.916 518.063 714.276 516.121 711.325L512.78 713.523C514.038 715.436 514.851 719.052 514.851 724.808H518.851ZM516.141 711.356C514.097 708.118 510.467 706.776 506.003 706.776V710.776C509.73 710.776 511.732 711.866 512.76 713.492L516.141 711.356ZM506.003 706.776C501.532 706.776 497.896 708.12 495.788 711.325L499.129 713.523C500.221 711.864 502.281 710.776 506.003 710.776V706.776ZM495.768 711.356C493.909 714.298 493.155 718.922 493.155 724.808H497.155C497.155 719.045 497.936 715.414 499.149 713.492L495.768 711.356ZM493.155 724.808C493.155 730.702 493.882 735.343 495.629 738.381L499.096 736.387C497.899 734.305 497.155 730.561 497.155 724.808H493.155ZM571.117 710.888L570.848 712.87L573.067 713.171L573.116 710.932L571.117 710.888ZM547.597 710.6L548.626 712.315L548.638 712.308L548.649 712.3L547.597 710.6ZM547.789 717.992L546.894 719.781L546.91 719.789L546.926 719.796L547.789 717.992ZM557.965 720.488L557.609 722.456L557.622 722.458L557.636 722.461L557.965 720.488ZM569.389 724.808L568.063 726.305L568.063 726.305L569.389 724.808ZM567.853 746.504L566.678 744.885L566.671 744.891L566.663 744.896L567.853 746.504ZM538.957 748.424L539.316 746.457L539.296 746.453L539.275 746.449L538.957 748.424ZM535.981 747.944L533.983 747.856L533.904 749.635L535.662 749.918L535.981 747.944ZM536.365 739.208L536.629 737.225L534.463 736.937L534.367 739.12L536.365 739.208ZM560.173 739.496L559.189 737.755L559.172 737.764L559.155 737.774L560.173 739.496ZM560.269 731.432L559.276 733.168L559.325 733.196L559.374 733.221L560.269 731.432ZM550.381 729.032L550.04 731.003L550.054 731.005L550.068 731.007L550.381 729.032ZM538.957 724.904L540.17 723.314L540.17 723.314L538.957 724.904ZM540.301 703.688L539.135 702.063L539.128 702.068L539.121 702.073L540.301 703.688ZM568.333 701.576L568.713 699.612L568.692 699.608L568.672 699.605L568.333 701.576ZM571.309 702.152L573.308 702.196L573.345 700.509L571.689 700.188L571.309 702.152ZM571.385 708.906C563.826 707.881 558.239 707.352 554.701 707.352V711.352C557.947 711.352 563.303 711.847 570.848 712.87L571.385 708.906ZM554.701 707.352C551.274 707.352 548.403 707.749 546.544 708.899L548.649 712.3C549.478 711.787 551.343 711.352 554.701 711.352V707.352ZM546.568 708.885C544.581 710.077 543.677 712.045 543.677 714.344H547.677C547.677 713.187 548.053 712.659 548.626 712.315L546.568 708.885ZM543.677 714.344C543.677 715.479 543.909 716.579 544.474 717.554C545.045 718.54 545.884 719.276 546.894 719.781L548.683 716.203C548.285 716.004 548.069 715.78 547.936 715.55C547.796 715.309 547.677 714.936 547.677 714.344H543.677ZM546.926 719.796C547.86 720.243 549.246 720.666 550.96 721.086C552.712 721.516 554.932 721.972 557.609 722.456L558.32 718.52C555.686 718.044 553.554 717.604 551.913 717.202C550.235 716.79 549.19 716.445 548.652 716.188L546.926 719.796ZM557.636 722.461C562.903 723.339 566.252 724.701 568.063 726.305L570.715 723.311C568.046 720.947 563.779 719.429 558.294 718.515L557.636 722.461ZM568.063 726.305C569.655 727.716 570.749 730.506 570.749 735.368H574.749C574.749 730.118 573.602 725.868 570.715 723.311L568.063 726.305ZM570.749 735.368C570.749 739.965 569.293 742.988 566.678 744.885L569.027 748.123C572.941 745.283 574.749 740.883 574.749 735.368H570.749ZM566.663 744.896C563.952 746.902 559.744 748.056 553.741 748.056V752.056C560.153 752.056 565.354 750.841 569.042 748.112L566.663 744.896ZM553.741 748.056C550.004 748.056 545.207 747.533 539.316 746.457L538.597 750.391C544.611 751.491 549.669 752.056 553.741 752.056V748.056ZM539.275 746.449L536.299 745.969L535.662 749.918L538.638 750.398L539.275 746.449ZM537.979 748.032L538.363 739.296L534.367 739.12L533.983 747.856L537.979 748.032ZM536.1 741.19C543.786 742.215 549.437 742.744 552.973 742.744V738.744C549.725 738.744 544.304 738.249 536.629 737.225L536.1 741.19ZM552.973 742.744C556.414 742.744 559.287 742.342 561.19 741.218L559.155 737.774C558.242 738.314 556.315 738.744 552.973 738.744V742.744ZM561.157 741.237C563.353 739.996 564.381 737.891 564.381 735.368H560.381C560.381 736.685 559.937 737.332 559.189 737.755L561.157 741.237ZM564.381 735.368C564.381 734.171 564.162 733.017 563.615 731.998C563.056 730.957 562.214 730.169 561.163 729.643L559.374 733.221C559.731 733.399 559.945 733.619 560.09 733.89C560.248 734.183 560.381 734.645 560.381 735.368H564.381ZM561.261 729.695C560.326 729.161 558.927 728.717 557.26 728.312C555.539 727.895 553.345 727.477 550.694 727.057L550.068 731.007C552.664 731.419 554.742 731.817 556.317 732.2C557.946 732.595 558.868 732.935 559.276 733.168L561.261 729.695ZM550.721 727.061C545.656 726.186 542.224 724.881 540.17 723.314L537.743 726.494C540.554 728.639 544.737 730.086 550.04 731.003L550.721 727.061ZM540.17 723.314C538.474 722.02 537.309 719.414 537.309 714.728H533.309C533.309 719.898 534.575 724.076 537.743 726.494L540.17 723.314ZM537.309 714.728C537.309 710.297 538.772 707.282 541.481 705.303L539.121 702.073C535.173 704.958 533.309 709.303 533.309 714.728H537.309ZM541.466 705.313C544.44 703.181 548.322 702.04 553.261 702.04V698.04C547.703 698.04 542.946 699.331 539.135 702.063L541.466 705.313ZM553.261 702.04C557.203 702.04 562.106 702.534 567.994 703.547L568.672 699.605C562.655 698.57 557.51 698.04 553.261 698.04V702.04ZM567.953 703.539L570.929 704.115L571.689 700.188L568.713 699.612L567.953 703.539ZM569.309 702.108L569.117 710.844L573.116 710.932L573.308 702.196L569.309 702.108ZM577.733 701V699H575.141L575.798 701.507L577.733 701ZM588.005 701L589.94 700.496L589.55 699H588.005V701ZM598.181 740.072L596.245 740.576L596.635 742.072H598.181V740.072ZM600.773 740.072V742.072H602.318L602.708 740.576L600.773 740.072ZM610.949 701V699H609.403L609.013 700.496L610.949 701ZM621.317 701L623.249 701.514L623.917 699H621.317V701ZM603.077 769.64V771.64H604.614L605.009 770.154L603.077 769.64ZM592.805 769.64L590.878 769.102L590.17 771.64H592.805V769.64ZM598.565 749L600.491 749.538L601.199 747H598.565V749ZM590.309 749L588.374 749.507L588.765 751H590.309V749ZM577.733 703H588.005V699H577.733V703ZM586.069 701.504L596.245 740.576L600.116 739.568L589.94 700.496L586.069 701.504ZM598.181 742.072H600.773V738.072H598.181V742.072ZM602.708 740.576L612.884 701.504L609.013 700.496L598.837 739.568L602.708 740.576ZM610.949 703H621.317V699H610.949V703ZM619.384 700.486L601.144 769.126L605.009 770.154L623.249 701.514L619.384 700.486ZM603.077 767.64H592.805V771.64H603.077V767.64ZM594.731 770.178L600.491 749.538L596.638 748.462L590.878 769.102L594.731 770.178ZM598.565 747H590.309V751H598.565V747ZM592.243 748.493L579.667 700.493L575.798 701.507L588.374 749.507L592.243 748.493ZM662.054 710.888L661.786 712.87L664.005 713.171L664.054 710.932L662.054 710.888ZM638.534 710.6L639.563 712.315L639.575 712.308L639.587 712.3L638.534 710.6ZM638.726 717.992L637.832 719.781L637.848 719.789L637.863 719.796L638.726 717.992ZM648.902 720.488L648.547 722.456L648.56 722.458L648.573 722.461L648.902 720.488ZM660.326 724.808L659 726.305L659 726.305L660.326 724.808ZM658.79 746.504L657.616 744.885L657.608 744.891L657.601 744.896L658.79 746.504ZM629.894 748.424L630.254 746.457L630.233 746.453L630.213 746.449L629.894 748.424ZM626.918 747.944L624.92 747.856L624.842 749.635L626.6 749.918L626.918 747.944ZM627.302 739.208L627.567 737.225L625.4 736.937L625.304 739.12L627.302 739.208ZM651.11 739.496L650.126 737.755L650.109 737.764L650.093 737.774L651.11 739.496ZM651.206 731.432L650.214 733.168L650.262 733.196L650.312 733.221L651.206 731.432ZM641.318 729.032L640.978 731.003L640.991 731.005L641.005 731.007L641.318 729.032ZM629.894 724.904L631.108 723.314L631.108 723.314L629.894 724.904ZM631.238 703.688L630.073 702.063L630.066 702.068L630.058 702.073L631.238 703.688ZM659.27 701.576L659.65 699.612L659.63 699.608L659.609 699.605L659.27 701.576ZM662.246 702.152L664.246 702.196L664.283 700.509L662.626 700.188L662.246 702.152ZM662.323 708.906C654.764 707.881 649.176 707.352 645.638 707.352V711.352C648.884 711.352 654.241 711.847 661.786 712.87L662.323 708.906ZM645.638 707.352C642.212 707.352 639.341 707.749 637.482 708.899L639.587 712.3C640.416 711.787 642.281 711.352 645.638 711.352V707.352ZM637.505 708.885C635.518 710.077 634.614 712.045 634.614 714.344H638.614C638.614 713.187 638.99 712.659 639.563 712.315L637.505 708.885ZM634.614 714.344C634.614 715.479 634.847 716.579 635.411 717.554C635.982 718.54 636.822 719.276 637.832 719.781L639.621 716.203C639.223 716.004 639.006 715.78 638.873 715.55C638.734 715.309 638.614 714.936 638.614 714.344H634.614ZM637.863 719.796C638.797 720.243 640.184 720.666 641.898 721.086C643.649 721.516 645.869 721.972 648.547 722.456L649.258 718.52C646.623 718.044 644.491 717.604 642.851 717.202C641.173 716.79 640.127 716.445 639.589 716.188L637.863 719.796ZM648.573 722.461C653.84 723.339 657.189 724.701 659 726.305L661.652 723.311C658.983 720.947 654.716 719.429 649.231 718.515L648.573 722.461ZM659 726.305C660.593 727.716 661.686 730.506 661.686 735.368H665.686C665.686 730.118 664.54 725.868 661.652 723.311L659 726.305ZM661.686 735.368C661.686 739.965 660.23 742.988 657.616 744.885L659.965 748.123C663.878 745.283 665.686 740.883 665.686 735.368H661.686ZM657.601 744.896C654.889 746.902 650.682 748.056 644.678 748.056V752.056C651.091 752.056 656.291 750.841 659.98 748.112L657.601 744.896ZM644.678 748.056C640.942 748.056 636.144 747.533 630.254 746.457L629.535 750.391C635.548 751.491 640.607 752.056 644.678 752.056V748.056ZM630.213 746.449L627.237 745.969L626.6 749.918L629.576 750.398L630.213 746.449ZM628.916 748.032L629.3 739.296L625.304 739.12L624.92 747.856L628.916 748.032ZM627.038 741.19C634.723 742.215 640.374 742.744 643.91 742.744V738.744C640.662 738.744 635.241 738.249 627.567 737.225L627.038 741.19ZM643.91 742.744C647.352 742.744 650.225 742.342 652.128 741.218L650.093 737.774C649.18 738.314 647.253 738.744 643.91 738.744V742.744ZM652.094 741.237C654.29 739.996 655.318 737.891 655.318 735.368H651.318C651.318 736.685 650.874 737.332 650.126 737.755L652.094 741.237ZM655.318 735.368C655.318 734.171 655.099 733.017 654.553 731.998C653.994 730.957 653.152 730.169 652.101 729.643L650.312 733.221C650.669 733.399 650.883 733.619 651.028 733.89C651.185 734.183 651.318 734.645 651.318 735.368H655.318ZM652.199 729.695C651.263 729.161 649.865 728.717 648.198 728.312C646.477 727.895 644.283 727.477 641.631 727.057L641.005 731.007C643.602 731.419 645.68 731.817 647.255 732.2C648.884 732.595 649.805 732.935 650.214 733.168L652.199 729.695ZM641.659 727.061C636.594 726.186 633.161 724.881 631.108 723.314L628.681 726.494C631.491 728.639 635.675 730.086 640.978 731.003L641.659 727.061ZM631.108 723.314C629.412 722.02 628.246 719.414 628.246 714.728H624.246C624.246 719.898 625.513 724.076 628.681 726.494L631.108 723.314ZM628.246 714.728C628.246 710.297 629.71 707.282 632.418 705.303L630.058 702.073C626.111 704.958 624.246 709.303 624.246 714.728H628.246ZM632.404 705.313C635.377 703.181 639.26 702.04 644.198 702.04V698.04C638.641 698.04 633.883 699.331 630.073 702.063L632.404 705.313ZM644.198 702.04C648.141 702.04 653.044 702.534 658.931 703.547L659.609 699.605C653.593 698.57 648.448 698.04 644.198 698.04V702.04ZM658.89 703.539L661.866 704.115L662.626 700.188L659.65 699.612L658.89 703.539ZM660.247 702.108L660.055 710.844L664.054 710.932L664.246 702.196L660.247 702.108ZM699.566 709.928V711.928H701.566V709.928H699.566ZM686.318 709.928V707.928H684.318V709.928H686.318ZM687.182 738.824L689.006 738.003L689.006 738.003L687.182 738.824ZM691.598 740.744V742.744H691.635L691.671 742.743L691.598 740.744ZM699.47 740.456L701.467 740.341L701.355 738.386L699.397 738.457L699.47 740.456ZM699.95 748.808L700.331 750.771L702.047 750.438L701.947 748.693L699.95 748.808ZM678.926 746.312L677.361 747.556L677.37 747.569L677.38 747.581L678.926 746.312ZM675.95 709.928H677.95V707.928H675.95V709.928ZM669.806 709.928H667.806V711.928H669.806V709.928ZM669.806 701V699H667.806V701H669.806ZM675.95 701V703H677.95V701H675.95ZM675.95 687.08V685.08H673.95V687.08H675.95ZM686.318 687.08H688.318V685.08H686.318V687.08ZM686.318 701H684.318V703H686.318V701ZM699.566 701H701.566V699H699.566V701ZM699.566 707.928H686.318V711.928H699.566V707.928ZM684.318 709.928V731.048H688.318V709.928H684.318ZM684.318 731.048C684.318 733.041 684.391 734.745 684.546 736.141C684.697 737.498 684.94 738.716 685.358 739.645L689.006 738.003C688.848 737.652 688.659 736.933 688.522 735.699C688.389 734.503 688.318 732.959 688.318 731.048H684.318ZM685.358 739.645C686.443 742.055 689.027 742.744 691.598 742.744V738.744C689.434 738.744 689.074 738.153 689.006 738.003L685.358 739.645ZM691.671 742.743L699.543 742.455L699.397 738.457L691.525 738.745L691.671 742.743ZM697.474 740.571L697.954 748.923L701.947 748.693L701.467 740.341L697.474 740.571ZM699.569 746.845C695.312 747.671 692.201 748.056 690.158 748.056V752.056C692.596 752.056 696.012 751.609 700.331 750.771L699.569 746.845ZM690.158 748.056C684.919 748.056 681.945 746.838 680.472 745.043L677.38 747.581C680.004 750.778 684.518 752.056 690.158 752.056V748.056ZM680.492 745.067C679.766 744.155 679.113 742.688 678.651 740.499C678.193 738.328 677.95 735.572 677.95 732.2H673.95C673.95 735.74 674.203 738.792 674.737 741.325C675.268 743.84 676.102 745.973 677.361 747.556L680.492 745.067ZM677.95 732.2V709.928H673.95V732.2H677.95ZM675.95 707.928H669.806V711.928H675.95V707.928ZM671.806 709.928V701H667.806V709.928H671.806ZM669.806 703H675.95V699H669.806V703ZM677.95 701V687.08H673.95V701H677.95ZM675.95 689.08H686.318V685.08H675.95V689.08ZM684.318 687.08V701H688.318V687.08H684.318ZM686.318 703H699.566V699H686.318V703ZM697.566 701V709.928H701.566V701H697.566ZM742.325 740.36L742.484 742.354L742.511 742.351L742.538 742.349L742.325 740.36ZM745.013 740.072L747.012 740.023L746.958 737.852L744.799 738.083L745.013 740.072ZM745.205 747.848L745.6 749.808L747.245 749.476L747.204 747.799L745.205 747.848ZM710.453 744.2L708.881 745.437L708.887 745.445L708.893 745.452L710.453 744.2ZM746.837 721.928L748.828 722.107L748.837 722.018V721.928H746.837ZM746.165 729.416V731.416H747.993L748.156 729.595L746.165 729.416ZM716.405 729.416V727.416H714.372L714.405 729.448L716.405 729.416ZM718.997 738.152L717.507 739.487L717.507 739.487L718.997 738.152ZM736.565 721.352V723.352H738.565V721.352H736.565ZM734.261 711.464L732.673 712.681L732.696 712.71L732.72 712.739L734.261 711.464ZM718.805 711.56L717.272 710.275L717.26 710.289L717.248 710.304L718.805 711.56ZM716.309 721.352L714.309 721.324L714.28 723.352H716.309V721.352ZM742.538 742.349L745.226 742.061L744.799 738.083L742.111 738.371L742.538 742.349ZM743.013 740.121L743.205 747.897L747.204 747.799L747.012 740.023L743.013 740.121ZM744.809 745.887C737.604 747.341 731.277 748.056 725.812 748.056V752.056C731.612 752.056 738.213 751.299 745.6 749.808L744.809 745.887ZM725.812 748.056C719.049 748.056 714.628 746.205 712.012 742.947L708.893 745.452C712.549 750.003 718.368 752.056 725.812 752.056V748.056ZM712.024 742.963C709.369 739.588 707.845 733.901 707.845 725.48H703.845C703.845 734.211 705.392 741.004 708.881 745.437L712.024 742.963ZM707.845 725.48C707.845 717.189 709.544 711.341 712.602 707.592C715.597 703.921 720.161 701.944 726.677 701.944V697.944C719.304 697.944 713.452 700.223 709.503 705.064C705.617 709.827 703.845 716.747 703.845 725.48H707.845ZM726.677 701.944C733.042 701.944 737.461 703.671 740.322 706.792C743.214 709.945 744.837 714.867 744.837 721.928H748.837C748.837 714.333 747.099 708.263 743.271 704.088C739.412 699.881 733.751 697.944 726.677 697.944V701.944ZM744.845 721.749L744.173 729.237L748.156 729.595L748.828 722.107L744.845 721.749ZM746.165 727.416H716.405V731.416H746.165V727.416ZM714.405 729.448C714.472 733.628 715.379 737.113 717.507 739.487L720.486 736.817C719.286 735.479 718.465 733.14 718.404 729.384L714.405 729.448ZM717.507 739.487C719.766 742.006 723.628 742.936 728.309 742.936V738.936C723.901 738.936 721.555 738.01 720.486 736.817L717.507 739.487ZM728.309 742.936C732.909 742.936 737.634 742.742 742.484 742.354L742.165 738.366C737.415 738.746 732.796 738.936 728.309 738.936V742.936ZM738.565 721.352C738.565 716.534 737.81 712.617 735.801 710.189L732.72 712.739C733.783 714.023 734.565 716.698 734.565 721.352H738.565ZM735.848 710.247C733.842 707.63 730.572 706.584 726.677 706.584V710.584C729.949 710.584 731.735 711.458 732.673 712.681L735.848 710.247ZM726.677 706.584C722.739 706.584 719.446 707.682 717.272 710.275L720.337 712.845C721.491 711.47 723.446 710.584 726.677 710.584V706.584ZM717.248 710.304C715.22 712.819 714.375 716.643 714.309 721.324L718.308 721.38C718.37 716.972 719.189 714.269 720.361 712.815L717.248 710.304ZM716.309 723.352H736.565V719.352H716.309V723.352ZM767.363 749V751H769.363V749H767.363ZM756.898 749H754.898V751H756.898V749ZM756.898 701V699H754.898V701H756.898ZM767.267 701H769.267V699H767.267V701ZM767.267 703.976H765.267V707.483L768.285 705.697L767.267 703.976ZM791.939 704.648L790.389 705.913L791.433 707.192L792.887 706.409L791.939 704.648ZM821.507 705.32L819.838 706.422L819.842 706.429L819.847 706.436L821.507 705.32ZM825.059 749V751H827.059V749H825.059ZM814.691 749H812.691V751H814.691V749ZM813.059 712.52L811.249 713.372L811.259 713.393L811.27 713.414L813.059 712.52ZM797.219 711.176L796.501 709.309L796.479 709.318L796.457 709.327L797.219 711.176ZM795.587 711.848L794.825 709.999L792.994 710.752L793.73 712.591L795.587 711.848ZM796.355 749V751H798.355V749H796.355ZM785.987 749H783.987V751H785.987V749ZM768.803 711.176L769.545 713.033L769.596 713.013L769.646 712.989L768.803 711.176ZM767.363 711.752L766.62 709.895L765.363 710.398V711.752H767.363ZM767.363 747H756.898V751H767.363V747ZM758.898 749V701H754.898V749H758.898ZM756.898 703H767.267V699H756.898V703ZM765.267 701V703.976H769.267V701H765.267ZM768.285 705.697C772.637 703.123 776.444 701.944 779.747 701.944V697.944C775.497 697.944 770.984 699.453 766.248 702.255L768.285 705.697ZM779.747 701.944C784.952 701.944 788.338 703.4 790.389 705.913L793.488 703.383C790.419 699.624 785.677 697.944 779.747 697.944V701.944ZM792.887 706.409C798.463 703.406 803.932 701.944 809.315 701.944V697.944C803.177 697.944 797.062 699.618 790.99 702.887L792.887 706.409ZM809.315 701.944C814.656 701.944 817.961 703.582 819.838 706.422L823.175 704.217C820.316 699.89 815.493 697.944 809.315 697.944V701.944ZM819.847 706.436C821.862 709.432 823.059 714.895 823.059 723.272H827.059C827.059 714.753 825.887 708.248 823.166 704.204L819.847 706.436ZM823.059 723.272V749H827.059V723.272H823.059ZM825.059 747H814.691V751H825.059V747ZM816.691 749V723.56H812.691V749H816.691ZM816.691 723.56C816.691 718.34 816.16 714.25 814.847 711.626L811.27 713.414C812.133 715.142 812.691 718.412 812.691 723.56H816.691ZM814.868 711.668C813.389 708.524 810.286 707.256 806.531 707.256V711.256C809.431 711.256 810.68 712.164 811.249 713.372L814.868 711.668ZM806.531 707.256C803.354 707.256 800.005 707.961 796.501 709.309L797.936 713.043C801.088 711.83 803.947 711.256 806.531 711.256V707.256ZM796.457 709.327L794.825 709.999L796.348 713.697L797.98 713.025L796.457 709.327ZM793.73 712.591C793.766 712.681 793.852 712.983 793.943 713.619C794.028 714.219 794.104 715.01 794.166 716.005C794.291 717.993 794.355 720.698 794.355 724.136H798.355C798.355 720.662 798.29 717.863 798.159 715.755C798.093 714.702 798.009 713.797 797.902 713.053C797.801 712.344 797.663 711.655 797.443 711.105L793.73 712.591ZM794.355 724.136V749H798.355V724.136H794.355ZM796.355 747H785.987V751H796.355V747ZM787.987 749V724.328H783.987V749H787.987ZM787.987 724.328C787.987 718.635 787.493 714.289 786.26 711.668L782.641 713.372C783.456 715.103 783.987 718.629 783.987 724.328H787.987ZM786.26 711.668C784.768 708.497 781.572 707.256 777.731 707.256V711.256C780.801 711.256 782.085 712.191 782.641 713.372L786.26 711.668ZM777.731 707.256C774.255 707.256 770.99 707.953 767.959 709.362L769.646 712.989C772.119 711.839 774.806 711.256 777.731 711.256V707.256ZM768.06 709.319L766.62 709.895L768.105 713.609L769.545 713.033L768.06 709.319ZM765.363 711.752V749H769.363V711.752H765.363Z" fill="#C0C0C0"/>
<path d="M156.616 377.856C177.096 377.856 198.771 381.952 221.64 390.144L232.904 393.728L215.496 443.904C189.213 439.467 168.563 437.248 153.544 437.248C134.088 437.248 119.069 448 108.488 469.504C97.9067 490.667 92.616 515.584 92.616 544.256C92.616 572.587 105.587 586.752 131.528 586.752L186.312 582.656L180.68 633.344C155.763 641.877 130.845 646.144 105.928 646.144C81.0107 646.144 60.872 638.293 45.512 622.592C30.4933 606.891 22.984 585.045 22.984 557.056C22.984 504.832 34.4187 461.995 57.288 428.544C80.4987 394.752 113.608 377.856 156.616 377.856ZM358.496 378.368C425.739 378.368 459.36 410.624 459.36 475.136C459.36 502.784 454.752 529.237 445.536 554.496C436.32 579.755 421.472 601.429 400.992 619.52C380.853 637.269 357.131 646.144 329.824 646.144C262.581 646.144 228.96 613.888 228.96 549.376C228.96 522.069 233.909 495.616 243.808 470.016C253.707 444.416 268.725 422.741 288.864 404.992C309.344 387.243 332.555 378.368 358.496 378.368ZM329.824 587.776C348.256 587.776 363.104 576.171 374.368 552.96C385.632 529.408 391.264 503.125 391.264 474.112C391.264 449.195 380.341 436.736 358.496 436.736C340.064 436.736 325.216 448.512 313.952 472.064C302.688 495.275 297.056 521.387 297.056 550.4C297.056 575.317 307.979 587.776 329.824 587.776ZM612.496 378.368C679.739 378.368 713.36 410.624 713.36 475.136C713.36 502.784 708.752 529.237 699.536 554.496C690.32 579.755 675.472 601.429 654.992 619.52C634.853 637.269 611.131 646.144 583.824 646.144C516.581 646.144 482.96 613.888 482.96 549.376C482.96 522.069 487.909 495.616 497.808 470.016C507.707 444.416 522.725 422.741 542.864 404.992C563.344 387.243 586.555 378.368 612.496 378.368ZM583.824 587.776C602.256 587.776 617.104 576.171 628.368 552.96C639.632 529.408 645.264 503.125 645.264 474.112C645.264 449.195 634.341 436.736 612.496 436.736C594.064 436.736 579.216 448.512 567.952 472.064C556.688 495.275 551.056 521.387 551.056 550.4C551.056 575.317 561.979 587.776 583.824 587.776ZM724.16 640L806.592 281.6H875.2L792.768 640H724.16Z" fill="white"/>
<path d="M221.64 390.144L219.617 395.792L219.718 395.829L219.821 395.861L221.64 390.144ZM232.904 393.728L238.573 395.695L240.591 389.877L234.723 388.01L232.904 393.728ZM215.496 443.904L214.497 449.82L219.501 450.665L221.165 445.871L215.496 443.904ZM108.488 469.504L113.855 472.187L113.863 472.17L113.872 472.153L108.488 469.504ZM131.528 586.752V592.752H131.752L131.975 592.735L131.528 586.752ZM186.312 582.656L192.275 583.319L193.074 576.134L185.865 576.673L186.312 582.656ZM180.68 633.344L182.624 639.02L186.223 637.788L186.643 634.007L180.68 633.344ZM45.512 622.592L41.1761 626.739L41.1994 626.764L41.223 626.788L45.512 622.592ZM57.288 428.544L52.3423 425.147L52.3349 425.158L57.288 428.544ZM156.616 383.856C176.291 383.856 197.279 387.791 219.617 395.792L223.663 384.495C200.263 376.113 177.901 371.856 156.616 371.856V383.856ZM219.821 395.861L231.085 399.445L234.723 388.01L223.459 384.426L219.821 395.861ZM227.235 391.761L209.827 441.937L221.165 445.871L238.573 395.695L227.235 391.761ZM216.495 437.988C190.093 433.53 169.059 431.248 153.544 431.248V443.248C168.066 443.248 188.333 445.403 214.497 449.82L216.495 437.988ZM153.544 431.248C142.634 431.248 132.78 434.288 124.195 440.433C115.678 446.531 108.706 455.471 103.104 466.855L113.872 472.153C118.851 462.033 124.68 454.845 131.181 450.191C137.615 445.584 144.998 443.248 153.544 443.248V431.248ZM103.121 466.821C92.0444 488.975 86.616 514.847 86.616 544.256H98.616C98.616 516.321 103.769 492.359 113.855 472.187L103.121 466.821ZM86.616 544.256C86.616 559.222 90.0307 571.565 97.9189 580.18C105.899 588.895 117.49 592.752 131.528 592.752V580.752C119.625 580.752 111.76 577.526 106.769 572.076C101.687 566.525 98.616 557.621 98.616 544.256H86.616ZM131.975 592.735L186.759 588.639L185.865 576.673L131.081 580.769L131.975 592.735ZM180.349 581.993L174.717 632.681L186.643 634.007L192.275 583.319L180.349 581.993ZM178.736 627.668C154.409 635.999 130.147 640.144 105.928 640.144V652.144C131.544 652.144 157.117 647.756 182.624 639.02L178.736 627.668ZM105.928 640.144C82.3878 640.144 63.8766 632.785 49.801 618.396L41.223 626.788C57.8674 643.802 79.6336 652.144 105.928 652.144V640.144ZM49.8479 618.445C36.179 604.154 28.984 583.963 28.984 557.056H16.984C16.984 586.128 24.8076 609.627 41.1761 626.739L49.8479 618.445ZM28.984 557.056C28.984 505.693 40.2264 464.131 62.2411 431.93L52.3349 425.158C28.611 459.858 16.984 503.97 16.984 557.056H28.984ZM62.2337 431.941C84.2615 399.871 115.469 383.856 156.616 383.856V371.856C111.747 371.856 76.7359 389.633 52.3423 425.147L62.2337 431.941ZM445.536 554.496L439.899 552.439L439.899 552.439L445.536 554.496ZM400.992 619.52L404.959 624.021L404.964 624.017L400.992 619.52ZM243.808 470.016L238.212 467.852L238.212 467.852L243.808 470.016ZM288.864 404.992L284.934 400.458L284.916 400.474L284.897 400.491L288.864 404.992ZM374.368 552.96L379.766 555.58L379.773 555.564L379.781 555.549L374.368 552.96ZM313.952 472.064L319.35 474.684L319.357 474.668L319.365 474.653L313.952 472.064ZM358.496 384.368C391.253 384.368 414.708 392.228 429.99 406.89C445.226 421.506 453.36 443.87 453.36 475.136H465.36C465.36 441.89 456.684 415.87 438.298 398.23C419.958 380.635 392.981 372.368 358.496 372.368V384.368ZM453.36 475.136C453.36 502.103 448.868 527.858 439.899 552.439L451.173 556.553C460.636 530.616 465.36 503.465 465.36 475.136H453.36ZM439.899 552.439C431.032 576.743 416.763 597.583 397.02 615.023L404.964 624.017C426.181 605.275 441.608 582.766 451.173 556.553L439.899 552.439ZM397.025 615.019C378.003 631.784 355.698 640.144 329.824 640.144V652.144C358.564 652.144 383.704 642.755 404.959 624.021L397.025 615.019ZM329.824 640.144C297.067 640.144 273.612 632.283 258.33 617.622C243.094 603.006 234.96 580.642 234.96 549.376H222.96C222.96 582.622 231.636 608.642 250.022 626.282C268.362 643.876 295.339 652.144 329.824 652.144V640.144ZM234.96 549.376C234.96 522.813 239.771 497.093 249.404 472.18L238.212 467.852C228.048 494.139 222.96 521.325 222.96 549.376H234.96ZM249.404 472.18C258.964 447.457 273.432 426.591 292.831 409.493L284.897 400.491C264.019 418.892 248.45 441.374 238.212 467.852L249.404 472.18ZM292.794 409.526C312.236 392.676 334.067 384.368 358.496 384.368V372.368C331.042 372.368 306.452 381.809 284.934 400.458L292.794 409.526ZM329.824 593.776C351.452 593.776 367.962 579.904 379.766 555.58L368.97 550.34C358.246 572.438 345.06 581.776 329.824 581.776V593.776ZM379.781 555.549C391.473 531.102 397.264 503.921 397.264 474.112H385.264C385.264 502.33 379.791 527.714 368.955 550.371L379.781 555.549ZM397.264 474.112C397.264 460.908 394.387 449.885 387.584 442.125C380.648 434.214 370.564 430.736 358.496 430.736V442.736C368.274 442.736 374.573 445.488 378.56 450.035C382.68 454.734 385.264 462.398 385.264 474.112H397.264ZM358.496 430.736C336.82 430.736 320.322 444.839 308.539 469.475L319.365 474.653C330.11 452.185 343.308 442.736 358.496 442.736V430.736ZM308.554 469.444C296.847 493.568 291.056 520.593 291.056 550.4H303.056C303.056 522.18 308.529 496.981 319.35 474.684L308.554 469.444ZM291.056 550.4C291.056 563.604 293.933 574.627 300.736 582.387C307.672 590.298 317.756 593.776 329.824 593.776V581.776C320.046 581.776 313.747 579.024 309.76 574.477C305.64 569.778 303.056 562.114 303.056 550.4H291.056ZM699.536 554.496L693.899 552.439L693.899 552.439L699.536 554.496ZM654.992 619.52L658.959 624.021L658.964 624.017L654.992 619.52ZM497.808 470.016L492.212 467.852L492.212 467.852L497.808 470.016ZM542.864 404.992L538.934 400.458L538.916 400.474L538.897 400.491L542.864 404.992ZM628.368 552.96L633.766 555.58L633.773 555.564L633.781 555.549L628.368 552.96ZM567.952 472.064L573.35 474.684L573.357 474.668L573.365 474.653L567.952 472.064ZM612.496 384.368C645.253 384.368 668.708 392.228 683.99 406.89C699.226 421.506 707.36 443.87 707.36 475.136H719.36C719.36 441.89 710.684 415.87 692.298 398.23C673.958 380.635 646.981 372.368 612.496 372.368V384.368ZM707.36 475.136C707.36 502.103 702.868 527.858 693.899 552.439L705.173 556.553C714.636 530.616 719.36 503.465 719.36 475.136H707.36ZM693.899 552.439C685.032 576.743 670.763 597.583 651.02 615.023L658.964 624.017C680.181 605.275 695.608 582.766 705.173 556.553L693.899 552.439ZM651.025 615.019C632.003 631.784 609.698 640.144 583.824 640.144V652.144C612.564 652.144 637.704 642.755 658.959 624.021L651.025 615.019ZM583.824 640.144C551.067 640.144 527.612 632.283 512.33 617.622C497.094 603.006 488.96 580.642 488.96 549.376H476.96C476.96 582.622 485.636 608.642 504.022 626.282C522.362 643.876 549.339 652.144 583.824 652.144V640.144ZM488.96 549.376C488.96 522.813 493.771 497.093 503.404 472.18L492.212 467.852C482.048 494.139 476.96 521.325 476.96 549.376H488.96ZM503.404 472.18C512.964 447.457 527.432 426.591 546.831 409.493L538.897 400.491C518.019 418.892 502.45 441.374 492.212 467.852L503.404 472.18ZM546.794 409.526C566.236 392.676 588.067 384.368 612.496 384.368V372.368C585.042 372.368 560.452 381.809 538.934 400.458L546.794 409.526ZM583.824 593.776C605.452 593.776 621.962 579.904 633.766 555.58L622.97 550.34C612.246 572.438 599.06 581.776 583.824 581.776V593.776ZM633.781 555.549C645.473 531.102 651.264 503.921 651.264 474.112H639.264C639.264 502.33 633.791 527.714 622.955 550.371L633.781 555.549ZM651.264 474.112C651.264 460.908 648.387 449.885 641.584 442.125C634.648 434.214 624.564 430.736 612.496 430.736V442.736C622.274 442.736 628.573 445.488 632.56 450.035C636.68 454.734 639.264 462.398 639.264 474.112H651.264ZM612.496 430.736C590.82 430.736 574.322 444.839 562.539 469.475L573.365 474.653C584.11 452.185 597.308 442.736 612.496 442.736V430.736ZM562.554 469.444C550.847 493.568 545.056 520.593 545.056 550.4H557.056C557.056 522.18 562.529 496.981 573.35 474.684L562.554 469.444ZM545.056 550.4C545.056 563.604 547.933 574.627 554.736 582.387C561.672 590.298 571.756 593.776 583.824 593.776V581.776C574.046 581.776 567.747 579.024 563.76 574.477C559.64 569.778 557.056 562.114 557.056 550.4H545.056ZM724.16 640L718.313 638.655L716.623 646H724.16V640ZM806.592 281.6V275.6H801.815L800.745 280.255L806.592 281.6ZM875.2 281.6L881.047 282.945L882.737 275.6H875.2V281.6ZM792.768 640V646H797.545L798.615 641.345L792.768 640ZM730.007 641.345L812.439 282.945L800.745 280.255L718.313 638.655L730.007 641.345ZM806.592 287.6H875.2V275.6H806.592V287.6ZM869.353 280.255L786.921 638.655L798.615 641.345L881.047 282.945L869.353 280.255ZM792.768 634H724.16V646H792.768V634Z" fill="#C0C0C0"/>
</g>
<defs>
<clipPath id="clip0_301_2">
<rect width="1745" height="1014" fill="white"/>
</clipPath>
</defs>
</svg>
