<svg width="1745" height="1014" viewBox="0 0 1745 1014" fill="none" xmlns="http://www.w3.org/2000/svg">
<g clip-path="url(#clip0_301_2)">
<path d="M1738.73 508L1739.31 507L1738.73 506L1485.23 66.9251L1484.65 65.9251L1483.5 65.9251L976.5 65.9251L975.345 65.9251L974.768 66.9251L721.268 506L720.691 507L721.268 508L974.768 947.075L975.345 948.075L976.5 948.075L1483.5 948.075L1484.65 948.075L1485.23 947.075L1738.73 508Z" stroke="black" stroke-width="4"/>
<mask id="mask0_301_2" style="mask-type:alpha" maskUnits="userSpaceOnUse" x="723" y="67" width="1014" height="880">
<path d="M1737 507L1483.5 946.075L976.5 946.075L723 507L976.5 67.9251L1483.5 67.9251L1737 507Z" fill="#D9D9D9"/>
</mask>
<g mask="url(#mask0_301_2)">
<rect x="719.444" y="-0.518738" width="1017.56" height="1014.52" fill="#70B5EC"/>
<circle cx="1636.32" cy="416.852" r="157.384" fill="#3F9AE0"/>
<circle cx="1459.74" cy="445.002" r="62.6977" fill="#176FC9" fill-opacity="0.8"/>
<circle cx="1093.79" cy="140.47" r="60.1386" fill="#3B92E1"/>
<circle cx="938.964" cy="384.864" r="38.3864" fill="#0782D5" fill-opacity="0.6"/>
<circle cx="912.093" cy="555.043" r="113.88" fill="#97CBF3" fill-opacity="0.8"/>
<circle cx="1001.66" cy="437.325" r="62.6977" fill="#3E90DD" fill-opacity="0.6"/>
<circle cx="822.525" cy="731.62" r="80.6113" fill="#519BD1" fill-opacity="0.8"/>
<circle cx="1269.09" cy="935.068" r="56.3" fill="#3A9DE2"/>
<g style="mix-blend-mode:multiply">
<path d="M1189.64 0.260347C1187.27 0.509491 1179.67 1.3815 1172.82 2.00436C1075.4 12.2193 979.473 53.4526 901.239 118.978C886.788 130.936 853.9 163.823 841.94 178.274C777.16 255.633 739.288 342.46 725.336 445.232C722.221 468.028 722.221 545.014 725.336 567.811C739.288 670.583 777.16 757.409 841.94 834.768C853.9 849.219 886.788 882.106 901.239 894.065C978.601 958.842 1065.43 996.712 1168.21 1010.66C1191.01 1013.78 1267.99 1013.78 1290.79 1010.66C1393.57 996.712 1480.4 958.842 1557.76 894.065C1572.21 882.106 1605.1 849.219 1617.06 834.768C1681.84 757.409 1719.71 670.583 1733.66 567.811C1736.78 545.014 1736.78 468.028 1733.66 445.232C1719.71 342.46 1681.84 255.633 1617.06 178.274C1605.1 163.823 1572.21 130.936 1557.76 118.978C1480.65 54.4492 1392.95 16.081 1291.54 2.50264C1280.58 1.00778 1264.63 0.384919 1235.11 0.135775C1212.56 -0.113369 1192 0.0112031 1189.64 0.260347ZM1195.86 54.0755C1195.86 68.6504 1196.86 100.292 1198.23 130.314C1198.98 145.013 1199.85 166.066 1200.22 177.028C1201.59 215.895 1205.71 317.919 1206.33 327.013L1206.95 336.107L1201.35 335.484C1198.23 335.235 1195.37 334.487 1194.87 334.113C1194.49 333.615 1193.62 325.02 1193.12 314.929C1190.88 270.582 1183.53 98.5477 1182.78 73.3841L1182.04 45.7291L1185.52 45.2309C1187.39 44.9817 1190.51 44.608 1192.5 44.4834L1195.86 44.3589V54.0755ZM1315.08 51.0857C1315.21 51.2103 1315.58 88.8311 1315.96 134.674C1316.45 180.641 1317.08 221.874 1317.45 226.359C1317.83 230.968 1317.7 234.954 1317.08 235.203C1316.58 235.577 1313.47 235.577 1310.35 235.203L1304.62 234.705L1303.75 198.454C1303.25 178.398 1302.63 156.225 1302.38 148.999C1301.38 126.95 1300.51 52.0823 1301.26 50.2137C1301.75 48.8434 1303.13 48.7189 1308.36 49.5909C1311.97 50.3383 1314.96 50.9612 1315.08 51.0857ZM1026.94 92.8174C1027.68 93.9385 1033.54 162.578 1040.77 252.394C1043.13 282.914 1045.5 310.818 1045.87 314.306C1046.5 320.66 1046.37 320.909 1042.38 323.4C1040.14 324.771 1037.9 325.892 1037.4 325.892C1037.03 325.892 1036.28 322.653 1035.91 318.666C1034.16 302.472 1027.44 224.241 1022.7 167.685C1019.96 134.424 1017.47 104.652 1017.1 101.413C1016.47 95.9317 1016.6 95.4334 1019.84 93.6894C1023.82 91.5717 1026.07 91.1979 1026.94 92.8174ZM1369.9 117.856C1373.39 119.102 1373.76 119.725 1374.51 126.826C1375.75 139.283 1375.38 198.828 1374.01 198.828C1370.4 198.828 1362.92 194.593 1362.3 192.226C1361.93 190.731 1361.55 173.042 1361.55 152.986C1361.55 112.5 1361.05 114.867 1369.9 117.856ZM1139.8 123.711C1139.8 127.075 1140.68 145.636 1141.67 165.194C1142.67 184.752 1143.79 209.541 1144.29 220.255C1145.16 241.93 1145.41 241.183 1137.06 241.681C1132.95 241.806 1132.95 241.806 1132.7 235.577C1132.45 232.089 1131.83 221.251 1131.08 211.285C1130.46 201.32 1128.97 179.769 1127.97 163.325C1126.97 146.882 1125.73 130.563 1125.35 127.075C1124.61 120.846 1124.73 120.597 1128.09 119.351C1130.09 118.604 1133.58 117.981 1135.82 117.981C1139.8 117.856 1139.8 117.856 1139.8 123.711ZM1485.38 140.778L1489.62 142.522L1490.49 159.214C1490.86 168.308 1491.11 187.99 1490.86 202.814L1490.49 229.971L1485.26 227.355L1480.02 224.864L1479.65 183.506C1479.4 160.709 1479.53 141.4 1479.78 140.528C1480.27 138.66 1480.27 138.66 1485.38 140.778ZM1257.9 157.097C1258.65 157.844 1260.4 218.261 1260.52 248.906L1260.64 267.343L1254.79 266.471C1251.43 266.097 1248.68 265.723 1248.56 265.599C1248.19 265.35 1244.45 173.042 1244.45 164.073V154.854L1250.8 155.602C1254.42 156.1 1257.53 156.723 1257.9 157.097ZM1544.81 165.941C1546.3 167.685 1546.55 194.966 1546.92 345.449C1547.3 518.231 1547.3 522.716 1545.05 522.716C1543.68 522.716 1541.82 521.968 1540.69 521.096C1538.83 519.726 1538.58 504.653 1537.95 357.035C1537.45 267.592 1536.83 186.371 1536.46 176.53L1535.71 158.591L1539.32 161.207C1541.44 162.702 1543.81 164.82 1544.81 165.941ZM1433.06 191.478C1433.68 191.977 1434.31 199.077 1434.43 207.175C1435.05 234.705 1435.18 403.5 1434.55 403.998C1434.31 404.247 1432.06 403.625 1429.57 402.628L1425.09 400.759V294.749V188.862L1428.57 189.61C1430.44 190.108 1432.44 190.856 1433.06 191.478ZM1089.23 198.454C1089.6 201.818 1090.22 209.417 1090.6 215.645C1090.97 221.749 1091.84 235.702 1092.59 246.539C1094.08 268.464 1093.84 269.834 1086.73 269.834C1083 269.834 1082.5 269.461 1082 265.723C1080.75 258.374 1076.39 197.084 1077.02 196.088C1077.64 195.216 1084.12 192.973 1087.11 192.724C1087.86 192.6 1088.85 195.216 1089.23 198.454ZM883.175 230.22C884.546 243.425 887.286 271.08 889.279 291.634C891.397 312.189 893.141 329.629 893.141 330.376C893.141 331.871 883.549 336.605 882.552 335.608C881.929 334.985 869.472 224.739 869.472 219.756C869.472 216.767 879.064 204.185 880.31 205.555C880.684 205.804 881.929 216.891 883.175 230.22ZM1371.64 243.3L1375.26 245.418L1375.38 272.326C1375.5 287.025 1375.75 303.469 1375.75 308.825C1376 320.037 1374.63 321.905 1367.91 319.539L1364.04 318.168V307.455C1364.04 301.476 1363.67 284.16 1363.17 268.838L1362.42 241.183H1365.29C1366.78 241.183 1369.65 242.179 1371.64 243.3ZM937.865 291.634C940.107 315.552 943.72 355.914 946.087 381.326L950.322 427.418L945.464 432.276L940.73 437.135L939.858 427.293C939.36 421.812 936.868 396.399 934.252 370.738C931.636 345.076 927.898 307.829 926.03 288.022L922.542 252.145L927.4 247.66C931.76 243.55 932.259 243.425 933.131 245.667C933.629 246.913 935.747 267.592 937.865 291.634ZM844.556 306.708C847.297 331.248 854.522 396.524 860.751 451.709C866.98 506.895 872.835 560.087 873.956 570.053C874.953 580.019 876.697 595.092 877.694 603.687C879.438 618.262 879.438 619.259 877.445 620.754C874.455 622.996 873.209 622.747 873.209 620.131C873.209 619.01 872.088 609.542 870.717 599.327C868.475 582.261 864.738 553.36 856.391 488.458C854.647 475.378 851.283 449.343 848.916 430.532C846.425 411.722 842.812 383.693 840.819 368.246C838.826 352.799 835.462 326.39 833.344 309.324C831.102 292.382 829.732 277.309 830.105 275.689C830.977 272.326 838.327 260.616 839.075 261.363C839.324 261.737 841.816 282.042 844.556 306.708ZM806.436 360.398C808.304 375.347 811.792 402.628 814.159 421.189C816.526 439.626 819.516 462.672 820.887 472.264L823.254 489.704L820.637 491.946C819.143 493.192 817.648 493.69 817.149 493.192C816.651 492.694 815.654 487.711 814.907 482.23C814.159 476.748 809.55 444.733 804.567 411.224L795.722 350.183L798.587 341.712C800.082 337.103 801.702 333.366 802.075 333.366C802.574 333.366 804.442 345.574 806.436 360.398ZM1490.36 344.079C1492.11 345.823 1492.36 353.547 1492.36 410.725V475.378H1488.87C1481.27 475.378 1481.4 477.247 1480.9 406.49L1480.52 342.086H1484.51C1486.63 342.086 1489.37 342.958 1490.36 344.079ZM1217.67 366.378C1245.82 370.613 1270.36 378.461 1294.65 390.918C1310.35 399.015 1317.83 404.621 1335.27 421.314C1361.18 446.104 1377.12 467.779 1392.07 498.424C1413.87 543.021 1422.35 582.51 1433.06 688.396C1437.92 735.858 1444.27 821.938 1445.64 857.191C1446.02 867.406 1446.89 884.224 1447.63 894.563C1449.01 916.488 1450.62 913.498 1431.32 922.841C1404.53 935.796 1378.74 944.766 1344.73 953.112C1303.13 963.327 1276.22 966.566 1235.11 966.69L1205.21 966.815L1205.46 952.489C1205.46 944.641 1206.2 926.329 1206.95 912.003C1210.69 842.617 1209.94 755.042 1205.08 706.459C1202.34 678.555 1196.99 644.672 1194 637.197C1193.37 635.578 1196.24 634.207 1208.57 629.972C1231.12 622.124 1250.68 612.283 1253.67 607.424C1259.02 598.206 1249.43 585.002 1237.22 585.002C1235.11 585.002 1228.75 587.244 1222.9 589.86C1194.99 602.691 1139.06 617.764 1106.79 621.127C1084.49 623.494 1049.86 622.124 1025.82 617.764C1012.74 615.397 989.315 606.552 969.756 596.462C947.208 584.752 933.38 569.181 929.269 550.744C927.026 540.778 927.649 520.847 930.515 509.635C933.629 497.303 942.349 479.364 950.322 468.9C985.827 422.186 1059.08 381.7 1134.2 367.499C1158.12 363.014 1192 362.516 1217.67 366.378ZM1601.99 370.239C1606.47 372.108 1606.97 372.606 1606.97 376.842C1607.22 410.85 1606.47 488.583 1605.85 491.822C1605.72 492.943 1599.25 493.067 1596.5 492.071C1594.76 491.448 1594.51 484.721 1594.51 429.785C1594.51 390.42 1595.01 368.246 1595.76 368.246C1596.38 368.246 1599.25 369.118 1601.99 370.239ZM1656.43 438.629L1660.91 440.498L1660.04 543.644C1659.04 675.067 1658.92 678.929 1654.18 690.265C1646.46 708.826 1646.83 712.563 1647.58 631.093C1647.83 590.358 1648.45 549.125 1648.7 539.533C1648.95 529.941 1649.2 502.909 1649.33 479.364C1649.33 450.962 1649.7 436.761 1650.57 436.761C1651.32 436.761 1653.93 437.633 1656.43 438.629ZM907.219 469.648C907.966 479.738 907.717 480.735 904.104 488.707L900.118 497.178L898.623 484.721C896.256 464.79 896.256 463.918 900.99 460.928C903.108 459.433 905.35 458.436 905.724 458.685C906.097 458.935 906.845 463.918 907.219 469.648ZM830.23 544.765C831.351 554.98 840.071 622.747 844.556 656.008C851.283 707.456 851.782 714.806 848.792 711.691C848.418 711.318 845.553 694.002 842.563 673.199C823.129 538.91 823.254 539.782 824.873 538.785C828.237 536.543 829.358 537.789 830.23 544.765ZM919.926 601.819C920.673 604.933 924.286 638.692 924.286 642.803C924.286 646.291 919.801 649.53 917.808 647.537C917.185 646.914 915.565 636.325 914.32 624.117C912.949 611.785 911.579 598.954 911.205 595.59L910.458 589.362L914.818 594.344C917.309 597.085 919.552 600.448 919.926 601.819ZM1020.46 648.782C1021.83 650.028 1022.7 655.011 1023.82 668.465C1025.69 692.756 1025.94 690.888 1020.83 690.888C1015.6 690.888 1015.73 691.261 1013.98 669.337C1012.24 647.038 1012.24 647.288 1015.6 647.288C1017.22 647.288 1019.34 648.035 1020.46 648.782ZM1119.12 650.651C1119.37 651.897 1120 659.371 1120.49 667.219C1120.87 675.067 1121.99 692.756 1122.99 706.459C1126.47 756.786 1126.6 763.14 1124.48 763.14C1122.11 763.14 1121.87 761.271 1119.12 725.768C1118.13 711.068 1116.26 687.898 1115.01 674.32C1113.89 660.741 1113.14 649.405 1113.52 649.156C1114.89 647.661 1118.5 648.782 1119.12 650.651ZM884.919 674.569C885.667 675.69 890.401 715.553 896.256 769.991C898 786.435 899.744 802.255 900.118 805.245L900.741 810.602L897.626 808.608C895.259 806.989 894.387 805.369 894.387 802.504C894.387 794.656 889.03 742.959 884.919 711.318C882.552 693.379 880.684 677.559 880.684 676.064C880.684 673.448 883.674 672.451 884.919 674.569ZM1603.85 726.64L1602.98 778.711L1599.87 783.32C1592.77 793.784 1593.14 795.777 1593.51 737.478L1593.76 684.036L1598.37 679.303C1600.86 676.811 1603.36 674.693 1603.85 674.693C1604.23 674.693 1604.23 698.113 1603.85 726.64ZM1488.62 809.231C1489.24 881.608 1489.12 887.213 1487.13 889.456C1485.88 890.826 1484.76 891.698 1484.39 891.324C1483.51 890.328 1482.27 732.495 1483.26 731.623C1483.76 731.125 1485.01 730.875 1486.13 731C1487.75 731.374 1488.12 740.218 1488.62 809.231ZM1081.75 759.652C1082.62 767.375 1085.74 804.373 1086.98 821.813C1087.73 833.523 1087.73 833.896 1084.99 834.768C1083.5 835.267 1081.75 835.142 1081.25 834.519C1080.38 833.647 1077.64 805.992 1074.28 763.389L1073.4 753.174H1077.27C1080.88 753.174 1081.13 753.423 1081.75 759.652ZM983.834 803.252C984.706 804.124 985.329 807.238 985.329 810.352C985.329 813.591 986.823 830.408 988.443 847.849C993.177 895.56 993.551 902.037 991.433 900.792C988.194 898.923 985.329 896.058 985.951 895.31C986.201 894.812 985.702 888.584 984.706 881.483C983.834 874.258 982.712 862.548 982.214 855.323C981.716 848.098 980.595 834.893 979.598 826.048C977.231 804.248 977.356 801.757 980.096 801.757C981.342 801.757 982.962 802.38 983.834 803.252ZM1042.76 887.089C1043.13 889.829 1043.88 900.044 1044.38 909.761C1045.25 928.447 1044.88 929.817 1039.77 925.955C1038.27 924.834 1037.28 920.1 1035.78 905.899C1033.17 880.237 1033.04 881.234 1037.9 881.732C1041.51 882.106 1042.01 882.604 1042.76 887.089Z" fill="#042036"/>
<path d="M998.284 426.048C985.328 431.653 984.332 449.218 996.54 455.447C1005.39 459.931 1014.35 457.813 1018.96 450.09C1027.68 435.889 1013.48 419.445 998.284 426.048Z" fill="#042036"/>
<path d="M1082.75 438.006C1070.79 445.356 1070.79 463.045 1082.75 470.395C1094.58 477.496 1109.91 468.153 1109.91 453.952C1109.91 440.249 1094.21 431.03 1082.75 438.006Z" fill="#042036"/>
</g>
</g>
<path d="M136.919 715.784V737.672C136.983 739.08 137.335 740.136 137.975 740.84C138.679 741.48 139.735 741.896 141.143 742.088L140.855 750.056C135.351 750.056 131.095 748.872 128.087 746.504C122.967 748.872 117.815 750.056 112.631 750.056C103.095 750.056 98.3265 744.968 98.3265 734.792C98.3265 729.928 99.6065 726.408 102.167 724.232C104.791 722.056 108.791 720.744 114.167 720.296L126.551 719.24V715.784C126.551 713.224 125.975 711.432 124.823 710.408C123.735 709.384 122.103 708.872 119.927 708.872C115.831 708.872 110.711 709.128 104.567 709.64L101.495 709.832L101.111 702.44C108.087 700.776 114.487 699.944 120.311 699.944C126.199 699.944 130.423 701.224 132.983 703.784C135.607 706.28 136.919 710.28 136.919 715.784ZM115.415 727.688C110.999 728.072 108.791 730.472 108.791 734.888C108.791 739.304 110.743 741.512 114.647 741.512C117.847 741.512 121.239 741 124.823 739.976L126.551 739.4V726.632L115.415 727.688ZM210.317 681.032V749H199.949V746.504C195.277 748.872 190.989 750.056 187.085 750.056C180.813 750.056 176.205 748.168 173.261 744.392C170.381 740.616 168.941 734.28 168.941 725.384C168.941 716.488 170.541 710.024 173.741 705.992C177.005 701.96 182.061 699.944 188.909 699.944C191.213 699.944 194.861 700.36 199.853 701.192V681.032H210.317ZM198.221 739.016L199.853 738.344V709.928C196.013 709.288 192.461 708.968 189.197 708.968C182.733 708.968 179.501 714.344 179.501 725.096C179.501 730.984 180.237 735.08 181.709 737.384C183.245 739.624 185.645 740.744 188.909 740.744C192.173 740.744 195.277 740.168 198.221 739.016ZM257.168 740.36L259.856 740.072L260.048 747.848C252.752 749.32 246.288 750.056 240.656 750.056C233.552 750.056 228.432 748.104 225.296 744.2C222.224 740.296 220.688 734.056 220.688 725.48C220.688 708.456 227.632 699.944 241.52 699.944C254.96 699.944 261.68 707.272 261.68 721.928L261.008 729.416H231.248C231.312 733.384 232.176 736.296 233.84 738.152C235.504 740.008 238.608 740.936 243.152 740.936C247.696 740.936 252.368 740.744 257.168 740.36ZM251.408 721.352C251.408 716.616 250.64 713.32 249.104 711.464C247.632 709.544 245.104 708.584 241.52 708.584C237.936 708.584 235.312 709.576 233.648 711.56C232.048 713.544 231.216 716.808 231.152 721.352H251.408ZM282.206 749H271.742V701H282.11V703.976C286.782 701.288 291.198 699.944 295.358 699.944C301.758 699.944 306.11 701.768 308.414 705.416C310.782 709 311.966 714.952 311.966 723.272V749H301.598V723.56C301.598 718.376 301.022 714.696 299.87 712.52C298.782 710.344 296.51 709.256 293.054 709.256C289.79 709.256 286.654 709.896 283.646 711.176L282.206 711.752V749ZM326.741 706.184C330.069 702.024 335.573 699.944 343.253 699.944C350.933 699.944 356.405 702.024 359.669 706.184C362.997 710.344 364.661 716.584 364.661 724.904C364.661 733.224 363.061 739.496 359.861 743.72C356.661 747.944 351.125 750.056 343.253 750.056C335.381 750.056 329.845 747.944 326.645 743.72C323.445 739.496 321.845 733.224 321.845 724.904C321.845 716.584 323.477 710.344 326.741 706.184ZM334.613 737.384C336.085 739.944 338.965 741.224 343.253 741.224C347.541 741.224 350.421 739.944 351.893 737.384C353.365 734.824 354.101 730.632 354.101 724.808C354.101 718.984 353.301 714.856 351.701 712.424C350.165 709.992 347.349 708.776 343.253 708.776C339.157 708.776 336.309 709.992 334.709 712.424C333.173 714.856 332.405 718.984 332.405 724.808C332.405 730.632 333.141 734.824 334.613 737.384ZM430.325 740.36L433.013 740.072L433.205 747.848C425.909 749.32 419.445 750.056 413.812 750.056C406.709 750.056 401.589 748.104 398.453 744.2C395.381 740.296 393.845 734.056 393.845 725.48C393.845 708.456 400.789 699.944 414.677 699.944C428.117 699.944 434.837 707.272 434.837 721.928L434.165 729.416H404.405C404.469 733.384 405.333 736.296 406.997 738.152C408.661 740.008 411.765 740.936 416.309 740.936C420.853 740.936 425.525 740.744 430.325 740.36ZM424.565 721.352C424.565 716.616 423.797 713.32 422.261 711.464C420.789 709.544 418.261 708.584 414.677 708.584C411.093 708.584 408.469 709.576 406.805 711.56C405.205 713.544 404.373 716.808 404.309 721.352H424.565ZM462.851 699.944C466.243 699.944 470.243 700.392 474.851 701.288L477.251 701.768L476.867 710.024C471.811 709.512 468.067 709.256 465.635 709.256C460.771 709.256 457.507 710.344 455.843 712.52C454.179 714.696 453.347 718.792 453.347 724.808C453.347 730.824 454.147 734.984 455.747 737.288C457.347 739.592 460.675 740.744 465.731 740.744L476.963 739.976L477.251 748.328C470.787 749.48 465.923 750.056 462.659 750.056C455.363 750.056 450.211 748.104 447.203 744.2C444.259 740.232 442.787 733.768 442.787 724.808C442.787 715.848 444.355 709.48 447.491 705.704C450.627 701.864 455.747 699.944 462.851 699.944ZM489.491 706.184C492.819 702.024 498.323 699.944 506.003 699.944C513.683 699.944 519.155 702.024 522.419 706.184C525.747 710.344 527.411 716.584 527.411 724.904C527.411 733.224 525.811 739.496 522.611 743.72C519.411 747.944 513.875 750.056 506.003 750.056C498.131 750.056 492.595 747.944 489.395 743.72C486.195 739.496 484.595 733.224 484.595 724.904C484.595 716.584 486.227 710.344 489.491 706.184ZM497.363 737.384C498.835 739.944 501.715 741.224 506.003 741.224C510.291 741.224 513.171 739.944 514.643 737.384C516.115 734.824 516.851 730.632 516.851 724.808C516.851 718.984 516.051 714.856 514.451 712.424C512.915 709.992 510.099 708.776 506.003 708.776C501.907 708.776 499.059 709.992 497.459 712.424C495.923 714.856 495.155 718.984 495.155 724.808C495.155 730.632 495.891 734.824 497.363 737.384ZM571.117 710.888C563.565 709.864 558.093 709.352 554.701 709.352C551.309 709.352 548.941 709.768 547.597 710.6C546.317 711.368 545.677 712.616 545.677 714.344C545.677 716.072 546.381 717.288 547.789 717.992C549.261 718.696 552.653 719.528 557.965 720.488C563.341 721.384 567.149 722.824 569.389 724.808C571.629 726.792 572.749 730.312 572.749 735.368C572.749 740.424 571.117 744.136 567.853 746.504C564.653 748.872 559.949 750.056 553.741 750.056C549.837 750.056 544.909 749.512 538.957 748.424L535.981 747.944L536.365 739.208C544.045 740.232 549.581 740.744 552.973 740.744C556.365 740.744 558.765 740.328 560.173 739.496C561.645 738.664 562.381 737.288 562.381 735.368C562.381 733.448 561.677 732.136 560.269 731.432C558.925 730.664 555.629 729.864 550.381 729.032C545.197 728.136 541.389 726.76 538.957 724.904C536.525 723.048 535.309 719.656 535.309 714.728C535.309 709.8 536.973 706.12 540.301 703.688C543.693 701.256 548.013 700.04 553.261 700.04C557.357 700.04 562.381 700.552 568.333 701.576L571.309 702.152L571.117 710.888ZM577.733 701H588.005L598.181 740.072H600.773L610.949 701H621.317L603.077 769.64H592.805L598.565 749H590.309L577.733 701ZM662.054 710.888C654.502 709.864 649.03 709.352 645.638 709.352C642.246 709.352 639.878 709.768 638.534 710.6C637.254 711.368 636.614 712.616 636.614 714.344C636.614 716.072 637.318 717.288 638.726 717.992C640.198 718.696 643.59 719.528 648.902 720.488C654.278 721.384 658.086 722.824 660.326 724.808C662.566 726.792 663.686 730.312 663.686 735.368C663.686 740.424 662.054 744.136 658.79 746.504C655.59 748.872 650.886 750.056 644.678 750.056C640.774 750.056 635.846 749.512 629.894 748.424L626.918 747.944L627.302 739.208C634.982 740.232 640.518 740.744 643.91 740.744C647.302 740.744 649.702 740.328 651.11 739.496C652.582 738.664 653.318 737.288 653.318 735.368C653.318 733.448 652.614 732.136 651.206 731.432C649.862 730.664 646.566 729.864 641.318 729.032C636.134 728.136 632.326 726.76 629.894 724.904C627.462 723.048 626.246 719.656 626.246 714.728C626.246 709.8 627.91 706.12 631.238 703.688C634.63 701.256 638.95 700.04 644.198 700.04C648.294 700.04 653.318 700.552 659.27 701.576L662.246 702.152L662.054 710.888ZM699.566 709.928H686.318V731.048C686.318 734.952 686.606 737.544 687.182 738.824C687.758 740.104 689.23 740.744 691.598 740.744L699.47 740.456L699.95 748.808C695.662 749.64 692.398 750.056 690.158 750.056C684.718 750.056 680.974 748.808 678.926 746.312C676.942 743.816 675.95 739.112 675.95 732.2V709.928H669.806V701H675.95V687.08H686.318V701H699.566V709.928ZM742.325 740.36L745.013 740.072L745.205 747.848C737.909 749.32 731.445 750.056 725.812 750.056C718.709 750.056 713.589 748.104 710.453 744.2C707.381 740.296 705.845 734.056 705.845 725.48C705.845 708.456 712.789 699.944 726.677 699.944C740.117 699.944 746.837 707.272 746.837 721.928L746.165 729.416H716.405C716.469 733.384 717.333 736.296 718.997 738.152C720.661 740.008 723.765 740.936 728.309 740.936C732.853 740.936 737.525 740.744 742.325 740.36ZM736.565 721.352C736.565 716.616 735.797 713.32 734.261 711.464C732.789 709.544 730.261 708.584 726.677 708.584C723.093 708.584 720.469 709.576 718.805 711.56C717.205 713.544 716.373 716.808 716.309 721.352H736.565ZM767.363 749H756.898V701H767.267V703.976C771.811 701.288 775.971 699.944 779.747 699.944C785.315 699.944 789.379 701.512 791.939 704.648C797.763 701.512 803.555 699.944 809.315 699.944C815.075 699.944 819.139 701.736 821.507 705.32C823.875 708.84 825.059 714.824 825.059 723.272V749H814.691V723.56C814.691 718.376 814.147 714.696 813.059 712.52C812.035 710.344 809.859 709.256 806.531 709.256C803.651 709.256 800.547 709.896 797.219 711.176L795.587 711.848C796.099 713.128 796.355 717.224 796.355 724.136V749H785.987V724.328C785.987 718.632 785.475 714.696 784.451 712.52C783.427 710.344 781.187 709.256 777.731 709.256C774.531 709.256 771.555 709.896 768.803 711.176L767.363 711.752V749Z" fill="white"/>
<path d="M156.616 377.856C177.096 377.856 198.771 381.952 221.64 390.144L232.904 393.728L215.496 443.904C189.213 439.467 168.563 437.248 153.544 437.248C134.088 437.248 119.069 448 108.488 469.504C97.9067 490.667 92.616 515.584 92.616 544.256C92.616 572.587 105.587 586.752 131.528 586.752L186.312 582.656L180.68 633.344C155.763 641.877 130.845 646.144 105.928 646.144C81.0107 646.144 60.872 638.293 45.512 622.592C30.4933 606.891 22.984 585.045 22.984 557.056C22.984 504.832 34.4187 461.995 57.288 428.544C80.4987 394.752 113.608 377.856 156.616 377.856ZM358.496 378.368C425.739 378.368 459.36 410.624 459.36 475.136C459.36 502.784 454.752 529.237 445.536 554.496C436.32 579.755 421.472 601.429 400.992 619.52C380.853 637.269 357.131 646.144 329.824 646.144C262.581 646.144 228.96 613.888 228.96 549.376C228.96 522.069 233.909 495.616 243.808 470.016C253.707 444.416 268.725 422.741 288.864 404.992C309.344 387.243 332.555 378.368 358.496 378.368ZM329.824 587.776C348.256 587.776 363.104 576.171 374.368 552.96C385.632 529.408 391.264 503.125 391.264 474.112C391.264 449.195 380.341 436.736 358.496 436.736C340.064 436.736 325.216 448.512 313.952 472.064C302.688 495.275 297.056 521.387 297.056 550.4C297.056 575.317 307.979 587.776 329.824 587.776ZM612.496 378.368C679.739 378.368 713.36 410.624 713.36 475.136C713.36 502.784 708.752 529.237 699.536 554.496C690.32 579.755 675.472 601.429 654.992 619.52C634.853 637.269 611.131 646.144 583.824 646.144C516.581 646.144 482.96 613.888 482.96 549.376C482.96 522.069 487.909 495.616 497.808 470.016C507.707 444.416 522.725 422.741 542.864 404.992C563.344 387.243 586.555 378.368 612.496 378.368ZM583.824 587.776C602.256 587.776 617.104 576.171 628.368 552.96C639.632 529.408 645.264 503.125 645.264 474.112C645.264 449.195 634.341 436.736 612.496 436.736C594.064 436.736 579.216 448.512 567.952 472.064C556.688 495.275 551.056 521.387 551.056 550.4C551.056 575.317 561.979 587.776 583.824 587.776ZM724.16 640L806.592 281.6H875.2L792.768 640H724.16Z" fill="white"/>
</g>
<defs>
<clipPath id="clip0_301_2">
<rect width="1745" height="1014" fill="white"/>
</clipPath>
</defs>
</svg>
