<svg width="1745" height="1014" viewBox="0 0 1745 1014" fill="none" xmlns="http://www.w3.org/2000/svg">
<g clip-path="url(#clip0_301_2)">
<path d="M1738.73 508L1739.31 507L1738.73 506L1485.23 66.9251L1484.65 65.9251L1483.5 65.9251L976.5 65.9251L975.345 65.9251L974.768 66.9251L721.268 506L720.691 507L721.268 508L974.768 947.075L975.345 948.075L976.5 948.075L1483.5 948.075L1484.65 948.075L1485.23 947.075L1738.73 508Z" stroke="black" stroke-width="4"/>
<mask id="mask0_301_2" style="mask-type:alpha" maskUnits="userSpaceOnUse" x="723" y="67" width="1014" height="880">
<path d="M1737 507L1483.5 946.075L976.5 946.075L723 507L976.5 67.9251L1483.5 67.9251L1737 507Z" fill="#D9D9D9"/>
</mask>
<g mask="url(#mask0_301_2)">
<rect x="719.444" y="-0.518738" width="1017.56" height="1014.52" fill="#70B5EC"/>
<circle cx="1636.32" cy="416.852" r="157.384" fill="#3F9AE0"/>
<circle cx="1459.74" cy="445.002" r="62.6977" fill="#176FC9" fill-opacity="0.8"/>
<circle cx="1093.79" cy="140.47" r="60.1386" fill="#3B92E1"/>
<circle cx="938.964" cy="384.864" r="38.3864" fill="#0782D5" fill-opacity="0.6"/>
<circle cx="912.093" cy="555.043" r="113.88" fill="#97CBF3" fill-opacity="0.8"/>
<circle cx="1001.66" cy="437.325" r="62.6977" fill="#3E90DD" fill-opacity="0.6"/>
<circle cx="822.525" cy="731.62" r="80.6113" fill="#519BD1" fill-opacity="0.8"/>
<circle cx="1269.09" cy="935.068" r="56.3" fill="#3A9DE2"/>
<g style="mix-blend-mode:multiply">
<path d="M1189.64 0.260347C1187.27 0.509491 1179.67 1.3815 1172.82 2.00436C1075.4 12.2193 979.473 53.4526 901.239 118.978C886.788 130.936 853.9 163.823 841.94 178.274C777.16 255.633 739.288 342.46 725.336 445.232C722.221 468.028 722.221 545.014 725.336 567.811C739.288 670.583 777.16 757.409 841.94 834.768C853.9 849.219 886.788 882.106 901.239 894.065C978.601 958.842 1065.43 996.712 1168.21 1010.66C1191.01 1013.78 1267.99 1013.78 1290.79 1010.66C1393.57 996.712 1480.4 958.842 1557.76 894.065C1572.21 882.106 1605.1 849.219 1617.06 834.768C1681.84 757.409 1719.71 670.583 1733.66 567.811C1736.78 545.014 1736.78 468.028 1733.66 445.232C1719.71 342.46 1681.84 255.633 1617.06 178.274C1605.1 163.823 1572.21 130.936 1557.76 118.978C1480.65 54.4492 1392.95 16.081 1291.54 2.50264C1280.58 1.00778 1264.63 0.384919 1235.11 0.135775C1212.56 -0.113369 1192 0.0112031 1189.64 0.260347ZM1195.86 54.0755C1195.86 68.6504 1196.86 100.292 1198.23 130.314C1198.98 145.013 1199.85 166.066 1200.22 177.028C1201.59 215.895 1205.71 317.919 1206.33 327.013L1206.95 336.107L1201.35 335.484C1198.23 335.235 1195.37 334.487 1194.87 334.113C1194.49 333.615 1193.62 325.02 1193.12 314.929C1190.88 270.582 1183.53 98.5477 1182.78 73.3841L1182.04 45.7291L1185.52 45.2309C1187.39 44.9817 1190.51 44.608 1192.5 44.4834L1195.86 44.3589V54.0755ZM1315.08 51.0857C1315.21 51.2103 1315.58 88.8311 1315.96 134.674C1316.45 180.641 1317.08 221.874 1317.45 226.359C1317.83 230.968 1317.7 234.954 1317.08 235.203C1316.58 235.577 1313.47 235.577 1310.35 235.203L1304.62 234.705L1303.75 198.454C1303.25 178.398 1302.63 156.225 1302.38 148.999C1301.38 126.95 1300.51 52.0823 1301.26 50.2137C1301.75 48.8434 1303.13 48.7189 1308.36 49.5909C1311.97 50.3383 1314.96 50.9612 1315.08 51.0857ZM1026.94 92.8174C1027.68 93.9385 1033.54 162.578 1040.77 252.394C1043.13 282.914 1045.5 310.818 1045.87 314.306C1046.5 320.66 1046.37 320.909 1042.38 323.4C1040.14 324.771 1037.9 325.892 1037.4 325.892C1037.03 325.892 1036.28 322.653 1035.91 318.666C1034.16 302.472 1027.44 224.241 1022.7 167.685C1019.96 134.424 1017.47 104.652 1017.1 101.413C1016.47 95.9317 1016.6 95.4334 1019.84 93.6894C1023.82 91.5717 1026.07 91.1979 1026.94 92.8174ZM1369.9 117.856C1373.39 119.102 1373.76 119.725 1374.51 126.826C1375.75 139.283 1375.38 198.828 1374.01 198.828C1370.4 198.828 1362.92 194.593 1362.3 192.226C1361.93 190.731 1361.55 173.042 1361.55 152.986C1361.55 112.5 1361.05 114.867 1369.9 117.856ZM1139.8 123.711C1139.8 127.075 1140.68 145.636 1141.67 165.194C1142.67 184.752 1143.79 209.541 1144.29 220.255C1145.16 241.93 1145.41 241.183 1137.06 241.681C1132.95 241.806 1132.95 241.806 1132.7 235.577C1132.45 232.089 1131.83 221.251 1131.08 211.285C1130.46 201.32 1128.97 179.769 1127.97 163.325C1126.97 146.882 1125.73 130.563 1125.35 127.075C1124.61 120.846 1124.73 120.597 1128.09 119.351C1130.09 118.604 1133.58 117.981 1135.82 117.981C1139.8 117.856 1139.8 117.856 1139.8 123.711ZM1485.38 140.778L1489.62 142.522L1490.49 159.214C1490.86 168.308 1491.11 187.99 1490.86 202.814L1490.49 229.971L1485.26 227.355L1480.02 224.864L1479.65 183.506C1479.4 160.709 1479.53 141.4 1479.78 140.528C1480.27 138.66 1480.27 138.66 1485.38 140.778ZM1257.9 157.097C1258.65 157.844 1260.4 218.261 1260.52 248.906L1260.64 267.343L1254.79 266.471C1251.43 266.097 1248.68 265.723 1248.56 265.599C1248.19 265.35 1244.45 173.042 1244.45 164.073V154.854L1250.8 155.602C1254.42 156.1 1257.53 156.723 1257.9 157.097ZM1544.81 165.941C1546.3 167.685 1546.55 194.966 1546.92 345.449C1547.3 518.231 1547.3 522.716 1545.05 522.716C1543.68 522.716 1541.82 521.968 1540.69 521.096C1538.83 519.726 1538.58 504.653 1537.95 357.035C1537.45 267.592 1536.83 186.371 1536.46 176.53L1535.71 158.591L1539.32 161.207C1541.44 162.702 1543.81 164.82 1544.81 165.941ZM1433.06 191.478C1433.68 191.977 1434.31 199.077 1434.43 207.175C1435.05 234.705 1435.18 403.5 1434.55 403.998C1434.31 404.247 1432.06 403.625 1429.57 402.628L1425.09 400.759V294.749V188.862L1428.57 189.61C1430.44 190.108 1432.44 190.856 1433.06 191.478ZM1089.23 198.454C1089.6 201.818 1090.22 209.417 1090.6 215.645C1090.97 221.749 1091.84 235.702 1092.59 246.539C1094.08 268.464 1093.84 269.834 1086.73 269.834C1083 269.834 1082.5 269.461 1082 265.723C1080.75 258.374 1076.39 197.084 1077.02 196.088C1077.64 195.216 1084.12 192.973 1087.11 192.724C1087.86 192.6 1088.85 195.216 1089.23 198.454ZM883.175 230.22C884.546 243.425 887.286 271.08 889.279 291.634C891.397 312.189 893.141 329.629 893.141 330.376C893.141 331.871 883.549 336.605 882.552 335.608C881.929 334.985 869.472 224.739 869.472 219.756C869.472 216.767 879.064 204.185 880.31 205.555C880.684 205.804 881.929 216.891 883.175 230.22ZM1371.64 243.3L1375.26 245.418L1375.38 272.326C1375.5 287.025 1375.75 303.469 1375.75 308.825C1376 320.037 1374.63 321.905 1367.91 319.539L1364.04 318.168V307.455C1364.04 301.476 1363.67 284.16 1363.17 268.838L1362.42 241.183H1365.29C1366.78 241.183 1369.65 242.179 1371.64 243.3ZM937.865 291.634C940.107 315.552 943.72 355.914 946.087 381.326L950.322 427.418L945.464 432.276L940.73 437.135L939.858 427.293C939.36 421.812 936.868 396.399 934.252 370.738C931.636 345.076 927.898 307.829 926.03 288.022L922.542 252.145L927.4 247.66C931.76 243.55 932.259 243.425 933.131 245.667C933.629 246.913 935.747 267.592 937.865 291.634ZM844.556 306.708C847.297 331.248 854.522 396.524 860.751 451.709C866.98 506.895 872.835 560.087 873.956 570.053C874.953 580.019 876.697 595.092 877.694 603.687C879.438 618.262 879.438 619.259 877.445 620.754C874.455 622.996 873.209 622.747 873.209 620.131C873.209 619.01 872.088 609.542 870.717 599.327C868.475 582.261 864.738 553.36 856.391 488.458C854.647 475.378 851.283 449.343 848.916 430.532C846.425 411.722 842.812 383.693 840.819 368.246C838.826 352.799 835.462 326.39 833.344 309.324C831.102 292.382 829.732 277.309 830.105 275.689C830.977 272.326 838.327 260.616 839.075 261.363C839.324 261.737 841.816 282.042 844.556 306.708ZM806.436 360.398C808.304 375.347 811.792 402.628 814.159 421.189C816.526 439.626 819.516 462.672 820.887 472.264L823.254 489.704L820.637 491.946C819.143 493.192 817.648 493.69 817.149 493.192C816.651 492.694 815.654 487.711 814.907 482.23C814.159 476.748 809.55 444.733 804.567 411.224L795.722 350.183L798.587 341.712C800.082 337.103 801.702 333.366 802.075 333.366C802.574 333.366 804.442 345.574 806.436 360.398ZM1490.36 344.079C1492.11 345.823 1492.36 353.547 1492.36 410.725V475.378H1488.87C1481.27 475.378 1481.4 477.247 1480.9 406.49L1480.52 342.086H1484.51C1486.63 342.086 1489.37 342.958 1490.36 344.079ZM1217.67 366.378C1245.82 370.613 1270.36 378.461 1294.65 390.918C1310.35 399.015 1317.83 404.621 1335.27 421.314C1361.18 446.104 1377.12 467.779 1392.07 498.424C1413.87 543.021 1422.35 582.51 1433.06 688.396C1437.92 735.858 1444.27 821.938 1445.64 857.191C1446.02 867.406 1446.89 884.224 1447.63 894.563C1449.01 916.488 1450.62 913.498 1431.32 922.841C1404.53 935.796 1378.74 944.766 1344.73 953.112C1303.13 963.327 1276.22 966.566 1235.11 966.69L1205.21 966.815L1205.46 952.489C1205.46 944.641 1206.2 926.329 1206.95 912.003C1210.69 842.617 1209.94 755.042 1205.08 706.459C1202.34 678.555 1196.99 644.672 1194 637.197C1193.37 635.578 1196.24 634.207 1208.57 629.972C1231.12 622.124 1250.68 612.283 1253.67 607.424C1259.02 598.206 1249.43 585.002 1237.22 585.002C1235.11 585.002 1228.75 587.244 1222.9 589.86C1194.99 602.691 1139.06 617.764 1106.79 621.127C1084.49 623.494 1049.86 622.124 1025.82 617.764C1012.74 615.397 989.315 606.552 969.756 596.462C947.208 584.752 933.38 569.181 929.269 550.744C927.026 540.778 927.649 520.847 930.515 509.635C933.629 497.303 942.349 479.364 950.322 468.9C985.827 422.186 1059.08 381.7 1134.2 367.499C1158.12 363.014 1192 362.516 1217.67 366.378ZM1601.99 370.239C1606.47 372.108 1606.97 372.606 1606.97 376.842C1607.22 410.85 1606.47 488.583 1605.85 491.822C1605.72 492.943 1599.25 493.067 1596.5 492.071C1594.76 491.448 1594.51 484.721 1594.51 429.785C1594.51 390.42 1595.01 368.246 1595.76 368.246C1596.38 368.246 1599.25 369.118 1601.99 370.239ZM1656.43 438.629L1660.91 440.498L1660.04 543.644C1659.04 675.067 1658.92 678.929 1654.18 690.265C1646.46 708.826 1646.83 712.563 1647.58 631.093C1647.83 590.358 1648.45 549.125 1648.7 539.533C1648.95 529.941 1649.2 502.909 1649.33 479.364C1649.33 450.962 1649.7 436.761 1650.57 436.761C1651.32 436.761 1653.93 437.633 1656.43 438.629ZM907.219 469.648C907.966 479.738 907.717 480.735 904.104 488.707L900.118 497.178L898.623 484.721C896.256 464.79 896.256 463.918 900.99 460.928C903.108 459.433 905.35 458.436 905.724 458.685C906.097 458.935 906.845 463.918 907.219 469.648ZM830.23 544.765C831.351 554.98 840.071 622.747 844.556 656.008C851.283 707.456 851.782 714.806 848.792 711.691C848.418 711.318 845.553 694.002 842.563 673.199C823.129 538.91 823.254 539.782 824.873 538.785C828.237 536.543 829.358 537.789 830.23 544.765ZM919.926 601.819C920.673 604.933 924.286 638.692 924.286 642.803C924.286 646.291 919.801 649.53 917.808 647.537C917.185 646.914 915.565 636.325 914.32 624.117C912.949 611.785 911.579 598.954 911.205 595.59L910.458 589.362L914.818 594.344C917.309 597.085 919.552 600.448 919.926 601.819ZM1020.46 648.782C1021.83 650.028 1022.7 655.011 1023.82 668.465C1025.69 692.756 1025.94 690.888 1020.83 690.888C1015.6 690.888 1015.73 691.261 1013.98 669.337C1012.24 647.038 1012.24 647.288 1015.6 647.288C1017.22 647.288 1019.34 648.035 1020.46 648.782ZM1119.12 650.651C1119.37 651.897 1120 659.371 1120.49 667.219C1120.87 675.067 1121.99 692.756 1122.99 706.459C1126.47 756.786 1126.6 763.14 1124.48 763.14C1122.11 763.14 1121.87 761.271 1119.12 725.768C1118.13 711.068 1116.26 687.898 1115.01 674.32C1113.89 660.741 1113.14 649.405 1113.52 649.156C1114.89 647.661 1118.5 648.782 1119.12 650.651ZM884.919 674.569C885.667 675.69 890.401 715.553 896.256 769.991C898 786.435 899.744 802.255 900.118 805.245L900.741 810.602L897.626 808.608C895.259 806.989 894.387 805.369 894.387 802.504C894.387 794.656 889.03 742.959 884.919 711.318C882.552 693.379 880.684 677.559 880.684 676.064C880.684 673.448 883.674 672.451 884.919 674.569ZM1603.85 726.64L1602.98 778.711L1599.87 783.32C1592.77 793.784 1593.14 795.777 1593.51 737.478L1593.76 684.036L1598.37 679.303C1600.86 676.811 1603.36 674.693 1603.85 674.693C1604.23 674.693 1604.23 698.113 1603.85 726.64ZM1488.62 809.231C1489.24 881.608 1489.12 887.213 1487.13 889.456C1485.88 890.826 1484.76 891.698 1484.39 891.324C1483.51 890.328 1482.27 732.495 1483.26 731.623C1483.76 731.125 1485.01 730.875 1486.13 731C1487.75 731.374 1488.12 740.218 1488.62 809.231ZM1081.75 759.652C1082.62 767.375 1085.74 804.373 1086.98 821.813C1087.73 833.523 1087.73 833.896 1084.99 834.768C1083.5 835.267 1081.75 835.142 1081.25 834.519C1080.38 833.647 1077.64 805.992 1074.28 763.389L1073.4 753.174H1077.27C1080.88 753.174 1081.13 753.423 1081.75 759.652ZM983.834 803.252C984.706 804.124 985.329 807.238 985.329 810.352C985.329 813.591 986.823 830.408 988.443 847.849C993.177 895.56 993.551 902.037 991.433 900.792C988.194 898.923 985.329 896.058 985.951 895.31C986.201 894.812 985.702 888.584 984.706 881.483C983.834 874.258 982.712 862.548 982.214 855.323C981.716 848.098 980.595 834.893 979.598 826.048C977.231 804.248 977.356 801.757 980.096 801.757C981.342 801.757 982.962 802.38 983.834 803.252ZM1042.76 887.089C1043.13 889.829 1043.88 900.044 1044.38 909.761C1045.25 928.447 1044.88 929.817 1039.77 925.955C1038.27 924.834 1037.28 920.1 1035.78 905.899C1033.17 880.237 1033.04 881.234 1037.9 881.732C1041.51 882.106 1042.01 882.604 1042.76 887.089Z" fill="#042036"/>
<path d="M998.284 426.048C985.328 431.653 984.332 449.218 996.54 455.447C1005.39 459.931 1014.35 457.813 1018.96 450.09C1027.68 435.889 1013.48 419.445 998.284 426.048Z" fill="#042036"/>
<path d="M1082.75 438.006C1070.79 445.356 1070.79 463.045 1082.75 470.395C1094.58 477.496 1109.91 468.153 1109.91 453.952C1109.91 440.249 1094.21 431.03 1082.75 438.006Z" fill="#042036"/>
</g>
</g>
<path d="M136.919 715.784V737.672C136.983 739.08 137.335 740.136 137.975 740.84C138.679 741.48 139.735 741.896 141.143 742.088L140.855 750.056C135.351 750.056 131.095 748.872 128.087 746.504C122.967 748.872 117.815 750.056 112.631 750.056C103.095 750.056 98.3265 744.968 98.3265 734.792C98.3265 729.928 99.6065 726.408 102.167 724.232C104.791 722.056 108.791 720.744 114.167 720.296L126.551 719.24V715.784C126.551 713.224 125.975 711.432 124.823 710.408C123.735 709.384 122.103 708.872 119.927 708.872C115.831 708.872 110.711 709.128 104.567 709.64L101.495 709.832L101.111 702.44C108.087 700.776 114.487 699.944 120.311 699.944C126.199 699.944 130.423 701.224 132.983 703.784C135.607 706.28 136.919 710.28 136.919 715.784ZM115.415 727.688C110.999 728.072 108.791 730.472 108.791 734.888C108.791 739.304 110.743 741.512 114.647 741.512C117.847 741.512 121.239 741 124.823 739.976L126.551 739.4V726.632L115.415 727.688ZM210.317 681.032V749H199.949V746.504C195.277 748.872 190.989 750.056 187.085 750.056C180.813 750.056 176.205 748.168 173.261 744.392C170.381 740.616 168.941 734.28 168.941 725.384C168.941 716.488 170.541 710.024 173.741 705.992C177.005 701.96 182.061 699.944 188.909 699.944C191.213 699.944 194.861 700.36 199.853 701.192V681.032H210.317ZM198.221 739.016L199.853 738.344V709.928C196.013 709.288 192.461 708.968 189.197 708.968C182.733 708.968 179.501 714.344 179.501 725.096C179.501 730.984 180.237 735.08 181.709 737.384C183.245 739.624 185.645 740.744 188.909 740.744C192.173 740.744 195.277 740.168 198.221 739.016ZM257.168 740.36L259.856 740.072L260.048 747.848C252.752 749.32 246.288 750.056 240.656 750.056C233.552 750.056 228.432 748.104 225.296 744.2C222.224 740.296 220.688 734.056 220.688 725.48C220.688 708.456 227.632 699.944 241.52 699.944C254.96 699.944 261.68 707.272 261.68 721.928L261.008 729.416H231.248C231.312 733.384 232.176 736.296 233.84 738.152C235.504 740.008 238.608 740.936 243.152 740.936C247.696 740.936 252.368 740.744 257.168 740.36ZM251.408 721.352C251.408 716.616 250.64 713.32 249.104 711.464C247.632 709.544 245.104 708.584 241.52 708.584C237.936 708.584 235.312 709.576 233.648 711.56C232.048 713.544 231.216 716.808 231.152 721.352H251.408ZM282.206 749H271.742V701H282.11V703.976C286.782 701.288 291.198 699.944 295.358 699.944C301.758 699.944 306.11 701.768 308.414 705.416C310.782 709 311.966 714.952 311.966 723.272V749H301.598V723.56C301.598 718.376 301.022 714.696 299.87 712.52C298.782 710.344 296.51 709.256 293.054 709.256C289.79 709.256 286.654 709.896 283.646 711.176L282.206 711.752V749ZM326.741 706.184C330.069 702.024 335.573 699.944 343.253 699.944C350.933 699.944 356.405 702.024 359.669 706.184C362.997 710.344 364.661 716.584 364.661 724.904C364.661 733.224 363.061 739.496 359.861 743.72C356.661 747.944 351.125 750.056 343.253 750.056C335.381 750.056 329.845 747.944 326.645 743.72C323.445 739.496 321.845 733.224 321.845 724.904C321.845 716.584 323.477 710.344 326.741 706.184ZM334.613 737.384C336.085 739.944 338.965 741.224 343.253 741.224C347.541 741.224 350.421 739.944 351.893 737.384C353.365 734.824 354.101 730.632 354.101 724.808C354.101 718.984 353.301 714.856 351.701 712.424C350.165 709.992 347.349 708.776 343.253 708.776C339.157 708.776 336.309 709.992 334.709 712.424C333.173 714.856 332.405 718.984 332.405 724.808C332.405 730.632 333.141 734.824 334.613 737.384ZM430.325 740.36L433.013 740.072L433.205 747.848C425.909 749.32 419.445 750.056 413.812 750.056C406.709 750.056 401.589 748.104 398.453 744.2C395.381 740.296 393.845 734.056 393.845 725.48C393.845 708.456 400.789 699.944 414.677 699.944C428.117 699.944 434.837 707.272 434.837 721.928L434.165 729.416H404.405C404.469 733.384 405.333 736.296 406.997 738.152C408.661 740.008 411.765 740.936 416.309 740.936C420.853 740.936 425.525 740.744 430.325 740.36ZM424.565 721.352C424.565 716.616 423.797 713.32 422.261 711.464C420.789 709.544 418.261 708.584 414.677 708.584C411.093 708.584 408.469 709.576 406.805 711.56C405.205 713.544 404.373 716.808 404.309 721.352H424.565ZM462.851 699.944C466.243 699.944 470.243 700.392 474.851 701.288L477.251 701.768L476.867 710.024C471.811 709.512 468.067 709.256 465.635 709.256C460.771 709.256 457.507 710.344 455.843 712.52C454.179 714.696 453.347 718.792 453.347 724.808C453.347 730.824 454.147 734.984 455.747 737.288C457.347 739.592 460.675 740.744 465.731 740.744L476.963 739.976L477.251 748.328C470.787 749.48 465.923 750.056 462.659 750.056C455.363 750.056 450.211 748.104 447.203 744.2C444.259 740.232 442.787 733.768 442.787 724.808C442.787 715.848 444.355 709.48 447.491 705.704C450.627 701.864 455.747 699.944 462.851 699.944ZM489.491 706.184C492.819 702.024 498.323 699.944 506.003 699.944C513.683 699.944 519.155 702.024 522.419 706.184C525.747 710.344 527.411 716.584 527.411 724.904C527.411 733.224 525.811 739.496 522.611 743.72C519.411 747.944 513.875 750.056 506.003 750.056C498.131 750.056 492.595 747.944 489.395 743.72C486.195 739.496 484.595 733.224 484.595 724.904C484.595 716.584 486.227 710.344 489.491 706.184ZM497.363 737.384C498.835 739.944 501.715 741.224 506.003 741.224C510.291 741.224 513.171 739.944 514.643 737.384C516.115 734.824 516.851 730.632 516.851 724.808C516.851 718.984 516.051 714.856 514.451 712.424C512.915 709.992 510.099 708.776 506.003 708.776C501.907 708.776 499.059 709.992 497.459 712.424C495.923 714.856 495.155 718.984 495.155 724.808C495.155 730.632 495.891 734.824 497.363 737.384ZM571.117 710.888C563.565 709.864 558.093 709.352 554.701 709.352C551.309 709.352 548.941 709.768 547.597 710.6C546.317 711.368 545.677 712.616 545.677 714.344C545.677 716.072 546.381 717.288 547.789 717.992C549.261 718.696 552.653 719.528 557.965 720.488C563.341 721.384 567.149 722.824 569.389 724.808C571.629 726.792 572.749 730.312 572.749 735.368C572.749 740.424 571.117 744.136 567.853 746.504C564.653 748.872 559.949 750.056 553.741 750.056C549.837 750.056 544.909 749.512 538.957 748.424L535.981 747.944L536.365 739.208C544.045 740.232 549.581 740.744 552.973 740.744C556.365 740.744 558.765 740.328 560.173 739.496C561.645 738.664 562.381 737.288 562.381 735.368C562.381 733.448 561.677 732.136 560.269 731.432C558.925 730.664 555.629 729.864 550.381 729.032C545.197 728.136 541.389 726.76 538.957 724.904C536.525 723.048 535.309 719.656 535.309 714.728C535.309 709.8 536.973 706.12 540.301 703.688C543.693 701.256 548.013 700.04 553.261 700.04C557.357 700.04 562.381 700.552 568.333 701.576L571.309 702.152L571.117 710.888ZM577.733 701H588.005L598.181 740.072H600.773L610.949 701H621.317L603.077 769.64H592.805L598.565 749H590.309L577.733 701ZM662.054 710.888C654.502 709.864 649.03 709.352 645.638 709.352C642.246 709.352 639.878 709.768 638.534 710.6C637.254 711.368 636.614 712.616 636.614 714.344C636.614 716.072 637.318 717.288 638.726 717.992C640.198 718.696 643.59 719.528 648.902 720.488C654.278 721.384 658.086 722.824 660.326 724.808C662.566 726.792 663.686 730.312 663.686 735.368C663.686 740.424 662.054 744.136 658.79 746.504C655.59 748.872 650.886 750.056 644.678 750.056C640.774 750.056 635.846 749.512 629.894 748.424L626.918 747.944L627.302 739.208C634.982 740.232 640.518 740.744 643.91 740.744C647.302 740.744 649.702 740.328 651.11 739.496C652.582 738.664 653.318 737.288 653.318 735.368C653.318 733.448 652.614 732.136 651.206 731.432C649.862 730.664 646.566 729.864 641.318 729.032C636.134 728.136 632.326 726.76 629.894 724.904C627.462 723.048 626.246 719.656 626.246 714.728C626.246 709.8 627.91 706.12 631.238 703.688C634.63 701.256 638.95 700.04 644.198 700.04C648.294 700.04 653.318 700.552 659.27 701.576L662.246 702.152L662.054 710.888ZM699.566 709.928H686.318V731.048C686.318 734.952 686.606 737.544 687.182 738.824C687.758 740.104 689.23 740.744 691.598 740.744L699.47 740.456L699.95 748.808C695.662 749.64 692.398 750.056 690.158 750.056C684.718 750.056 680.974 748.808 678.926 746.312C676.942 743.816 675.95 739.112 675.95 732.2V709.928H669.806V701H675.95V687.08H686.318V701H699.566V709.928ZM742.325 740.36L745.013 740.072L745.205 747.848C737.909 749.32 731.445 750.056 725.812 750.056C718.709 750.056 713.589 748.104 710.453 744.2C707.381 740.296 705.845 734.056 705.845 725.48C705.845 708.456 712.789 699.944 726.677 699.944C740.117 699.944 746.837 707.272 746.837 721.928L746.165 729.416H716.405C716.469 733.384 717.333 736.296 718.997 738.152C720.661 740.008 723.765 740.936 728.309 740.936C732.853 740.936 737.525 740.744 742.325 740.36ZM736.565 721.352C736.565 716.616 735.797 713.32 734.261 711.464C732.789 709.544 730.261 708.584 726.677 708.584C723.093 708.584 720.469 709.576 718.805 711.56C717.205 713.544 716.373 716.808 716.309 721.352H736.565ZM767.363 749H756.898V701H767.267V703.976C771.811 701.288 775.971 699.944 779.747 699.944C785.315 699.944 789.379 701.512 791.939 704.648C797.763 701.512 803.555 699.944 809.315 699.944C815.075 699.944 819.139 701.736 821.507 705.32C823.875 708.84 825.059 714.824 825.059 723.272V749H814.691V723.56C814.691 718.376 814.147 714.696 813.059 712.52C812.035 710.344 809.859 709.256 806.531 709.256C803.651 709.256 800.547 709.896 797.219 711.176L795.587 711.848C796.099 713.128 796.355 717.224 796.355 724.136V749H785.987V724.328C785.987 718.632 785.475 714.696 784.451 712.52C783.427 710.344 781.187 709.256 777.731 709.256C774.531 709.256 771.555 709.896 768.803 711.176L767.363 711.752V749Z" fill="white"/>
<path d="M136.919 737.672H135.919V737.695L135.92 737.717L136.919 737.672ZM137.975 740.84L137.235 741.513L137.267 741.548L137.302 741.58L137.975 740.84ZM141.143 742.088L142.142 742.124L142.175 741.219L141.278 741.097L141.143 742.088ZM140.855 750.056V751.056H141.819L141.854 750.092L140.855 750.056ZM128.087 746.504L128.705 745.718L128.223 745.339L127.667 745.596L128.087 746.504ZM102.167 724.232L101.528 723.462L101.519 723.47L102.167 724.232ZM114.167 720.296L114.25 721.292L114.251 721.292L114.167 720.296ZM126.551 719.24L126.635 720.236L127.551 720.158V719.24H126.551ZM124.823 710.408L124.137 711.136L124.147 711.146L124.158 711.155L124.823 710.408ZM104.567 709.64L104.629 710.638L104.639 710.637L104.65 710.636L104.567 709.64ZM101.495 709.832L100.496 709.884L100.548 710.893L101.557 710.83L101.495 709.832ZM101.111 702.44L100.878 701.467L100.069 701.66L100.112 702.492L101.111 702.44ZM132.983 703.784L132.275 704.491L132.284 704.5L132.293 704.508L132.983 703.784ZM115.415 727.688L115.501 728.684L115.509 728.683L115.415 727.688ZM124.823 739.976L125.097 740.937L125.118 740.931L125.139 740.925L124.823 739.976ZM126.551 739.4L126.867 740.349L127.551 740.121V739.4H126.551ZM126.551 726.632H127.551V725.533L126.456 725.636L126.551 726.632ZM135.919 715.784V737.672H137.919V715.784H135.919ZM135.92 737.717C135.989 739.25 136.378 740.57 137.235 741.513L138.714 740.167C138.291 739.702 137.976 738.91 137.917 737.627L135.92 737.717ZM137.302 741.58C138.213 742.408 139.492 742.872 141.007 743.079L141.278 741.097C139.977 740.92 139.144 740.552 138.647 740.1L137.302 741.58ZM140.143 742.052L139.855 750.02L141.854 750.092L142.142 742.124L140.143 742.052ZM140.855 749.056C135.479 749.056 131.474 747.898 128.705 745.718L127.468 747.29C130.715 749.846 135.222 751.056 140.855 751.056V749.056ZM127.667 745.596C122.667 747.909 117.657 749.056 112.631 749.056V751.056C117.972 751.056 123.266 749.835 128.506 747.412L127.667 745.596ZM112.631 749.056C108.034 749.056 104.766 747.833 102.632 745.556C100.487 743.267 99.3265 739.741 99.3265 734.792H97.3265C97.3265 740.019 98.5497 744.125 101.173 746.924C103.807 749.735 107.691 751.056 112.631 751.056V749.056ZM99.3265 734.792C99.3265 730.086 100.563 726.907 102.814 724.994L101.519 723.47C98.6496 725.909 97.3265 729.77 97.3265 734.792H99.3265ZM102.805 725.002C105.204 723.012 108.968 721.733 114.25 721.292L114.083 719.299C108.613 719.755 104.377 721.1 101.528 723.462L102.805 725.002ZM114.251 721.292L126.635 720.236L126.466 718.244L114.082 719.3L114.251 721.292ZM127.551 719.24V715.784H125.551V719.24H127.551ZM127.551 715.784C127.551 713.12 126.958 710.969 125.487 709.661L124.158 711.155C124.991 711.895 125.551 713.327 125.551 715.784H127.551ZM125.508 709.68C124.165 708.416 122.242 707.872 119.927 707.872V709.872C121.963 709.872 123.304 710.352 124.137 711.136L125.508 709.68ZM119.927 707.872C115.793 707.872 110.643 708.13 104.483 708.643L104.65 710.636C110.778 710.126 115.868 709.872 119.927 709.872V707.872ZM104.504 708.642L101.432 708.834L101.557 710.83L104.629 710.638L104.504 708.642ZM102.493 709.78L102.109 702.388L100.112 702.492L100.496 709.884L102.493 709.78ZM101.343 703.413C108.259 701.763 114.58 700.944 120.311 700.944V698.944C114.393 698.944 107.914 699.789 100.878 701.467L101.343 703.413ZM120.311 700.944C126.092 700.944 129.991 702.207 132.275 704.491L133.69 703.077C130.854 700.241 126.305 698.944 120.311 698.944V700.944ZM132.293 704.508C134.636 706.737 135.919 710.413 135.919 715.784H137.919C137.919 710.147 136.577 705.823 133.672 703.059L132.293 704.508ZM115.328 726.692C112.962 726.897 111.036 727.658 109.711 729.099C108.384 730.541 107.791 732.519 107.791 734.888H109.791C109.791 732.841 110.301 731.411 111.182 730.453C112.065 729.494 113.451 728.862 115.501 728.684L115.328 726.692ZM107.791 734.888C107.791 737.222 108.304 739.159 109.505 740.518C110.728 741.901 112.506 742.512 114.647 742.512V740.512C112.883 740.512 111.733 740.019 111.004 739.194C110.253 738.345 109.791 736.97 109.791 734.888H107.791ZM114.647 742.512C117.953 742.512 121.438 741.983 125.097 740.937L124.548 739.014C121.039 740.017 117.74 740.512 114.647 740.512V742.512ZM125.139 740.925L126.867 740.349L126.234 738.451L124.506 739.027L125.139 740.925ZM127.551 739.4V726.632H125.551V739.4H127.551ZM126.456 725.636L115.32 726.692L115.509 728.683L126.645 727.627L126.456 725.636ZM210.317 681.032H211.317V680.032H210.317V681.032ZM210.317 749V750H211.317V749H210.317ZM199.949 749H198.949V750H199.949V749ZM199.949 746.504H200.949V744.876L199.496 745.612L199.949 746.504ZM173.261 744.392L172.465 744.998L172.472 745.007L173.261 744.392ZM173.741 705.992L172.963 705.363L172.957 705.37L173.741 705.992ZM199.853 701.192L199.688 702.178L200.853 702.372V701.192H199.853ZM199.853 681.032V680.032H198.853V681.032H199.853ZM198.221 739.016L198.585 739.947L198.593 739.944L198.601 739.941L198.221 739.016ZM199.853 738.344L200.233 739.269L200.853 739.014V738.344H199.853ZM199.853 709.928H200.853V709.081L200.017 708.942L199.853 709.928ZM181.709 737.384L180.866 737.922L180.875 737.936L180.884 737.949L181.709 737.384ZM209.317 681.032V749H211.317V681.032H209.317ZM210.317 748H199.949V750H210.317V748ZM200.949 749V746.504H198.949V749H200.949ZM199.496 745.612C194.919 747.932 190.787 749.056 187.085 749.056V751.056C191.19 751.056 195.634 749.812 200.401 747.396L199.496 745.612ZM187.085 749.056C181.017 749.056 176.748 747.239 174.049 743.777L172.472 745.007C175.661 749.097 180.608 751.056 187.085 751.056V749.056ZM174.056 743.785C171.382 740.281 169.941 734.226 169.941 725.384H167.941C167.941 734.334 169.379 740.951 172.465 744.998L174.056 743.785ZM169.941 725.384C169.941 716.565 171.535 710.38 174.524 706.614L172.957 705.37C169.546 709.668 167.941 716.41 167.941 725.384H169.941ZM174.518 706.621C177.535 702.894 182.259 700.944 188.909 700.944V698.944C181.862 698.944 176.474 701.026 172.963 705.363L174.518 706.621ZM188.909 700.944C191.124 700.944 194.702 701.347 199.688 702.178L200.017 700.206C195.019 699.373 191.301 698.944 188.909 698.944V700.944ZM200.853 701.192V681.032H198.853V701.192H200.853ZM199.853 682.032H210.317V680.032H199.853V682.032ZM198.601 739.941L200.233 739.269L199.472 737.419L197.84 738.091L198.601 739.941ZM200.853 738.344V709.928H198.853V738.344H200.853ZM200.017 708.942C196.133 708.294 192.525 707.968 189.197 707.968V709.968C192.396 709.968 195.892 710.282 199.688 710.914L200.017 708.942ZM189.197 707.968C185.627 707.968 182.871 709.485 181.067 712.485C179.313 715.403 178.501 719.652 178.501 725.096H180.501C180.501 719.788 181.304 715.973 182.782 713.515C184.21 711.139 186.302 709.968 189.197 709.968V707.968ZM178.501 725.096C178.501 731 179.226 735.356 180.866 737.922L182.551 736.846C181.247 734.804 180.501 730.968 180.501 725.096H178.501ZM180.884 737.949C182.645 740.519 185.391 741.744 188.909 741.744V739.744C185.898 739.744 183.844 738.729 182.533 736.818L180.884 737.949ZM188.909 741.744C192.293 741.744 195.521 741.146 198.585 739.947L197.856 738.085C195.032 739.19 192.052 739.744 188.909 739.744V741.744ZM257.168 740.36L257.248 741.357L257.261 741.356L257.275 741.354L257.168 740.36ZM259.856 740.072L260.856 740.047L260.829 738.962L259.75 739.078L259.856 740.072ZM260.048 747.848L260.246 748.828L261.069 748.662L261.048 747.823L260.048 747.848ZM225.296 744.2L224.51 744.818L224.517 744.826L225.296 744.2ZM261.68 721.928L262.676 722.017L262.68 721.973V721.928H261.68ZM261.008 729.416V730.416H261.923L262.004 729.505L261.008 729.416ZM231.248 729.416V728.416H230.232L230.248 729.432L231.248 729.416ZM233.84 738.152L233.096 738.819L233.096 738.819L233.84 738.152ZM251.408 721.352V722.352H252.408V721.352H251.408ZM249.104 711.464L248.311 712.072L248.322 712.087L248.334 712.102L249.104 711.464ZM233.648 711.56L232.882 710.917L232.876 710.925L232.87 710.932L233.648 711.56ZM231.152 721.352L230.152 721.338L230.138 722.352H231.152V721.352ZM257.275 741.354L259.963 741.066L259.75 739.078L257.062 739.366L257.275 741.354ZM258.857 740.097L259.049 747.873L261.048 747.823L260.856 740.047L258.857 740.097ZM259.85 746.868C252.6 748.33 246.205 749.056 240.656 749.056V751.056C246.372 751.056 252.904 750.309 260.246 748.828L259.85 746.868ZM240.656 749.056C233.722 749.056 228.952 747.154 226.076 743.574L224.517 744.826C227.912 749.054 233.382 751.056 240.656 751.056V749.056ZM226.082 743.582C223.218 739.942 221.688 733.978 221.688 725.48H219.688C219.688 734.133 221.23 740.65 224.51 744.818L226.082 743.582ZM221.688 725.48C221.688 717.078 223.406 710.963 226.671 706.96C229.905 702.996 234.79 700.944 241.52 700.944V698.944C234.362 698.944 228.832 701.147 225.121 705.696C221.443 710.205 219.688 716.858 219.688 725.48H221.688ZM241.52 700.944C248.063 700.944 252.792 702.724 255.903 706.116C259.029 709.524 260.68 714.734 260.68 721.928H262.68C262.68 714.466 260.971 708.683 257.377 704.764C253.768 700.828 248.418 698.944 241.52 698.944V700.944ZM260.684 721.839L260.012 729.327L262.004 729.505L262.676 722.017L260.684 721.839ZM261.008 728.416H231.248V730.416H261.008V728.416ZM230.248 729.432C230.314 733.506 231.199 736.704 233.096 738.819L234.585 737.484C233.153 735.888 232.31 733.262 232.248 729.4L230.248 729.432ZM233.096 738.819C235.057 741.007 238.54 741.936 243.152 741.936V739.936C238.677 739.936 235.952 739.009 234.585 737.484L233.096 738.819ZM243.152 741.936C247.724 741.936 252.423 741.743 257.248 741.357L257.089 739.363C252.313 739.745 247.668 739.936 243.152 739.936V741.936ZM252.408 721.352C252.408 716.575 251.647 712.968 249.875 710.826L248.334 712.102C249.633 713.672 250.408 716.657 250.408 721.352H252.408ZM249.898 710.856C248.159 708.587 245.26 707.584 241.52 707.584V709.584C244.949 709.584 247.106 710.501 248.311 712.072L249.898 710.856ZM241.52 707.584C237.76 707.584 234.801 708.629 232.882 710.917L234.414 712.203C235.823 710.523 238.113 709.584 241.52 709.584V707.584ZM232.87 710.932C231.056 713.181 230.217 716.726 230.152 721.338L232.152 721.366C232.215 716.89 233.041 713.906 234.427 712.188L232.87 710.932ZM231.152 722.352H251.408V720.352H231.152V722.352ZM282.206 749V750H283.206V749H282.206ZM271.742 749H270.742V750H271.742V749ZM271.742 701V700H270.742V701H271.742ZM282.11 701H283.11V700H282.11V701ZM282.11 703.976H281.11V705.705L282.609 704.843L282.11 703.976ZM308.414 705.416L307.569 705.95L307.574 705.959L307.58 705.967L308.414 705.416ZM311.966 749V750H312.966V749H311.966ZM301.598 749H300.598V750H301.598V749ZM299.87 712.52L298.976 712.967L298.981 712.978L298.986 712.988L299.87 712.52ZM283.646 711.176L284.018 712.104L284.028 712.1L284.038 712.096L283.646 711.176ZM282.206 711.752L281.835 710.823L281.206 711.075V711.752H282.206ZM282.206 748H271.742V750H282.206V748ZM272.742 749V701H270.742V749H272.742ZM271.742 702H282.11V700H271.742V702ZM281.11 701V703.976H283.11V701H281.11ZM282.609 704.843C287.173 702.217 291.418 700.944 295.358 700.944V698.944C290.979 698.944 286.391 700.359 281.612 703.109L282.609 704.843ZM295.358 700.944C301.593 700.944 305.526 702.716 307.569 705.95L309.26 704.882C306.694 700.82 301.923 698.944 295.358 698.944V700.944ZM307.58 705.967C309.778 709.294 310.966 714.994 310.966 723.272H312.966C312.966 714.91 311.786 708.705 309.249 704.865L307.58 705.967ZM310.966 723.272V749H312.966V723.272H310.966ZM311.966 748H301.598V750H311.966V748ZM302.598 749V723.56H300.598V749H302.598ZM302.598 723.56C302.598 718.355 302.029 714.46 300.754 712.052L298.986 712.988C300.016 714.932 300.598 718.397 300.598 723.56H302.598ZM300.765 712.073C299.439 709.421 296.707 708.256 293.054 708.256V710.256C296.313 710.256 298.126 711.267 298.976 712.967L300.765 712.073ZM293.054 708.256C289.655 708.256 286.386 708.923 283.255 710.256L284.038 712.096C286.922 710.869 289.925 710.256 293.054 710.256V708.256ZM283.275 710.247L281.835 710.823L282.578 712.68L284.018 712.104L283.275 710.247ZM281.206 711.752V749H283.206V711.752H281.206ZM326.741 706.184L325.96 705.559L325.954 705.567L326.741 706.184ZM359.669 706.184L358.882 706.801L358.888 706.809L359.669 706.184ZM359.861 743.72L359.063 743.116L359.861 743.72ZM326.645 743.72L327.442 743.116L327.442 743.116L326.645 743.72ZM351.701 712.424L350.855 712.958L350.86 712.966L350.865 712.974L351.701 712.424ZM334.709 712.424L333.873 711.874L333.868 711.882L333.863 711.89L334.709 712.424ZM327.521 706.809C330.587 702.977 335.737 700.944 343.253 700.944V698.944C335.408 698.944 329.55 701.071 325.96 705.559L327.521 706.809ZM343.253 700.944C350.77 700.944 355.882 702.977 358.882 706.801L360.455 705.567C356.927 701.07 351.095 698.944 343.253 698.944V700.944ZM358.888 706.809C362.013 710.716 363.661 716.691 363.661 724.904H365.661C365.661 716.477 363.98 709.972 360.449 705.559L358.888 706.809ZM363.661 724.904C363.661 733.122 362.076 739.14 359.063 743.116L360.658 744.324C364.045 739.852 365.661 733.326 365.661 724.904H363.661ZM359.063 743.116C356.131 746.987 350.969 749.056 343.253 749.056V751.056C351.28 751.056 357.19 748.901 360.658 744.324L359.063 743.116ZM343.253 749.056C335.536 749.056 330.374 746.987 327.442 743.116L325.847 744.324C329.315 748.901 335.225 751.056 343.253 751.056V749.056ZM327.442 743.116C324.429 739.14 322.845 733.122 322.845 724.904H320.845C320.845 733.326 322.46 739.852 325.847 744.324L327.442 743.116ZM322.845 724.904C322.845 716.687 324.461 710.709 327.527 706.801L325.954 705.567C322.492 709.978 320.845 716.48 320.845 724.904H322.845ZM333.746 737.882C335.47 740.881 338.785 742.224 343.253 742.224V740.224C339.144 740.224 336.699 739.007 335.479 736.885L333.746 737.882ZM343.253 742.224C347.72 742.224 351.035 740.881 352.759 737.882L351.026 736.885C349.806 739.007 347.361 740.224 343.253 740.224V742.224ZM352.759 737.882C354.369 735.084 355.101 730.667 355.101 724.808H353.101C353.101 730.597 352.36 734.564 351.026 736.885L352.759 737.882ZM355.101 724.808C355.101 718.95 354.307 714.566 352.536 711.874L350.865 712.974C352.294 715.146 353.101 719.018 353.101 724.808H355.101ZM352.546 711.89C350.756 709.055 347.533 707.776 343.253 707.776V709.776C347.164 709.776 349.573 710.929 350.855 712.958L352.546 711.89ZM343.253 707.776C338.969 707.776 335.727 709.056 333.873 711.874L335.544 712.974C336.89 710.928 339.344 709.776 343.253 709.776V707.776ZM333.863 711.89C332.166 714.577 331.405 718.953 331.405 724.808H333.405C333.405 719.015 334.179 715.135 335.554 712.958L333.863 711.89ZM331.405 724.808C331.405 730.667 332.136 735.084 333.746 737.882L335.479 736.885C334.145 734.564 333.405 730.597 333.405 724.808H331.405ZM430.325 740.36L430.404 741.357L430.418 741.356L430.431 741.354L430.325 740.36ZM433.013 740.072L434.012 740.047L433.985 738.962L432.906 739.078L433.013 740.072ZM433.205 747.848L433.402 748.828L434.225 748.662L434.204 747.823L433.205 747.848ZM398.453 744.2L397.667 744.818L397.673 744.826L398.453 744.2ZM434.837 721.928L435.832 722.017L435.837 721.973V721.928H434.837ZM434.165 729.416V730.416H435.079L435.16 729.505L434.165 729.416ZM404.405 729.416V728.416H403.388L403.405 729.432L404.405 729.416ZM406.997 738.152L406.252 738.819L406.252 738.819L406.997 738.152ZM424.565 721.352V722.352H425.565V721.352H424.565ZM422.261 711.464L421.467 712.072L421.478 712.087L421.49 712.102L422.261 711.464ZM406.805 711.56L406.038 710.917L406.032 710.925L406.026 710.932L406.805 711.56ZM404.309 721.352L403.309 721.338L403.294 722.352H404.309V721.352ZM430.431 741.354L433.119 741.066L432.906 739.078L430.218 739.366L430.431 741.354ZM432.013 740.097L432.205 747.873L434.204 747.823L434.012 740.047L432.013 740.097ZM433.007 746.868C425.756 748.33 419.361 749.056 413.812 749.056V751.056C419.528 751.056 426.061 750.309 433.402 748.828L433.007 746.868ZM413.812 749.056C406.879 749.056 402.108 747.154 399.232 743.574L397.673 744.826C401.069 749.054 406.538 751.056 413.812 751.056V749.056ZM399.238 743.582C396.375 739.942 394.845 733.978 394.845 725.48H392.845C392.845 734.133 394.386 740.65 397.667 744.818L399.238 743.582ZM394.845 725.48C394.845 717.078 396.562 710.963 399.827 706.96C403.061 702.996 407.947 700.944 414.677 700.944V698.944C407.518 698.944 401.988 701.147 398.278 705.696C394.599 710.205 392.845 716.858 392.845 725.48H394.845ZM414.677 700.944C421.219 700.944 425.949 702.724 429.059 706.116C432.185 709.524 433.837 714.734 433.837 721.928H435.837C435.837 714.466 434.128 708.683 430.534 704.764C426.924 700.828 421.574 698.944 414.677 698.944V700.944ZM433.841 721.839L433.169 729.327L435.16 729.505L435.832 722.017L433.841 721.839ZM434.165 728.416H404.405V730.416H434.165V728.416ZM403.405 729.432C403.47 733.506 404.356 736.704 406.252 738.819L407.741 737.484C406.309 735.888 405.467 733.262 405.404 729.4L403.405 729.432ZM406.252 738.819C408.213 741.007 411.696 741.936 416.309 741.936V739.936C411.833 739.936 409.108 739.009 407.741 737.484L406.252 738.819ZM416.309 741.936C420.881 741.936 425.579 741.743 430.404 741.357L430.245 739.363C425.47 739.745 420.824 739.936 416.309 739.936V741.936ZM425.565 721.352C425.565 716.575 424.803 712.968 423.031 710.826L421.49 712.102C422.79 713.672 423.565 716.657 423.565 721.352H425.565ZM423.054 710.856C421.315 708.587 418.416 707.584 414.677 707.584V709.584C418.105 709.584 420.262 710.501 421.467 712.072L423.054 710.856ZM414.677 707.584C410.916 707.584 407.957 708.629 406.038 710.917L407.571 712.203C408.98 710.523 411.269 709.584 414.677 709.584V707.584ZM406.026 710.932C404.212 713.181 403.374 716.726 403.309 721.338L405.308 721.366C405.371 716.89 406.197 713.906 407.583 712.188L406.026 710.932ZM404.309 722.352H424.565V720.352H404.309V722.352ZM474.851 701.288L475.047 700.307L475.041 700.306L474.851 701.288ZM477.251 701.768L478.249 701.814L478.289 700.956L477.447 700.787L477.251 701.768ZM476.867 710.024L476.766 711.019L477.816 711.125L477.865 710.07L476.867 710.024ZM455.843 712.52L455.048 711.912L455.048 711.912L455.843 712.52ZM455.747 737.288L454.925 737.858L454.925 737.858L455.747 737.288ZM465.731 740.744V741.744H465.765L465.799 741.742L465.731 740.744ZM476.963 739.976L477.962 739.941L477.926 738.908L476.894 738.978L476.963 739.976ZM477.251 748.328L477.426 749.312L478.28 749.16L478.25 748.293L477.251 748.328ZM447.203 744.2L446.399 744.796L446.405 744.803L446.41 744.81L447.203 744.2ZM447.491 705.704L448.26 706.343L448.265 706.336L447.491 705.704ZM462.851 700.944C466.159 700.944 470.092 701.381 474.66 702.27L475.041 700.306C470.393 699.402 466.326 698.944 462.851 698.944V700.944ZM474.654 702.269L477.054 702.749L477.447 700.787L475.047 700.307L474.654 702.269ZM476.252 701.721L475.868 709.977L477.865 710.07L478.249 701.814L476.252 701.721ZM476.967 709.029C471.906 708.516 468.12 708.256 465.635 708.256V710.256C468.013 710.256 471.715 710.507 476.766 711.019L476.967 709.029ZM465.635 708.256C460.691 708.256 457.008 709.35 455.048 711.912L456.637 713.127C458.005 711.338 460.85 710.256 465.635 710.256V708.256ZM455.048 711.912C454.088 713.167 453.422 714.899 452.991 717.025C452.557 719.16 452.347 721.76 452.347 724.808H454.347C454.347 721.84 454.552 719.384 454.95 717.423C455.351 715.453 455.933 714.048 456.637 713.127L455.048 711.912ZM452.347 724.808C452.347 730.841 453.135 735.28 454.925 737.858L456.568 736.718C455.158 734.687 454.347 730.807 454.347 724.808H452.347ZM454.925 737.858C456.821 740.588 460.601 741.744 465.731 741.744V739.744C460.748 739.744 457.872 738.595 456.568 736.718L454.925 737.858ZM465.799 741.742L477.031 740.974L476.894 738.978L465.662 739.746L465.799 741.742ZM475.963 740.01L476.251 748.362L478.25 748.293L477.962 739.941L475.963 740.01ZM477.075 747.343C470.623 748.493 465.831 749.056 462.659 749.056V751.056C466.014 751.056 470.95 750.467 477.426 749.312L477.075 747.343ZM462.659 749.056C455.518 749.056 450.736 747.147 447.995 743.59L446.41 744.81C449.685 749.061 455.207 751.056 462.659 751.056V749.056ZM448.006 743.604C445.258 739.9 443.787 733.706 443.787 724.808H441.787C441.787 733.83 443.259 740.564 446.399 744.796L448.006 743.604ZM443.787 724.808C443.787 715.911 445.354 709.842 448.26 706.343L446.721 705.065C443.355 709.118 441.787 715.785 441.787 724.808H443.787ZM448.265 706.336C451.14 702.817 455.912 700.944 462.851 700.944V698.944C455.581 698.944 450.113 700.911 446.716 705.071L448.265 706.336ZM489.491 706.184L488.71 705.559L488.704 705.567L489.491 706.184ZM522.419 706.184L521.632 706.801L521.638 706.809L522.419 706.184ZM522.611 743.72L521.813 743.116L522.611 743.72ZM489.395 743.72L490.192 743.116L490.192 743.116L489.395 743.72ZM514.451 712.424L513.605 712.958L513.61 712.966L513.615 712.974L514.451 712.424ZM497.459 712.424L496.623 711.874L496.618 711.882L496.613 711.89L497.459 712.424ZM490.271 706.809C493.337 702.977 498.487 700.944 506.003 700.944V698.944C498.158 698.944 492.3 701.071 488.71 705.559L490.271 706.809ZM506.003 700.944C513.52 700.944 518.632 702.977 521.632 706.801L523.205 705.567C519.677 701.07 513.845 698.944 506.003 698.944V700.944ZM521.638 706.809C524.763 710.716 526.411 716.691 526.411 724.904H528.411C528.411 716.477 526.73 709.972 523.199 705.559L521.638 706.809ZM526.411 724.904C526.411 733.122 524.826 739.14 521.813 743.116L523.408 744.324C526.795 739.852 528.411 733.326 528.411 724.904H526.411ZM521.813 743.116C518.881 746.987 513.719 749.056 506.003 749.056V751.056C514.03 751.056 519.94 748.901 523.408 744.324L521.813 743.116ZM506.003 749.056C498.286 749.056 493.124 746.987 490.192 743.116L488.597 744.324C492.065 748.901 497.975 751.056 506.003 751.056V749.056ZM490.192 743.116C487.179 739.14 485.595 733.122 485.595 724.904H483.595C483.595 733.326 485.21 739.852 488.597 744.324L490.192 743.116ZM485.595 724.904C485.595 716.687 487.211 710.709 490.277 706.801L488.704 705.567C485.242 709.978 483.595 716.48 483.595 724.904H485.595ZM496.496 737.882C498.22 740.881 501.535 742.224 506.003 742.224V740.224C501.894 740.224 499.449 739.007 498.229 736.885L496.496 737.882ZM506.003 742.224C510.47 742.224 513.785 740.881 515.509 737.882L513.776 736.885C512.556 739.007 510.111 740.224 506.003 740.224V742.224ZM515.509 737.882C517.119 735.084 517.851 730.667 517.851 724.808H515.851C515.851 730.597 515.11 734.564 513.776 736.885L515.509 737.882ZM517.851 724.808C517.851 718.95 517.057 714.566 515.286 711.874L513.615 712.974C515.044 715.146 515.851 719.018 515.851 724.808H517.851ZM515.296 711.89C513.506 709.055 510.283 707.776 506.003 707.776V709.776C509.914 709.776 512.323 710.929 513.605 712.958L515.296 711.89ZM506.003 707.776C501.719 707.776 498.477 709.056 496.623 711.874L498.294 712.974C499.64 710.928 502.094 709.776 506.003 709.776V707.776ZM496.613 711.89C494.916 714.577 494.155 718.953 494.155 724.808H496.155C496.155 719.015 496.929 715.135 498.304 712.958L496.613 711.89ZM494.155 724.808C494.155 730.667 494.886 735.084 496.496 737.882L498.229 736.885C496.895 734.564 496.155 730.597 496.155 724.808H494.155ZM571.117 710.888L570.982 711.879L572.092 712.029L572.117 710.91L571.117 710.888ZM547.597 710.6L548.111 711.458L548.123 711.45L547.597 710.6ZM547.789 717.992L547.342 718.886L547.349 718.89L547.357 718.894L547.789 717.992ZM557.965 720.488L557.787 721.472L557.8 721.474L557.965 720.488ZM569.389 724.808L568.726 725.557L568.726 725.557L569.389 724.808ZM567.853 746.504L567.265 745.694L567.258 745.7L567.853 746.504ZM538.957 748.424L539.137 747.44L539.126 747.438L539.116 747.437L538.957 748.424ZM535.981 747.944L534.982 747.9L534.943 748.789L535.822 748.931L535.981 747.944ZM536.365 739.208L536.497 738.217L535.414 738.072L535.366 739.164L536.365 739.208ZM560.173 739.496L559.681 738.625L559.672 738.63L559.664 738.635L560.173 739.496ZM560.269 731.432L559.773 732.3L559.797 732.314L559.822 732.326L560.269 731.432ZM550.381 729.032L550.21 730.017L550.224 730.02L550.381 729.032ZM538.957 724.904L539.563 724.109L539.563 724.109L538.957 724.904ZM540.301 703.688L539.718 702.875L539.711 702.881L540.301 703.688ZM568.333 701.576L568.523 700.594L568.513 700.592L568.502 700.59L568.333 701.576ZM571.309 702.152L572.309 702.174L572.327 701.33L571.499 701.17L571.309 702.152ZM571.251 709.897C563.695 708.873 558.166 708.352 554.701 708.352V710.352C558.02 710.352 563.434 710.855 570.982 711.879L571.251 709.897ZM554.701 708.352C551.292 708.352 548.672 708.758 547.07 709.75L548.123 711.45C549.21 710.778 551.326 710.352 554.701 710.352V708.352ZM547.082 709.742C545.449 710.723 544.677 712.33 544.677 714.344H546.677C546.677 712.902 547.185 712.013 548.111 711.457L547.082 709.742ZM544.677 714.344C544.677 715.344 544.881 716.261 545.339 717.053C545.801 717.85 546.484 718.458 547.342 718.886L548.236 717.098C547.685 716.822 547.313 716.47 547.07 716.051C546.824 715.627 546.677 715.072 546.677 714.344H544.677ZM547.357 718.894C548.192 719.293 549.493 719.697 551.199 720.115C552.922 720.538 555.12 720.99 557.787 721.472L558.143 719.504C555.497 719.026 553.343 718.582 551.675 718.173C549.988 717.759 548.857 717.394 548.22 717.09L547.357 718.894ZM557.8 721.474C563.122 722.361 566.7 723.763 568.726 725.557L570.052 724.059C567.597 721.885 563.56 720.407 558.129 719.502L557.8 721.474ZM568.726 725.557C570.642 727.254 571.749 730.409 571.749 735.368H573.749C573.749 730.215 572.616 726.33 570.052 724.059L568.726 725.557ZM571.749 735.368C571.749 740.194 570.205 743.562 567.266 745.695L568.44 747.313C572.029 744.71 573.749 740.654 573.749 735.368H571.749ZM567.258 745.7C564.302 747.887 559.847 749.056 553.741 749.056V751.056C560.051 751.056 565.003 749.857 568.448 747.308L567.258 745.7ZM553.741 749.056C549.92 749.056 545.058 748.523 539.137 747.44L538.777 749.408C544.76 750.501 549.753 751.056 553.741 751.056V749.056ZM539.116 747.437L536.14 746.957L535.822 748.931L538.798 749.411L539.116 747.437ZM536.98 747.988L537.364 739.252L535.366 739.164L534.982 747.9L536.98 747.988ZM536.233 740.199C543.915 741.224 549.509 741.744 552.973 741.744V739.744C549.653 739.744 544.174 739.24 536.497 738.217L536.233 740.199ZM552.973 741.744C556.389 741.744 559.026 741.335 560.681 740.357L559.664 738.635C558.504 739.321 556.34 739.744 552.973 739.744V741.744ZM560.665 740.367C562.499 739.33 563.381 737.59 563.381 735.368H561.381C561.381 736.986 560.791 737.998 559.681 738.625L560.665 740.367ZM563.381 735.368C563.381 734.289 563.183 733.309 562.734 732.471C562.279 731.622 561.593 730.976 560.716 730.538L559.822 732.326C560.352 732.592 560.723 732.953 560.972 733.417C561.226 733.891 561.381 734.527 561.381 735.368H563.381ZM560.765 730.564C559.961 730.104 558.682 729.686 557.025 729.284C555.34 728.875 553.175 728.462 550.537 728.044L550.224 730.02C552.835 730.433 554.941 730.837 556.553 731.228C558.192 731.625 559.232 731.991 559.773 732.3L560.765 730.564ZM550.551 728.047C545.427 727.161 541.806 725.821 539.563 724.109L538.35 725.699C540.971 727.699 544.967 729.111 550.21 730.017L550.551 728.047ZM539.563 724.109C537.499 722.534 536.309 719.535 536.309 714.728H534.309C534.309 719.777 535.55 723.562 538.35 725.699L539.563 724.109ZM536.309 714.728C536.309 710.048 537.873 706.701 540.891 704.495L539.711 702.881C536.073 705.539 534.309 709.551 534.309 714.728H536.309ZM540.883 704.501C544.066 702.219 548.168 701.04 553.261 701.04V699.04C547.858 699.04 543.319 700.293 539.718 702.875L540.883 704.501ZM553.261 701.04C557.28 701.04 562.244 701.543 568.163 702.561L568.502 700.59C562.518 699.561 557.433 699.04 553.261 699.04V701.04ZM568.143 702.558L571.119 703.134L571.499 701.17L568.523 700.594L568.143 702.558ZM570.309 702.13L570.117 710.866L572.117 710.91L572.309 702.174L570.309 702.13ZM577.733 701V700H576.437L576.765 701.253L577.733 701ZM588.005 701L588.972 700.748L588.777 700H588.005V701ZM598.181 740.072L597.213 740.324L597.408 741.072H598.181V740.072ZM600.773 740.072V741.072H601.545L601.74 740.324L600.773 740.072ZM610.949 701V700H610.176L609.981 700.748L610.949 701ZM621.317 701L622.283 701.257L622.617 700H621.317V701ZM603.077 769.64V770.64H603.845L604.043 769.897L603.077 769.64ZM592.805 769.64L591.841 769.371L591.487 770.64H592.805V769.64ZM598.565 749L599.528 749.269L599.882 748H598.565V749ZM590.309 749L589.341 749.253L589.537 750H590.309V749ZM577.733 702H588.005V700H577.733V702ZM587.037 701.252L597.213 740.324L599.148 739.82L588.972 700.748L587.037 701.252ZM598.181 741.072H600.773V739.072H598.181V741.072ZM601.74 740.324L611.916 701.252L609.981 700.748L599.805 739.82L601.74 740.324ZM610.949 702H621.317V700H610.949V702ZM620.35 700.743L602.11 769.383L604.043 769.897L622.283 701.257L620.35 700.743ZM603.077 768.64H592.805V770.64H603.077V768.64ZM593.768 769.909L599.528 749.269L597.601 748.731L591.841 769.371L593.768 769.909ZM598.565 748H590.309V750H598.565V748ZM591.276 748.746L578.7 700.746L576.765 701.253L589.341 749.253L591.276 748.746ZM662.054 710.888L661.92 711.879L663.029 712.029L663.054 710.91L662.054 710.888ZM638.534 710.6L639.049 711.458L639.061 711.45L638.534 710.6ZM638.726 717.992L638.279 718.886L638.287 718.89L638.295 718.894L638.726 717.992ZM648.902 720.488L648.724 721.472L648.738 721.474L648.902 720.488ZM660.326 724.808L659.663 725.557L659.663 725.557L660.326 724.808ZM658.79 746.504L658.203 745.694L658.195 745.7L658.79 746.504ZM629.894 748.424L630.074 747.44L630.064 747.438L630.053 747.437L629.894 748.424ZM626.918 747.944L625.919 747.9L625.88 748.789L626.759 748.931L626.918 747.944ZM627.302 739.208L627.434 738.217L626.351 738.072L626.303 739.164L627.302 739.208ZM651.11 739.496L650.618 738.625L650.61 738.63L650.602 738.635L651.11 739.496ZM651.206 731.432L650.71 732.3L650.734 732.314L650.759 732.326L651.206 731.432ZM641.318 729.032L641.148 730.017L641.162 730.02L641.318 729.032ZM629.894 724.904L630.501 724.109L630.501 724.109L629.894 724.904ZM631.238 703.688L630.656 702.875L630.648 702.881L631.238 703.688ZM659.27 701.576L659.46 700.594L659.45 700.592L659.44 700.59L659.27 701.576ZM662.246 702.152L663.246 702.174L663.265 701.33L662.436 701.17L662.246 702.152ZM662.189 709.897C654.633 708.873 649.103 708.352 645.638 708.352V710.352C648.957 710.352 654.372 710.855 661.92 711.879L662.189 709.897ZM645.638 708.352C642.229 708.352 639.609 708.758 638.008 709.75L639.061 711.45C640.147 710.778 642.263 710.352 645.638 710.352V708.352ZM638.02 709.742C636.386 710.723 635.614 712.33 635.614 714.344H637.614C637.614 712.902 638.122 712.013 639.049 711.457L638.02 709.742ZM635.614 714.344C635.614 715.344 635.819 716.261 636.277 717.053C636.738 717.85 637.422 718.458 638.279 718.886L639.173 717.098C638.623 716.822 638.25 716.47 638.008 716.051C637.762 715.627 637.614 715.072 637.614 714.344H635.614ZM638.295 718.894C639.13 719.293 640.431 719.697 642.136 720.115C643.86 720.538 646.058 720.99 648.724 721.472L649.08 719.504C646.435 719.026 644.281 718.582 642.612 718.173C640.926 717.759 639.795 717.394 639.158 717.09L638.295 718.894ZM648.738 721.474C654.059 722.361 657.638 723.763 659.663 725.557L660.989 724.059C658.535 721.885 654.497 720.407 649.067 719.502L648.738 721.474ZM659.663 725.557C661.579 727.254 662.686 730.409 662.686 735.368H664.686C664.686 730.215 663.553 726.33 660.989 724.059L659.663 725.557ZM662.686 735.368C662.686 740.194 661.142 743.562 658.203 745.695L659.377 747.313C662.966 744.71 664.686 740.654 664.686 735.368H662.686ZM658.195 745.7C655.24 747.887 650.784 749.056 644.678 749.056V751.056C650.988 751.056 655.941 749.857 659.385 747.308L658.195 745.7ZM644.678 749.056C640.858 749.056 635.995 748.523 630.074 747.44L629.714 749.408C635.697 750.501 640.691 751.056 644.678 751.056V749.056ZM630.053 747.437L627.077 746.957L626.759 748.931L629.735 749.411L630.053 747.437ZM627.917 747.988L628.301 739.252L626.303 739.164L625.919 747.9L627.917 747.988ZM627.17 740.199C634.853 741.224 640.446 741.744 643.91 741.744V739.744C640.59 739.744 635.112 739.24 627.434 738.217L627.17 740.199ZM643.91 741.744C647.327 741.744 649.963 741.335 651.619 740.357L650.602 738.635C649.441 739.321 647.278 739.744 643.91 739.744V741.744ZM651.602 740.367C653.436 739.33 654.318 737.59 654.318 735.368H652.318C652.318 736.986 651.728 737.998 650.618 738.625L651.602 740.367ZM654.318 735.368C654.318 734.289 654.121 733.309 653.671 732.471C653.216 731.622 652.531 730.976 651.653 730.538L650.759 732.326C651.29 732.592 651.66 732.953 651.909 733.417C652.164 733.891 652.318 734.527 652.318 735.368H654.318ZM651.702 730.564C650.899 730.104 649.619 729.686 647.962 729.284C646.278 728.875 644.112 728.462 641.475 728.044L641.162 730.02C643.772 730.433 645.879 730.837 647.49 731.228C649.129 731.625 650.17 731.991 650.71 732.3L651.702 730.564ZM641.489 728.047C636.364 727.161 632.744 725.821 630.501 724.109L629.288 725.699C631.909 727.699 635.904 729.111 641.148 730.017L641.489 728.047ZM630.501 724.109C628.437 722.534 627.246 719.535 627.246 714.728H625.246C625.246 719.777 626.488 723.562 629.288 725.699L630.501 724.109ZM627.246 714.728C627.246 710.048 628.81 706.701 631.828 704.495L630.648 702.881C627.01 705.539 625.246 709.551 625.246 714.728H627.246ZM631.821 704.501C635.004 702.219 639.105 701.04 644.198 701.04V699.04C638.795 699.04 634.257 700.293 630.656 702.875L631.821 704.501ZM644.198 701.04C648.218 701.04 653.181 701.543 659.101 702.561L659.44 700.59C653.455 699.561 648.371 699.04 644.198 699.04V701.04ZM659.08 702.558L662.056 703.134L662.436 701.17L659.46 700.594L659.08 702.558ZM661.246 702.13L661.054 710.866L663.054 710.91L663.246 702.174L661.246 702.13ZM699.566 709.928V710.928H700.566V709.928H699.566ZM686.318 709.928V708.928H685.318V709.928H686.318ZM687.182 738.824L688.094 738.414L688.094 738.414L687.182 738.824ZM691.598 740.744V741.744H691.617L691.635 741.743L691.598 740.744ZM699.47 740.456L700.469 740.399L700.412 739.421L699.434 739.457L699.47 740.456ZM699.95 748.808L700.141 749.79L700.999 749.623L700.949 748.751L699.95 748.808ZM678.926 746.312L678.143 746.934L678.148 746.94L678.153 746.946L678.926 746.312ZM675.95 709.928H676.95V708.928H675.95V709.928ZM669.806 709.928H668.806V710.928H669.806V709.928ZM669.806 701V700H668.806V701H669.806ZM675.95 701V702H676.95V701H675.95ZM675.95 687.08V686.08H674.95V687.08H675.95ZM686.318 687.08H687.318V686.08H686.318V687.08ZM686.318 701H685.318V702H686.318V701ZM699.566 701H700.566V700H699.566V701ZM699.566 708.928H686.318V710.928H699.566V708.928ZM685.318 709.928V731.048H687.318V709.928H685.318ZM685.318 731.048C685.318 733.021 685.391 734.685 685.54 736.03C685.688 737.357 685.917 738.45 686.27 739.234L688.094 738.414C687.871 737.918 687.669 737.075 687.528 735.81C687.39 734.563 687.318 732.979 687.318 731.048H685.318ZM686.27 739.234C687.101 741.079 689.129 741.744 691.598 741.744V739.744C689.332 739.744 688.416 739.129 688.094 738.414L686.27 739.234ZM691.635 741.743L699.507 741.455L699.434 739.457L691.562 739.745L691.635 741.743ZM698.472 740.513L698.952 748.865L700.949 748.751L700.469 740.399L698.472 740.513ZM699.76 747.826C695.487 748.655 692.3 749.056 690.158 749.056V751.056C692.497 751.056 695.837 750.625 700.141 749.79L699.76 747.826ZM690.158 749.056C684.819 749.056 681.46 747.823 679.699 745.678L678.153 746.946C680.489 749.793 684.618 751.056 690.158 751.056V749.056ZM679.709 745.69C678.85 744.609 678.152 742.976 677.673 740.706C677.196 738.444 676.95 735.614 676.95 732.2H674.95C674.95 735.698 675.201 738.676 675.716 741.118C676.229 743.552 677.018 745.519 678.143 746.934L679.709 745.69ZM676.95 732.2V709.928H674.95V732.2H676.95ZM675.95 708.928H669.806V710.928H675.95V708.928ZM670.806 709.928V701H668.806V709.928H670.806ZM669.806 702H675.95V700H669.806V702ZM676.95 701V687.08H674.95V701H676.95ZM675.95 688.08H686.318V686.08H675.95V688.08ZM685.318 687.08V701H687.318V687.08H685.318ZM686.318 702H699.566V700H686.318V702ZM698.566 701V709.928H700.566V701H698.566ZM742.325 740.36L742.404 741.357L742.418 741.356L742.431 741.354L742.325 740.36ZM745.013 740.072L746.012 740.047L745.985 738.962L744.906 739.078L745.013 740.072ZM745.205 747.848L745.402 748.828L746.225 748.662L746.204 747.823L745.205 747.848ZM710.453 744.2L709.667 744.818L709.673 744.826L710.453 744.2ZM746.837 721.928L747.832 722.017L747.837 721.973V721.928H746.837ZM746.165 729.416V730.416H747.079L747.16 729.505L746.165 729.416ZM716.405 729.416V728.416H715.388L715.405 729.432L716.405 729.416ZM718.997 738.152L718.252 738.819L718.252 738.819L718.997 738.152ZM736.565 721.352V722.352H737.565V721.352H736.565ZM734.261 711.464L733.467 712.072L733.478 712.087L733.49 712.102L734.261 711.464ZM718.805 711.56L718.038 710.917L718.032 710.925L718.026 710.932L718.805 711.56ZM716.309 721.352L715.309 721.338L715.294 722.352H716.309V721.352ZM742.431 741.354L745.119 741.066L744.906 739.078L742.218 739.366L742.431 741.354ZM744.013 740.097L744.205 747.873L746.204 747.823L746.012 740.047L744.013 740.097ZM745.007 746.868C737.756 748.33 731.361 749.056 725.812 749.056V751.056C731.528 751.056 738.061 750.309 745.402 748.828L745.007 746.868ZM725.812 749.056C718.879 749.056 714.108 747.154 711.232 743.574L709.673 744.826C713.069 749.054 718.538 751.056 725.812 751.056V749.056ZM711.238 743.582C708.375 739.942 706.845 733.978 706.845 725.48H704.845C704.845 734.133 706.386 740.65 709.667 744.818L711.238 743.582ZM706.845 725.48C706.845 717.078 708.562 710.963 711.827 706.96C715.061 702.996 719.947 700.944 726.677 700.944V698.944C719.518 698.944 713.988 701.147 710.278 705.696C706.599 710.205 704.845 716.858 704.845 725.48H706.845ZM726.677 700.944C733.219 700.944 737.949 702.724 741.059 706.116C744.185 709.524 745.837 714.734 745.837 721.928H747.837C747.837 714.466 746.128 708.683 742.534 704.764C738.924 700.828 733.574 698.944 726.677 698.944V700.944ZM745.841 721.839L745.169 729.327L747.16 729.505L747.832 722.017L745.841 721.839ZM746.165 728.416H716.405V730.416H746.165V728.416ZM715.405 729.432C715.47 733.506 716.356 736.704 718.252 738.819L719.741 737.484C718.309 735.888 717.467 733.262 717.404 729.4L715.405 729.432ZM718.252 738.819C720.213 741.007 723.696 741.936 728.309 741.936V739.936C723.833 739.936 721.108 739.009 719.741 737.484L718.252 738.819ZM728.309 741.936C732.881 741.936 737.579 741.743 742.404 741.357L742.245 739.363C737.47 739.745 732.824 739.936 728.309 739.936V741.936ZM737.565 721.352C737.565 716.575 736.803 712.968 735.031 710.826L733.49 712.102C734.79 713.672 735.565 716.657 735.565 721.352H737.565ZM735.054 710.856C733.315 708.587 730.416 707.584 726.677 707.584V709.584C730.105 709.584 732.262 710.501 733.467 712.072L735.054 710.856ZM726.677 707.584C722.916 707.584 719.957 708.629 718.038 710.917L719.571 712.203C720.98 710.523 723.269 709.584 726.677 709.584V707.584ZM718.026 710.932C716.212 713.181 715.374 716.726 715.309 721.338L717.308 721.366C717.371 716.89 718.197 713.906 719.583 712.188L718.026 710.932ZM716.309 722.352H736.565V720.352H716.309V722.352ZM767.363 749V750H768.363V749H767.363ZM756.898 749H755.898V750H756.898V749ZM756.898 701V700H755.898V701H756.898ZM767.267 701H768.267V700H767.267V701ZM767.267 703.976H766.267V705.729L767.776 704.837L767.267 703.976ZM791.939 704.648L791.164 705.28L791.686 705.92L792.413 705.528L791.939 704.648ZM821.507 705.32L820.672 705.871L820.677 705.878L821.507 705.32ZM825.059 749V750H826.059V749H825.059ZM814.691 749H813.691V750H814.691V749ZM813.059 712.52L812.154 712.946L812.159 712.957L812.164 712.967L813.059 712.52ZM797.219 711.176L796.86 710.243L796.849 710.247L796.838 710.251L797.219 711.176ZM795.587 711.848L795.206 710.923L794.29 711.3L794.658 712.219L795.587 711.848ZM796.355 749V750H797.355V749H796.355ZM785.987 749H784.987V750H785.987V749ZM768.803 711.176L769.174 712.104L769.199 712.094L769.224 712.083L768.803 711.176ZM767.363 711.752L766.991 710.823L766.363 711.075V711.752H767.363ZM767.363 748H756.898V750H767.363V748ZM757.898 749V701H755.898V749H757.898ZM756.898 702H767.267V700H756.898V702ZM766.267 701V703.976H768.267V701H766.267ZM767.776 704.837C772.224 702.205 776.207 700.944 779.747 700.944V698.944C775.734 698.944 771.397 700.371 766.757 703.115L767.776 704.837ZM779.747 700.944C785.133 700.944 788.858 702.456 791.164 705.28L792.713 704.016C789.899 700.568 785.496 698.944 779.747 698.944V700.944ZM792.413 705.528C798.113 702.459 803.743 700.944 809.315 700.944V698.944C803.366 698.944 797.412 700.565 791.464 703.767L792.413 705.528ZM809.315 700.944C814.865 700.944 818.55 702.659 820.672 705.871L822.341 704.769C819.727 700.813 815.284 698.944 809.315 698.944V700.944ZM820.677 705.878C822.868 709.136 824.059 714.859 824.059 723.272H826.059C826.059 714.788 824.881 708.544 822.336 704.762L820.677 705.878ZM824.059 723.272V749H826.059V723.272H824.059ZM825.059 748H814.691V750H825.059V748ZM815.691 749V723.56H813.691V749H815.691ZM815.691 723.56C815.691 718.358 815.153 714.473 813.953 712.073L812.164 712.967C813.14 714.919 813.691 718.394 813.691 723.56H815.691ZM813.963 712.094C812.712 709.434 810.072 708.256 806.531 708.256V710.256C809.645 710.256 811.357 711.254 812.154 712.946L813.963 712.094ZM806.531 708.256C803.502 708.256 800.276 708.929 796.86 710.243L797.577 712.109C800.817 710.863 803.799 710.256 806.531 710.256V708.256ZM796.838 710.251L795.206 710.923L795.967 712.773L797.599 712.101L796.838 710.251ZM794.658 712.219C794.74 712.425 794.839 712.824 794.933 713.477C795.023 714.114 795.101 714.933 795.164 715.942C795.291 717.96 795.355 720.689 795.355 724.136H797.355C797.355 720.671 797.29 717.896 797.161 715.818C797.096 714.779 797.014 713.902 796.912 713.195C796.814 712.504 796.689 711.911 796.515 711.477L794.658 712.219ZM795.355 724.136V749H797.355V724.136H795.355ZM796.355 748H785.987V750H796.355V748ZM786.987 749V724.328H784.987V749H786.987ZM786.987 724.328C786.987 718.633 786.484 714.492 785.355 712.094L783.546 712.946C784.465 714.899 784.987 718.631 784.987 724.328H786.987ZM785.355 712.094C784.097 709.421 781.379 708.256 777.731 708.256V710.256C780.994 710.256 782.756 711.267 783.546 712.946L785.355 712.094ZM777.731 708.256C774.393 708.256 771.272 708.924 768.381 710.269L769.224 712.083C771.837 710.867 774.668 710.256 777.731 710.256V708.256ZM768.431 710.247L766.991 710.823L767.734 712.68L769.174 712.104L768.431 710.247ZM766.363 711.752V749H768.363V711.752H766.363Z" fill="black"/>
<path d="M156.616 377.856C177.096 377.856 198.771 381.952 221.64 390.144L232.904 393.728L215.496 443.904C189.213 439.467 168.563 437.248 153.544 437.248C134.088 437.248 119.069 448 108.488 469.504C97.9067 490.667 92.616 515.584 92.616 544.256C92.616 572.587 105.587 586.752 131.528 586.752L186.312 582.656L180.68 633.344C155.763 641.877 130.845 646.144 105.928 646.144C81.0107 646.144 60.872 638.293 45.512 622.592C30.4933 606.891 22.984 585.045 22.984 557.056C22.984 504.832 34.4187 461.995 57.288 428.544C80.4987 394.752 113.608 377.856 156.616 377.856ZM358.496 378.368C425.739 378.368 459.36 410.624 459.36 475.136C459.36 502.784 454.752 529.237 445.536 554.496C436.32 579.755 421.472 601.429 400.992 619.52C380.853 637.269 357.131 646.144 329.824 646.144C262.581 646.144 228.96 613.888 228.96 549.376C228.96 522.069 233.909 495.616 243.808 470.016C253.707 444.416 268.725 422.741 288.864 404.992C309.344 387.243 332.555 378.368 358.496 378.368ZM329.824 587.776C348.256 587.776 363.104 576.171 374.368 552.96C385.632 529.408 391.264 503.125 391.264 474.112C391.264 449.195 380.341 436.736 358.496 436.736C340.064 436.736 325.216 448.512 313.952 472.064C302.688 495.275 297.056 521.387 297.056 550.4C297.056 575.317 307.979 587.776 329.824 587.776ZM612.496 378.368C679.739 378.368 713.36 410.624 713.36 475.136C713.36 502.784 708.752 529.237 699.536 554.496C690.32 579.755 675.472 601.429 654.992 619.52C634.853 637.269 611.131 646.144 583.824 646.144C516.581 646.144 482.96 613.888 482.96 549.376C482.96 522.069 487.909 495.616 497.808 470.016C507.707 444.416 522.725 422.741 542.864 404.992C563.344 387.243 586.555 378.368 612.496 378.368ZM583.824 587.776C602.256 587.776 617.104 576.171 628.368 552.96C639.632 529.408 645.264 503.125 645.264 474.112C645.264 449.195 634.341 436.736 612.496 436.736C594.064 436.736 579.216 448.512 567.952 472.064C556.688 495.275 551.056 521.387 551.056 550.4C551.056 575.317 561.979 587.776 583.824 587.776ZM724.16 640L806.592 281.6H875.2L792.768 640H724.16Z" fill="white"/>
<path d="M221.64 390.144L221.303 391.085L221.32 391.091L221.337 391.097L221.64 390.144ZM232.904 393.728L233.849 394.056L234.185 393.086L233.207 392.775L232.904 393.728ZM215.496 443.904L215.33 444.89L216.164 445.031L216.441 444.232L215.496 443.904ZM108.488 469.504L109.382 469.951L109.385 469.945L108.488 469.504ZM131.528 586.752V587.752H131.565L131.603 587.749L131.528 586.752ZM186.312 582.656L187.306 582.766L187.439 581.569L186.237 581.659L186.312 582.656ZM180.68 633.344L181.004 634.29L181.604 634.085L181.674 633.454L180.68 633.344ZM45.512 622.592L44.7893 623.283L44.7972 623.291L45.512 622.592ZM57.288 428.544L56.4637 427.978L56.4625 427.98L57.288 428.544ZM156.616 378.856C176.962 378.856 198.522 382.925 221.303 391.085L221.977 389.202C199.019 380.979 177.23 376.856 156.616 376.856V378.856ZM221.337 391.097L232.601 394.681L233.207 392.775L221.943 389.191L221.337 391.097ZM231.959 393.4L214.551 443.576L216.441 444.232L233.849 394.056L231.959 393.4ZM215.662 442.918C189.36 438.477 168.645 436.248 153.544 436.248V438.248C168.48 438.248 189.067 440.456 215.33 444.89L215.662 442.918ZM153.544 436.248C143.619 436.248 134.794 438.995 127.106 444.499C119.428 449.995 112.933 458.205 107.591 469.062L109.385 469.945C114.624 459.299 120.929 451.381 128.27 446.125C135.6 440.877 144.013 438.248 153.544 438.248V436.248ZM107.594 469.057C96.9296 490.385 91.616 515.461 91.616 544.256H93.616C93.616 515.707 98.8837 490.949 109.382 469.951L107.594 469.057ZM91.616 544.256C91.616 558.555 94.8873 569.465 101.606 576.803C108.341 584.158 118.379 587.752 131.528 587.752V585.752C118.735 585.752 109.318 582.263 103.082 575.453C96.83 568.625 93.616 558.288 93.616 544.256H91.616ZM131.603 587.749L186.387 583.653L186.237 581.659L131.453 585.755L131.603 587.749ZM185.318 582.546L179.686 633.234L181.674 633.454L187.306 582.766L185.318 582.546ZM180.356 632.398C155.537 640.898 130.729 645.144 105.928 645.144V647.144C130.962 647.144 155.988 642.857 181.004 634.29L180.356 632.398ZM105.928 645.144C81.2402 645.144 61.3728 637.375 46.2268 621.893L44.7972 623.291C60.3712 639.211 80.7812 647.144 105.928 647.144V645.144ZM46.2346 621.901C31.441 606.435 23.984 584.865 23.984 557.056H21.984C21.984 585.226 29.5457 607.347 44.7894 623.283L46.2346 621.901ZM23.984 557.056C23.984 504.976 35.3866 462.351 58.1135 429.108L56.4625 427.98C33.4507 461.639 21.984 504.688 21.984 557.056H23.984ZM58.1123 429.11C81.1258 395.605 113.918 378.856 156.616 378.856V376.856C113.298 376.856 79.8715 393.899 56.4637 427.978L58.1123 429.11ZM445.536 554.496L444.597 554.153L444.597 554.153L445.536 554.496ZM400.992 619.52L401.653 620.27L401.654 620.269L400.992 619.52ZM243.808 470.016L242.875 469.655L242.875 469.655L243.808 470.016ZM288.864 404.992L288.209 404.236L288.203 404.242L288.864 404.992ZM374.368 552.96L375.268 553.397L375.27 553.391L374.368 552.96ZM313.952 472.064L314.852 472.501L314.854 472.495L313.952 472.064ZM358.496 379.368C391.973 379.368 416.896 387.398 433.452 403.282C450 419.158 458.36 443.045 458.36 475.136H460.36C460.36 442.715 451.91 418.218 434.836 401.838C417.771 385.466 392.261 377.368 358.496 377.368V379.368ZM458.36 475.136C458.36 502.67 453.771 529.007 444.597 554.153L446.475 554.839C455.733 529.467 460.36 502.897 460.36 475.136H458.36ZM444.597 554.153C435.439 579.253 420.687 600.788 400.33 618.77L401.654 620.269C422.257 602.07 437.201 580.257 446.475 554.839L444.597 554.153ZM400.331 618.77C380.378 636.355 356.892 645.144 329.824 645.144V647.144C357.37 647.144 381.328 638.183 401.653 620.27L400.331 618.77ZM329.824 645.144C296.347 645.144 271.424 637.114 254.868 621.23C238.32 605.354 229.96 581.467 229.96 549.376H227.96C227.96 581.797 236.41 606.294 253.484 622.674C270.549 639.046 296.059 647.144 329.824 647.144V645.144ZM229.96 549.376C229.96 522.193 234.886 495.862 244.741 470.377L242.875 469.655C232.932 495.37 227.96 521.945 227.96 549.376H229.96ZM244.741 470.377C254.583 444.923 269.51 423.383 289.525 405.742L288.203 404.242C267.941 422.1 252.831 443.909 242.875 469.655L244.741 470.377ZM289.519 405.748C309.826 388.148 332.807 379.368 358.496 379.368V377.368C332.303 377.368 308.862 386.337 288.209 404.236L289.519 405.748ZM329.824 588.776C348.789 588.776 363.914 576.793 375.268 553.397L373.468 552.523C362.294 575.548 347.723 586.776 329.824 586.776V588.776ZM375.27 553.391C386.605 529.69 392.264 503.258 392.264 474.112H390.264C390.264 502.993 384.659 529.126 373.466 552.528L375.27 553.391ZM392.264 474.112C392.264 461.529 389.509 451.905 383.824 445.421C378.117 438.911 369.61 435.736 358.496 435.736V437.736C369.228 437.736 377.104 440.79 382.32 446.739C387.558 452.713 390.264 461.777 390.264 474.112H392.264ZM358.496 435.736C339.523 435.736 324.4 447.9 313.05 471.632L314.854 472.495C326.032 449.124 340.605 437.736 358.496 437.736V435.736ZM313.052 471.627C301.715 494.99 296.056 521.254 296.056 550.4H298.056C298.056 521.519 303.662 495.559 314.852 472.501L313.052 471.627ZM296.056 550.4C296.056 562.983 298.811 572.607 304.496 579.091C310.203 585.601 318.711 588.776 329.824 588.776V586.776C319.092 586.776 311.216 583.722 306 577.773C300.762 571.799 298.056 562.734 298.056 550.4H296.056ZM699.536 554.496L698.597 554.153L698.597 554.153L699.536 554.496ZM654.992 619.52L655.653 620.27L655.654 620.269L654.992 619.52ZM497.808 470.016L496.875 469.655L496.875 469.655L497.808 470.016ZM542.864 404.992L542.209 404.236L542.203 404.242L542.864 404.992ZM628.368 552.96L629.268 553.397L629.27 553.391L628.368 552.96ZM567.952 472.064L568.852 472.501L568.854 472.495L567.952 472.064ZM612.496 379.368C645.973 379.368 670.896 387.398 687.452 403.282C704 419.158 712.36 443.045 712.36 475.136H714.36C714.36 442.715 705.91 418.218 688.836 401.838C671.771 385.466 646.261 377.368 612.496 377.368V379.368ZM712.36 475.136C712.36 502.67 707.771 529.007 698.597 554.153L700.475 554.839C709.733 529.467 714.36 502.897 714.36 475.136H712.36ZM698.597 554.153C689.439 579.253 674.687 600.788 654.33 618.77L655.654 620.269C676.257 602.07 691.201 580.257 700.475 554.839L698.597 554.153ZM654.331 618.77C634.378 636.355 610.892 645.144 583.824 645.144V647.144C611.37 647.144 635.328 638.183 655.653 620.27L654.331 618.77ZM583.824 645.144C550.347 645.144 525.424 637.114 508.868 621.23C492.32 605.354 483.96 581.467 483.96 549.376H481.96C481.96 581.797 490.41 606.294 507.484 622.674C524.549 639.046 550.059 647.144 583.824 647.144V645.144ZM483.96 549.376C483.96 522.193 488.886 495.862 498.741 470.377L496.875 469.655C486.932 495.37 481.96 521.945 481.96 549.376H483.96ZM498.741 470.377C508.583 444.923 523.51 423.383 543.525 405.742L542.203 404.242C521.941 422.1 506.831 443.909 496.875 469.655L498.741 470.377ZM543.519 405.748C563.826 388.148 586.807 379.368 612.496 379.368V377.368C586.303 377.368 562.862 386.337 542.209 404.236L543.519 405.748ZM583.824 588.776C602.789 588.776 617.914 576.793 629.268 553.397L627.468 552.523C616.294 575.548 601.723 586.776 583.824 586.776V588.776ZM629.27 553.391C640.605 529.69 646.264 503.258 646.264 474.112H644.264C644.264 502.993 638.659 529.126 627.466 552.528L629.27 553.391ZM646.264 474.112C646.264 461.529 643.509 451.905 637.824 445.421C632.117 438.911 623.61 435.736 612.496 435.736V437.736C623.228 437.736 631.104 440.79 636.32 446.739C641.558 452.713 644.264 461.777 644.264 474.112H646.264ZM612.496 435.736C593.523 435.736 578.4 447.9 567.05 471.632L568.854 472.495C580.032 449.124 594.605 437.736 612.496 437.736V435.736ZM567.052 471.627C555.715 494.99 550.056 521.254 550.056 550.4H552.056C552.056 521.519 557.662 495.559 568.852 472.501L567.052 471.627ZM550.056 550.4C550.056 562.983 552.811 572.607 558.496 579.091C564.203 585.601 572.711 588.776 583.824 588.776V586.776C573.092 586.776 565.216 583.722 560 577.773C554.762 571.799 552.056 562.734 552.056 550.4H550.056ZM724.16 640L723.185 639.776L722.904 641H724.16V640ZM806.592 281.6V280.6H805.796L805.617 281.376L806.592 281.6ZM875.2 281.6L876.175 281.824L876.456 280.6H875.2V281.6ZM792.768 640V641H793.564L793.743 640.224L792.768 640ZM725.135 640.224L807.567 281.824L805.617 281.376L723.185 639.776L725.135 640.224ZM806.592 282.6H875.2V280.6H806.592V282.6ZM874.225 281.376L791.793 639.776L793.743 640.224L876.175 281.824L874.225 281.376ZM792.768 639H724.16V641H792.768V639Z" fill="black"/>
</g>
<defs>
<clipPath id="clip0_301_2">
<rect width="1745" height="1014" fill="white"/>
</clipPath>
</defs>
</svg>
