<svg width="1583" height="1014" viewBox="0 0 1583 1014" fill="none" xmlns="http://www.w3.org/2000/svg">
  <defs>
    <filter id="shadow">
      <feDropShadow dx="0" dy="0" stdDeviation="2" />
    </filter>
  </defs>
  <g clip-path="url(#clip0_1_2)">
    <path d="M1576.73 508L1577.31 507L1576.73 506L1323.23 66.9251L1322.65 65.9251L1321.5 65.9251L814.5 65.9251L813.345 65.9251L812.768 66.9251L559.268 506L558.691 507L559.268 508L812.768 947.075L813.345 948.075L814.5 948.075L1321.5 948.075L1322.65 948.075L1323.23 947.075L1576.73 508Z" stroke="black" stroke-width="4"/>
    <mask id="mask0_1_2" style="mask-type:alpha" maskUnits="userSpaceOnUse" x="561" y="67" width="1014" height="880">
      <path d="M1575 507L1321.5 946.075L814.5 946.075L561 507L814.5 67.9251L1321.5 67.9251L1575 507Z" fill="#D9D9D9"/>
    </mask>
    <g mask="url(#mask0_1_2)">
      <rect x="557.444" y="-0.518738" width="1017.56" height="1014.52" fill="#70B5EC"/>
      <circle cx="1474.32" cy="416.852" r="157.384" fill="#3F9AE0"/>
      <circle cx="1297.74" cy="445.002" r="62.6977" fill="#176FC9" fill-opacity="0.8"/>
      <circle cx="931.789" cy="140.47" r="60.1386" fill="#3B92E1"/>
      <circle cx="776.964" cy="384.864" r="38.3864" fill="#0782D5" fill-opacity="0.6"/>
      <circle cx="750.093" cy="555.043" r="113.88" fill="#97CBF3" fill-opacity="0.8"/>
      <circle cx="839.661" cy="437.325" r="62.6977" fill="#3E90DD" fill-opacity="0.6"/>
      <circle cx="660.525" cy="731.62" r="80.6113" fill="#519BD1" fill-opacity="0.8"/>
      <circle cx="1107.09" cy="935.068" r="56.3" fill="#3A9DE2"/>
      <g style="mix-blend-mode:multiply">
        <path d="M1027.64 0.260347C1025.27 0.509491 1017.67 1.3815 1010.82 2.00436C913.398 12.2193 817.473 53.4526 739.239 118.978C724.788 130.936 691.899 163.823 679.94 178.274C615.16 255.633 577.288 342.46 563.336 445.232C560.221 468.028 560.221 545.014 563.336 567.811C577.288 670.583 615.16 757.409 679.94 834.768C691.899 849.219 724.788 882.106 739.239 894.065C816.601 958.842 903.432 996.712 1006.21 1010.66C1029.01 1013.78 1105.99 1013.78 1128.79 1010.66C1231.57 996.712 1318.4 958.842 1395.76 894.065C1410.21 882.106 1443.1 849.219 1455.06 834.768C1519.84 757.409 1557.71 670.583 1571.66 567.811C1574.78 545.014 1574.78 468.028 1571.66 445.232C1557.71 342.46 1519.84 255.633 1455.06 178.274C1443.1 163.823 1410.21 130.936 1395.76 118.978C1318.65 54.4492 1230.95 16.081 1129.54 2.50264C1118.58 1.00778 1102.63 0.384919 1073.11 0.135775C1050.56 -0.113369 1030 0.0112031 1027.64 0.260347ZM1033.86 54.0755C1033.86 68.6504 1034.86 100.292 1036.23 130.314C1036.98 145.013 1037.85 166.066 1038.22 177.028C1039.59 215.895 1043.71 317.919 1044.33 327.013L1044.95 336.107L1039.35 335.484C1036.23 335.235 1033.37 334.487 1032.87 334.113C1032.49 333.615 1031.62 325.02 1031.12 314.929C1028.88 270.582 1021.53 98.5477 1020.78 73.3841L1020.04 45.7291L1023.52 45.2309C1025.39 44.9817 1028.51 44.608 1030.5 44.4834L1033.86 44.3589V54.0755ZM1153.08 51.0857C1153.21 51.2103 1153.58 88.8311 1153.96 134.674C1154.45 180.641 1155.08 221.874 1155.45 226.359C1155.83 230.968 1155.7 234.954 1155.08 235.203C1154.58 235.577 1151.47 235.577 1148.35 235.203L1142.62 234.705L1141.75 198.454C1141.25 178.398 1140.63 156.225 1140.38 148.999C1139.38 126.95 1138.51 52.0823 1139.26 50.2137C1139.75 48.8434 1141.13 48.7189 1146.36 49.5909C1149.97 50.3383 1152.96 50.9612 1153.08 51.0857ZM864.937 92.8174C865.685 93.9385 871.54 162.578 878.765 252.394C881.132 282.914 883.499 310.818 883.873 314.306C884.496 320.66 884.371 320.909 880.385 323.4C878.143 324.771 875.9 325.892 875.402 325.892C875.028 325.892 874.281 322.653 873.907 318.666C872.163 302.472 865.436 224.241 860.702 167.685C857.961 134.424 855.469 104.652 855.096 101.413C854.473 95.9317 854.597 95.4334 857.836 93.6894C861.823 91.5717 864.065 91.1979 864.937 92.8174ZM1207.9 117.856C1211.39 119.102 1211.76 119.725 1212.51 126.826C1213.75 139.283 1213.38 198.828 1212.01 198.828C1208.4 198.828 1200.92 194.593 1200.3 192.226C1199.93 190.731 1199.55 173.042 1199.55 152.986C1199.55 112.5 1199.05 114.867 1207.9 117.856ZM977.804 123.711C977.804 127.075 978.676 145.636 979.673 165.194C980.67 184.752 981.791 209.541 982.289 220.255C983.161 241.93 983.41 241.183 975.064 241.681C970.953 241.806 970.953 241.806 970.703 235.577C970.454 232.089 969.831 221.251 969.084 211.285C968.461 201.32 966.966 179.769 965.969 163.325C964.973 146.882 963.727 130.563 963.353 127.075C962.606 120.846 962.73 120.597 966.094 119.351C968.087 118.604 971.575 117.981 973.818 117.981C977.804 117.856 977.804 117.856 977.804 123.711ZM1323.38 140.778L1327.62 142.522L1328.49 159.214C1328.86 168.308 1329.11 187.99 1328.86 202.814L1328.49 229.971L1323.26 227.355L1318.02 224.864L1317.65 183.506C1317.4 160.709 1317.53 141.4 1317.78 140.528C1318.27 138.66 1318.27 138.66 1323.38 140.778ZM1095.9 157.097C1096.65 157.844 1098.4 218.261 1098.52 248.906L1098.64 267.343L1092.79 266.471C1089.43 266.097 1086.68 265.723 1086.56 265.599C1086.19 265.35 1082.45 173.042 1082.45 164.073V154.854L1088.8 155.602C1092.42 156.1 1095.53 156.723 1095.9 157.097ZM1382.8 165.941C1384.3 167.685 1384.55 194.966 1384.92 345.449C1385.3 518.231 1385.3 522.716 1383.05 522.716C1381.68 522.716 1379.82 521.968 1378.69 521.096C1376.83 519.726 1376.58 504.653 1375.95 357.035C1375.45 267.592 1374.83 186.371 1374.46 176.53L1373.71 158.591L1377.32 161.207C1379.44 162.702 1381.81 164.82 1382.8 165.941ZM1271.06 191.478C1271.68 191.977 1272.3 199.077 1272.43 207.175C1273.05 234.705 1273.18 403.5 1272.55 403.998C1272.3 404.247 1270.06 403.625 1267.57 402.628L1263.09 400.759V294.749V188.862L1266.57 189.61C1268.44 190.108 1270.44 190.856 1271.06 191.478ZM927.226 198.454C927.6 201.818 928.223 209.417 928.596 215.645C928.97 221.749 929.842 235.702 930.59 246.539C932.084 268.464 931.835 269.834 924.734 269.834C920.997 269.834 920.499 269.461 920 265.723C918.755 258.374 914.394 197.084 915.017 196.088C915.64 195.216 922.118 192.973 925.108 192.724C925.856 192.6 926.852 195.216 927.226 198.454ZM721.175 230.22C722.546 243.425 725.286 271.08 727.279 291.634C729.397 312.189 731.141 329.629 731.141 330.376C731.141 331.871 721.549 336.605 720.552 335.608C719.929 334.985 707.472 224.739 707.472 219.756C707.472 216.767 717.064 204.185 718.31 205.555C718.684 205.804 719.929 216.891 721.175 230.22ZM1209.64 243.3L1213.26 245.418L1213.38 272.326C1213.5 287.025 1213.75 303.469 1213.75 308.825C1214 320.037 1212.63 321.905 1205.91 319.539L1202.04 318.168V307.455C1202.04 301.476 1201.67 284.16 1201.17 268.838L1200.42 241.183H1203.29C1204.78 241.183 1207.65 242.179 1209.64 243.3ZM775.865 291.634C778.107 315.552 781.72 355.914 784.087 381.326L788.322 427.418L783.464 432.276L778.73 437.135L777.858 427.293C777.359 421.812 774.868 396.399 772.252 370.738C769.636 345.076 765.898 307.829 764.03 288.022L760.542 252.145L765.4 247.66C769.76 243.55 770.259 243.425 771.131 245.667C771.629 246.913 773.747 267.592 775.865 291.634ZM682.556 306.708C685.297 331.248 692.522 396.524 698.751 451.709C704.98 506.895 710.835 560.087 711.956 570.053C712.953 580.019 714.697 595.092 715.694 603.687C717.438 618.262 717.438 619.259 715.445 620.754C712.455 622.996 711.209 622.747 711.209 620.131C711.209 619.01 710.088 609.542 708.717 599.327C706.475 582.261 702.738 553.36 694.391 488.458C692.647 475.378 689.283 449.343 686.916 430.532C684.425 411.722 680.812 383.693 678.819 368.246C676.826 352.799 673.462 326.39 671.344 309.324C669.102 292.382 667.732 277.309 668.105 275.689C668.977 272.326 676.327 260.616 677.075 261.363C677.324 261.737 679.816 282.042 682.556 306.708ZM644.436 360.398C646.304 375.347 649.792 402.628 652.159 421.189C654.526 439.626 657.516 462.672 658.887 472.264L661.253 489.704L658.637 491.946C657.142 493.192 655.648 493.69 655.149 493.192C654.651 492.694 653.654 487.711 652.907 482.23C652.159 476.748 647.55 444.733 642.567 411.224L633.722 350.183L636.587 341.712C638.082 337.103 639.702 333.366 640.075 333.366C640.574 333.366 642.442 345.574 644.436 360.398ZM1328.36 344.079C1330.11 345.823 1330.36 353.547 1330.36 410.725V475.378H1326.87C1319.27 475.378 1319.4 477.247 1318.9 406.49L1318.52 342.086H1322.51C1324.63 342.086 1327.37 342.958 1328.36 344.079ZM1055.67 366.378C1083.82 370.613 1108.36 378.461 1132.65 390.918C1148.35 399.015 1155.83 404.621 1173.27 421.314C1199.18 446.104 1215.12 467.779 1230.07 498.424C1251.87 543.021 1260.35 582.51 1271.06 688.396C1275.92 735.858 1282.27 821.938 1283.64 857.191C1284.02 867.406 1284.89 884.224 1285.63 894.563C1287.01 916.488 1288.62 913.498 1269.32 922.841C1242.53 935.796 1216.74 944.766 1182.73 953.112C1141.13 963.327 1114.22 966.566 1073.11 966.69L1043.21 966.815L1043.46 952.489C1043.46 944.641 1044.2 926.329 1044.95 912.003C1048.69 842.617 1047.94 755.042 1043.08 706.459C1040.34 678.555 1034.99 644.672 1032 637.197C1031.37 635.578 1034.24 634.207 1046.57 629.972C1069.12 622.124 1088.68 612.283 1091.67 607.424C1097.02 598.206 1087.43 585.002 1075.22 585.002C1073.11 585.002 1066.75 587.244 1060.9 589.86C1032.99 602.691 977.057 617.764 944.791 621.127C922.492 623.494 887.86 622.124 863.816 617.764C850.736 615.397 827.315 606.552 807.756 596.462C785.208 584.752 771.38 569.181 767.269 550.744C765.026 540.778 765.649 520.847 768.515 509.635C771.629 497.303 780.349 479.364 788.322 468.9C823.827 422.186 897.078 381.7 972.198 367.499C996.117 363.014 1030 362.516 1055.67 366.378ZM1439.99 370.239C1444.47 372.108 1444.97 372.606 1444.97 376.842C1445.22 410.85 1444.47 488.583 1443.85 491.822C1443.72 492.943 1437.25 493.067 1434.5 492.071C1432.76 491.448 1432.51 484.721 1432.51 429.785C1432.51 390.42 1433.01 368.246 1433.76 368.246C1434.38 368.246 1437.25 369.118 1439.99 370.239ZM1494.43 438.629L1498.91 440.498L1498.04 543.644C1497.04 675.067 1496.92 678.929 1492.18 690.265C1484.46 708.826 1484.83 712.563 1485.58 631.093C1485.83 590.358 1486.45 549.125 1486.7 539.533C1486.95 529.941 1487.2 502.909 1487.33 479.364C1487.33 450.962 1487.7 436.761 1488.57 436.761C1489.32 436.761 1491.93 437.633 1494.43 438.629ZM745.219 469.648C745.966 479.738 745.717 480.735 742.104 488.707L738.118 497.178L736.623 484.721C734.256 464.79 734.256 463.918 738.99 460.928C741.108 459.433 743.35 458.436 743.724 458.685C744.097 458.935 744.845 463.918 745.219 469.648ZM668.23 544.765C669.351 554.98 678.071 622.747 682.556 656.008C689.283 707.456 689.782 714.806 686.792 711.691C686.418 711.318 683.553 694.002 680.563 673.199C661.129 538.91 661.253 539.782 662.873 538.785C666.237 536.543 667.358 537.789 668.23 544.765ZM757.925 601.819C758.673 604.933 762.286 638.692 762.286 642.803C762.286 646.291 757.801 649.53 755.808 647.537C755.185 646.914 753.565 636.325 752.319 624.117C750.949 611.785 749.579 598.954 749.205 595.59L748.458 589.362L752.818 594.344C755.309 597.085 757.552 600.448 757.925 601.819ZM858.459 648.782C859.83 650.028 860.702 655.011 861.823 668.465C863.692 692.756 863.941 690.888 858.833 690.888C853.601 690.888 853.725 691.261 851.981 669.337C850.237 647.038 850.237 647.288 853.601 647.288C855.22 647.288 857.338 648.035 858.459 648.782ZM957.124 650.651C957.374 651.897 957.997 659.371 958.495 667.219C958.869 675.067 959.99 692.756 960.986 706.459C964.475 756.786 964.599 763.14 962.481 763.14C960.114 763.14 959.865 761.271 957.124 725.768C956.128 711.068 954.259 687.898 953.013 674.32C951.892 660.741 951.145 649.405 951.519 649.156C952.889 647.661 956.502 648.782 957.124 650.651ZM722.919 674.569C723.667 675.69 728.401 715.553 734.256 769.991C736 786.435 737.744 802.255 738.118 805.245L738.741 810.602L735.626 808.608C733.259 806.989 732.387 805.369 732.387 802.504C732.387 794.656 727.03 742.959 722.919 711.318C720.552 693.379 718.684 677.559 718.684 676.064C718.684 673.448 721.673 672.451 722.919 674.569ZM1441.85 726.64L1440.98 778.711L1437.87 783.32C1430.77 793.784 1431.14 795.777 1431.51 737.478L1431.76 684.036L1436.37 679.303C1438.86 676.811 1441.36 674.693 1441.85 674.693C1442.23 674.693 1442.23 698.113 1441.85 726.64ZM1326.62 809.231C1327.24 881.608 1327.12 887.213 1325.13 889.456C1323.88 890.826 1322.76 891.698 1322.39 891.324C1321.51 890.328 1320.27 732.495 1321.26 731.623C1321.76 731.125 1323.01 730.875 1324.13 731C1325.75 731.374 1326.12 740.218 1326.62 809.231ZM919.751 759.652C920.623 767.375 923.738 804.373 924.984 821.813C925.731 833.523 925.731 833.896 922.99 834.768C921.495 835.267 919.751 835.142 919.253 834.519C918.381 833.647 915.64 805.992 912.277 763.389L911.405 753.174H915.267C918.879 753.174 919.128 753.423 919.751 759.652ZM821.834 803.252C822.706 804.124 823.329 807.238 823.329 810.352C823.329 813.591 824.823 830.408 826.443 847.849C831.177 895.56 831.551 902.037 829.433 900.792C826.194 898.923 823.329 896.058 823.951 895.31C824.201 894.812 823.702 888.584 822.706 881.483C821.834 874.258 820.712 862.548 820.214 855.323C819.716 848.098 818.595 834.893 817.598 826.048C815.231 804.248 815.356 801.757 818.096 801.757C819.342 801.757 820.962 802.38 821.834 803.252ZM880.759 887.089C881.132 889.829 881.88 900.044 882.378 909.761C883.25 928.447 882.876 929.817 877.769 925.955C876.274 924.834 875.277 920.1 873.782 905.899C871.166 880.237 871.042 881.234 875.9 881.732C879.513 882.106 880.011 882.604 880.759 887.089Z" fill="#042036"/>
        <path d="M836.284 426.048C823.328 431.653 822.332 449.218 834.54 455.447C843.385 459.931 852.355 457.813 856.964 450.09C865.685 435.889 851.483 419.445 836.284 426.048Z" fill="#042036"/>
        <path d="M920.748 438.006C908.788 445.356 908.788 463.045 920.748 470.395C932.583 477.496 947.906 468.153 947.906 453.952C947.906 440.249 932.209 431.03 920.748 438.006Z" fill="#042036"/>
      </g>
    </g>
    <path d="M223.919 715.784V737.672C223.983 739.08 224.335 740.136 224.975 740.84C225.679 741.48 226.735 741.896 228.143 742.088L227.855 750.056C222.351 750.056 218.095 748.872 215.087 746.504C209.967 748.872 204.815 750.056 199.631 750.056C190.095 750.056 185.327 744.968 185.327 734.792C185.327 729.928 186.607 726.408 189.167 724.232C191.791 722.056 195.791 720.744 201.167 720.296L213.551 719.24V715.784C213.551 713.224 212.975 711.432 211.823 710.408C210.735 709.384 209.103 708.872 206.927 708.872C202.831 708.872 197.711 709.128 191.567 709.64L188.495 709.832L188.111 702.44C195.087 700.776 201.487 699.944 207.311 699.944C213.199 699.944 217.423 701.224 219.983 703.784C222.607 706.28 223.919 710.28 223.919 715.784ZM202.415 727.688C197.999 728.072 195.791 730.472 195.791 734.888C195.791 739.304 197.743 741.512 201.647 741.512C204.847 741.512 208.239 741 211.823 739.976L213.551 739.4V726.632L202.415 727.688ZM297.317 681.032V749H286.949V746.504C282.277 748.872 277.989 750.056 274.085 750.056C267.813 750.056 263.205 748.168 260.261 744.392C257.381 740.616 255.941 734.28 255.941 725.384C255.941 716.488 257.541 710.024 260.741 705.992C264.005 701.96 269.061 699.944 275.909 699.944C278.213 699.944 281.861 700.36 286.853 701.192V681.032H297.317ZM285.221 739.016L286.853 738.344V709.928C283.013 709.288 279.461 708.968 276.197 708.968C269.733 708.968 266.501 714.344 266.501 725.096C266.501 730.984 267.237 735.08 268.709 737.384C270.245 739.624 272.645 740.744 275.909 740.744C279.173 740.744 282.277 740.168 285.221 739.016ZM344.168 740.36L346.856 740.072L347.048 747.848C339.752 749.32 333.288 750.056 327.656 750.056C320.552 750.056 315.432 748.104 312.296 744.2C309.224 740.296 307.688 734.056 307.688 725.48C307.688 708.456 314.632 699.944 328.52 699.944C341.96 699.944 348.68 707.272 348.68 721.928L348.008 729.416H318.248C318.312 733.384 319.176 736.296 320.84 738.152C322.504 740.008 325.608 740.936 330.152 740.936C334.696 740.936 339.368 740.744 344.168 740.36ZM338.408 721.352C338.408 716.616 337.64 713.32 336.104 711.464C334.632 709.544 332.104 708.584 328.52 708.584C324.936 708.584 322.312 709.576 320.648 711.56C319.048 713.544 318.216 716.808 318.152 721.352H338.408ZM369.206 749H358.742V701H369.11V703.976C373.782 701.288 378.198 699.944 382.358 699.944C388.758 699.944 393.11 701.768 395.414 705.416C397.782 709 398.966 714.952 398.966 723.272V749H388.598V723.56C388.598 718.376 388.022 714.696 386.87 712.52C385.782 710.344 383.51 709.256 380.054 709.256C376.79 709.256 373.654 709.896 370.646 711.176L369.206 711.752V749ZM413.741 706.184C417.069 702.024 422.573 699.944 430.253 699.944C437.933 699.944 443.405 702.024 446.669 706.184C449.997 710.344 451.661 716.584 451.661 724.904C451.661 733.224 450.061 739.496 446.861 743.72C443.661 747.944 438.125 750.056 430.253 750.056C422.381 750.056 416.845 747.944 413.645 743.72C410.445 739.496 408.845 733.224 408.845 724.904C408.845 716.584 410.477 710.344 413.741 706.184ZM421.613 737.384C423.085 739.944 425.965 741.224 430.253 741.224C434.541 741.224 437.421 739.944 438.893 737.384C440.365 734.824 441.101 730.632 441.101 724.808C441.101 718.984 440.301 714.856 438.701 712.424C437.165 709.992 434.349 708.776 430.253 708.776C426.157 708.776 423.309 709.992 421.709 712.424C420.173 714.856 419.405 718.984 419.405 724.808C419.405 730.632 420.141 734.824 421.613 737.384ZM483.725 749V681.032H494.189V749H483.725ZM507.43 749V701H517.894V749H507.43ZM507.43 692.84V681.8H517.894V692.84H507.43ZM552.954 699.944C559.546 699.944 564.282 701.8 567.162 705.512C570.106 709.16 571.578 715.656 571.578 725C571.578 734.344 569.85 740.872 566.394 744.584C562.938 748.232 556.858 750.056 548.154 750.056C545.146 750.056 540.378 749.768 533.85 749.192L530.586 748.904V681.032H540.954V702.824C545.37 700.904 549.37 699.944 552.954 699.944ZM548.154 740.744C553.274 740.744 556.666 739.56 558.33 737.192C560.058 734.76 560.922 730.664 560.922 724.904C560.922 719.144 560.186 715.112 558.714 712.808C557.306 710.44 554.97 709.256 551.706 709.256C548.634 709.256 545.562 709.736 542.49 710.696L540.954 711.176V740.36C544.474 740.616 546.874 740.744 548.154 740.744ZM582.055 749V701H592.423V706.76C597.863 703.24 603.303 700.968 608.743 699.944V710.408C603.239 711.496 598.535 712.904 594.631 714.632L592.519 715.496V749H582.055ZM652.262 715.784V737.672C652.326 739.08 652.678 740.136 653.318 740.84C654.022 741.48 655.078 741.896 656.486 742.088L656.198 750.056C650.694 750.056 646.438 748.872 643.43 746.504C638.31 748.872 633.158 750.056 627.974 750.056C618.438 750.056 613.67 744.968 613.67 734.792C613.67 729.928 614.95 726.408 617.51 724.232C620.134 722.056 624.134 720.744 629.51 720.296L641.894 719.24V715.784C641.894 713.224 641.318 711.432 640.166 710.408C639.078 709.384 637.446 708.872 635.27 708.872C631.174 708.872 626.054 709.128 619.91 709.64L616.838 709.832L616.454 702.44C623.43 700.776 629.83 699.944 635.654 699.944C641.542 699.944 645.766 701.224 648.326 703.784C650.95 706.28 652.262 710.28 652.262 715.784ZM630.758 727.688C626.342 728.072 624.134 730.472 624.134 734.888C624.134 739.304 626.086 741.512 629.99 741.512C633.19 741.512 636.582 741 640.166 739.976L641.894 739.4V726.632L630.758 727.688ZM665.398 749V701H675.767V706.76C681.207 703.24 686.647 700.968 692.087 699.944V710.408C686.583 711.496 681.879 712.904 677.975 714.632L675.863 715.496V749H665.398ZM695.67 701H705.942L716.118 740.072H718.71L728.886 701H739.254L721.014 769.64H710.742L716.502 749H708.246L695.67 701Z" fill="white"  style="filter:url(#shadow);" />
    <path d="M186.528 377.856C228.171 377.856 248.992 401.92 248.992 450.048C248.992 462.336 245.408 483.84 238.24 514.56L209.568 640H140.96L168.608 519.68C174.752 494.08 177.824 476.331 177.824 466.432C177.824 456.192 176.459 448.853 173.728 444.416C171.339 439.637 166.901 437.248 160.416 437.248C148.811 437.248 134.304 444.928 116.896 460.288L108.192 467.968L68.768 640H0.160002L82.592 281.6H151.2L122.528 408.064C130.037 400.555 140.107 393.728 152.736 387.584C165.365 381.099 176.629 377.856 186.528 377.856ZM344.58 559.616C344.58 568.149 347.993 574.976 354.82 580.096C361.988 585.216 370.863 587.776 381.444 587.776C404.996 587.776 429.06 586.069 453.636 582.656L466.948 581.12L459.268 631.808C427.524 641.365 396.121 646.144 365.06 646.144C333.999 646.144 311.3 639.147 296.964 625.152C282.969 611.157 275.972 590.677 275.972 563.712C275.972 536.747 278.703 512.683 284.164 491.52C289.625 470.357 297.647 451.243 308.228 434.176C319.151 417.109 333.828 403.627 352.26 393.728C371.033 383.488 392.367 378.368 416.26 378.368C475.993 378.368 505.86 403.797 505.86 454.656C505.86 487.083 494.937 509.44 473.092 521.728C451.247 534.016 414.895 540.16 364.036 540.16H346.116C345.092 544.256 344.58 550.741 344.58 559.616ZM374.788 489.472C398.34 489.472 414.724 486.912 423.94 481.792C433.497 476.672 438.276 467.968 438.276 455.68C438.276 441.003 429.743 433.664 412.676 433.664C382.297 433.664 362.671 452.267 353.796 489.472H374.788ZM541.488 384H611.12L631.088 462.336L684.336 384H753.968L653.104 517.12L694.064 640H624.432L604.464 564.736L552.24 640H481.072L581.424 512L541.488 384Z" fill="white" style="filter:url(#shadow);" />
  </g>
  <defs>
    <clipPath id="clip0_1_2">
      <rect width="1583" height="1014" fill="white"/>
    </clipPath>
  </defs>
</svg>
